<mxfile host="app.diagrams.net" agent="Mozilla/5.0 (X11; Linux x86_64) AppleWebKit/537.36 (KHTML, like Gecko) Chrome/134.0.0.0 Safari/537.36" version="26.2.4" pages="2">
  <diagram id="R2lEEEUBdFMjLlhIrx00" name="modelo-conceptual">
    <mxGraphModel grid="1" page="1" gridSize="10" guides="1" tooltips="1" connect="1" arrows="1" fold="1" pageScale="1" pageWidth="850" pageHeight="1100" math="0" shadow="0" extFonts="Permanent Marker^https://fonts.googleapis.com/css?family=Permanent+Marker">
      <root>
        <mxCell id="0" />
        <mxCell id="1" parent="0" />
        <mxCell id="3t429b_SGeL65_ukOjDj-351" style="edgeStyle=orthogonalEdgeStyle;rounded=0;orthogonalLoop=1;jettySize=auto;html=1;exitX=1;exitY=0.5;exitDx=0;exitDy=0;entryX=0;entryY=0.5;entryDx=0;entryDy=0;endArrow=none;startFill=0;" edge="1" parent="1" source="3t429b_SGeL65_ukOjDj-354" target="3t429b_SGeL65_ukOjDj-362">
          <mxGeometry relative="1" as="geometry" />
        </mxCell>
        <mxCell id="3t429b_SGeL65_ukOjDj-352" value="1" style="edgeLabel;html=1;align=center;verticalAlign=middle;resizable=0;points=[];" connectable="0" vertex="1" parent="3t429b_SGeL65_ukOjDj-351">
          <mxGeometry x="-0.4218" relative="1" as="geometry">
            <mxPoint x="8" as="offset" />
          </mxGeometry>
        </mxCell>
        <mxCell id="3t429b_SGeL65_ukOjDj-353" style="rounded=0;orthogonalLoop=1;jettySize=auto;html=1;exitX=0.75;exitY=1;exitDx=0;exitDy=0;entryX=0.5;entryY=0;entryDx=0;entryDy=0;endArrow=none;startFill=0;" edge="1" parent="1" source="3t429b_SGeL65_ukOjDj-354" target="3t429b_SGeL65_ukOjDj-373">
          <mxGeometry relative="1" as="geometry" />
        </mxCell>
        <mxCell id="3t429b_SGeL65_ukOjDj-354" value="Country" style="whiteSpace=wrap;html=1;align=center;fillColor=#fff2cc;strokeColor=#d6b656;" vertex="1" parent="1">
          <mxGeometry x="-425" y="1370" width="100" height="40" as="geometry" />
        </mxCell>
        <mxCell id="3t429b_SGeL65_ukOjDj-355" value="Province" style="whiteSpace=wrap;html=1;align=center;fillColor=#fff2cc;strokeColor=#d6b656;" vertex="1" parent="1">
          <mxGeometry x="-175" y="1370" width="100" height="40" as="geometry" />
        </mxCell>
        <mxCell id="3t429b_SGeL65_ukOjDj-356" style="edgeStyle=orthogonalEdgeStyle;rounded=0;orthogonalLoop=1;jettySize=auto;html=1;exitX=1;exitY=0.5;exitDx=0;exitDy=0;entryX=0;entryY=0.5;entryDx=0;entryDy=0;endArrow=none;startFill=0;" edge="1" parent="1" source="3t429b_SGeL65_ukOjDj-358" target="3t429b_SGeL65_ukOjDj-370">
          <mxGeometry relative="1" as="geometry" />
        </mxCell>
        <mxCell id="3t429b_SGeL65_ukOjDj-357" value="1" style="edgeLabel;html=1;align=center;verticalAlign=middle;resizable=0;points=[];" connectable="0" vertex="1" parent="3t429b_SGeL65_ukOjDj-356">
          <mxGeometry x="-0.4731" relative="1" as="geometry">
            <mxPoint x="14" as="offset" />
          </mxGeometry>
        </mxCell>
        <mxCell id="3t429b_SGeL65_ukOjDj-358" value="Canton" style="whiteSpace=wrap;html=1;align=center;fillColor=#fff2cc;strokeColor=#d6b656;" vertex="1" parent="1">
          <mxGeometry x="95" y="1370" width="100" height="40" as="geometry" />
        </mxCell>
        <mxCell id="3t429b_SGeL65_ukOjDj-359" value="District" style="whiteSpace=wrap;html=1;align=center;fillColor=#fff2cc;strokeColor=#d6b656;" vertex="1" parent="1">
          <mxGeometry x="355" y="1370" width="100" height="40" as="geometry" />
        </mxCell>
        <mxCell id="3t429b_SGeL65_ukOjDj-360" style="edgeStyle=orthogonalEdgeStyle;rounded=0;orthogonalLoop=1;jettySize=auto;html=1;entryX=0;entryY=0.5;entryDx=0;entryDy=0;endArrow=none;startFill=0;" edge="1" parent="1" source="3t429b_SGeL65_ukOjDj-362" target="3t429b_SGeL65_ukOjDj-355">
          <mxGeometry relative="1" as="geometry" />
        </mxCell>
        <mxCell id="3t429b_SGeL65_ukOjDj-361" value="N" style="edgeLabel;html=1;align=center;verticalAlign=middle;resizable=0;points=[];" connectable="0" vertex="1" parent="3t429b_SGeL65_ukOjDj-360">
          <mxGeometry x="0.45" y="-1" relative="1" as="geometry">
            <mxPoint x="-10" y="-1" as="offset" />
          </mxGeometry>
        </mxCell>
        <mxCell id="3t429b_SGeL65_ukOjDj-362" value="Has" style="shape=rhombus;perimeter=rhombusPerimeter;whiteSpace=wrap;html=1;align=center;fillColor=#d5e8d4;strokeColor=#82b366;" vertex="1" parent="1">
          <mxGeometry x="-280" y="1370" width="50" height="40" as="geometry" />
        </mxCell>
        <mxCell id="3t429b_SGeL65_ukOjDj-363" style="edgeStyle=orthogonalEdgeStyle;rounded=0;orthogonalLoop=1;jettySize=auto;html=1;exitX=1;exitY=0.5;exitDx=0;exitDy=0;entryX=0;entryY=0.5;entryDx=0;entryDy=0;endArrow=none;startFill=0;" edge="1" parent="1" source="3t429b_SGeL65_ukOjDj-355" target="3t429b_SGeL65_ukOjDj-367">
          <mxGeometry relative="1" as="geometry">
            <mxPoint x="405" y="1645" as="sourcePoint" />
          </mxGeometry>
        </mxCell>
        <mxCell id="3t429b_SGeL65_ukOjDj-364" value="1" style="edgeLabel;html=1;align=center;verticalAlign=middle;resizable=0;points=[];" connectable="0" vertex="1" parent="3t429b_SGeL65_ukOjDj-363">
          <mxGeometry x="-0.2167" y="-1" relative="1" as="geometry">
            <mxPoint x="5" as="offset" />
          </mxGeometry>
        </mxCell>
        <mxCell id="3t429b_SGeL65_ukOjDj-365" style="edgeStyle=orthogonalEdgeStyle;rounded=0;orthogonalLoop=1;jettySize=auto;html=1;entryX=0;entryY=0.5;entryDx=0;entryDy=0;endArrow=none;startFill=0;" edge="1" parent="1" source="3t429b_SGeL65_ukOjDj-367" target="3t429b_SGeL65_ukOjDj-358">
          <mxGeometry relative="1" as="geometry">
            <mxPoint x="405" y="1525" as="targetPoint" />
          </mxGeometry>
        </mxCell>
        <mxCell id="3t429b_SGeL65_ukOjDj-366" value="N" style="edgeLabel;html=1;align=center;verticalAlign=middle;resizable=0;points=[];" connectable="0" vertex="1" parent="3t429b_SGeL65_ukOjDj-365">
          <mxGeometry x="0.0654" relative="1" as="geometry">
            <mxPoint as="offset" />
          </mxGeometry>
        </mxCell>
        <mxCell id="3t429b_SGeL65_ukOjDj-367" value="Has" style="shape=rhombus;perimeter=rhombusPerimeter;whiteSpace=wrap;html=1;align=center;fillColor=#d5e8d4;strokeColor=#82b366;" vertex="1" parent="1">
          <mxGeometry x="-15" y="1370" width="50" height="40" as="geometry" />
        </mxCell>
        <mxCell id="3t429b_SGeL65_ukOjDj-368" style="edgeStyle=orthogonalEdgeStyle;rounded=0;orthogonalLoop=1;jettySize=auto;html=1;exitX=1;exitY=0.5;exitDx=0;exitDy=0;entryX=0;entryY=0.5;entryDx=0;entryDy=0;endArrow=none;startFill=0;" edge="1" parent="1" source="3t429b_SGeL65_ukOjDj-370" target="3t429b_SGeL65_ukOjDj-359">
          <mxGeometry relative="1" as="geometry" />
        </mxCell>
        <mxCell id="3t429b_SGeL65_ukOjDj-369" value="N" style="edgeLabel;html=1;align=center;verticalAlign=middle;resizable=0;points=[];" connectable="0" vertex="1" parent="3t429b_SGeL65_ukOjDj-368">
          <mxGeometry x="0.8195" relative="1" as="geometry">
            <mxPoint x="-21" as="offset" />
          </mxGeometry>
        </mxCell>
        <mxCell id="3t429b_SGeL65_ukOjDj-370" value="Has" style="shape=rhombus;perimeter=rhombusPerimeter;whiteSpace=wrap;html=1;align=center;fillColor=#d5e8d4;strokeColor=#82b366;" vertex="1" parent="1">
          <mxGeometry x="255" y="1370" width="50" height="40" as="geometry" />
        </mxCell>
        <mxCell id="3t429b_SGeL65_ukOjDj-371" style="rounded=0;orthogonalLoop=1;jettySize=auto;html=1;entryX=0.25;entryY=1;entryDx=0;entryDy=0;endArrow=none;startFill=0;" edge="1" parent="1" source="3t429b_SGeL65_ukOjDj-372" target="3t429b_SGeL65_ukOjDj-354">
          <mxGeometry relative="1" as="geometry" />
        </mxCell>
        <mxCell id="3t429b_SGeL65_ukOjDj-372" value="name" style="ellipse;whiteSpace=wrap;html=1;align=center;fillColor=#dae8fc;strokeColor=#6c8ebf;" vertex="1" parent="1">
          <mxGeometry x="-465" y="1450" width="70" height="30" as="geometry" />
        </mxCell>
        <mxCell id="3t429b_SGeL65_ukOjDj-373" value="id" style="ellipse;whiteSpace=wrap;html=1;align=center;fontStyle=4;fillColor=#1ba1e2;fontColor=#ffffff;strokeColor=#006EAF;" vertex="1" parent="1">
          <mxGeometry x="-350" y="1450" width="70" height="30" as="geometry" />
        </mxCell>
        <mxCell id="3t429b_SGeL65_ukOjDj-374" style="rounded=0;orthogonalLoop=1;jettySize=auto;html=1;entryX=0.25;entryY=1;entryDx=0;entryDy=0;endArrow=none;startFill=0;" edge="1" parent="1" source="3t429b_SGeL65_ukOjDj-375" target="3t429b_SGeL65_ukOjDj-355">
          <mxGeometry relative="1" as="geometry" />
        </mxCell>
        <mxCell id="3t429b_SGeL65_ukOjDj-375" value="name" style="ellipse;whiteSpace=wrap;html=1;align=center;fillColor=#dae8fc;strokeColor=#6c8ebf;" vertex="1" parent="1">
          <mxGeometry x="-215" y="1450" width="70" height="30" as="geometry" />
        </mxCell>
        <mxCell id="3t429b_SGeL65_ukOjDj-376" style="rounded=0;orthogonalLoop=1;jettySize=auto;html=1;entryX=0.75;entryY=1;entryDx=0;entryDy=0;endArrow=none;startFill=0;" edge="1" parent="1" source="3t429b_SGeL65_ukOjDj-377" target="3t429b_SGeL65_ukOjDj-355">
          <mxGeometry relative="1" as="geometry" />
        </mxCell>
        <mxCell id="3t429b_SGeL65_ukOjDj-377" value="id" style="ellipse;whiteSpace=wrap;html=1;align=center;fontStyle=4;fillColor=#1ba1e2;fontColor=#ffffff;strokeColor=#006EAF;" vertex="1" parent="1">
          <mxGeometry x="-110" y="1450" width="70" height="30" as="geometry" />
        </mxCell>
        <mxCell id="3t429b_SGeL65_ukOjDj-378" style="rounded=0;orthogonalLoop=1;jettySize=auto;html=1;entryX=0.25;entryY=1;entryDx=0;entryDy=0;endArrow=none;startFill=0;" edge="1" parent="1" source="3t429b_SGeL65_ukOjDj-379" target="3t429b_SGeL65_ukOjDj-358">
          <mxGeometry relative="1" as="geometry" />
        </mxCell>
        <mxCell id="3t429b_SGeL65_ukOjDj-379" value="name" style="ellipse;whiteSpace=wrap;html=1;align=center;fillColor=#dae8fc;strokeColor=#6c8ebf;" vertex="1" parent="1">
          <mxGeometry x="60" y="1450" width="70" height="30" as="geometry" />
        </mxCell>
        <mxCell id="3t429b_SGeL65_ukOjDj-380" style="rounded=0;orthogonalLoop=1;jettySize=auto;html=1;entryX=0.75;entryY=1;entryDx=0;entryDy=0;endArrow=none;startFill=0;" edge="1" parent="1" source="3t429b_SGeL65_ukOjDj-381" target="3t429b_SGeL65_ukOjDj-358">
          <mxGeometry relative="1" as="geometry" />
        </mxCell>
        <mxCell id="3t429b_SGeL65_ukOjDj-381" value="id" style="ellipse;whiteSpace=wrap;html=1;align=center;fontStyle=4;fillColor=#1ba1e2;fontColor=#ffffff;strokeColor=#006EAF;" vertex="1" parent="1">
          <mxGeometry x="160" y="1450" width="70" height="30" as="geometry" />
        </mxCell>
        <mxCell id="3t429b_SGeL65_ukOjDj-382" style="rounded=0;orthogonalLoop=1;jettySize=auto;html=1;entryX=0.25;entryY=1;entryDx=0;entryDy=0;endArrow=none;startFill=0;" edge="1" parent="1" source="3t429b_SGeL65_ukOjDj-383" target="3t429b_SGeL65_ukOjDj-359">
          <mxGeometry relative="1" as="geometry" />
        </mxCell>
        <mxCell id="3t429b_SGeL65_ukOjDj-383" value="name" style="ellipse;whiteSpace=wrap;html=1;align=center;fillColor=#dae8fc;strokeColor=#6c8ebf;" vertex="1" parent="1">
          <mxGeometry x="325.5" y="1450" width="70" height="30" as="geometry" />
        </mxCell>
        <mxCell id="3t429b_SGeL65_ukOjDj-384" style="rounded=0;orthogonalLoop=1;jettySize=auto;html=1;entryX=0.75;entryY=1;entryDx=0;entryDy=0;endArrow=none;startFill=0;" edge="1" parent="1" source="3t429b_SGeL65_ukOjDj-385" target="3t429b_SGeL65_ukOjDj-359">
          <mxGeometry relative="1" as="geometry" />
        </mxCell>
        <mxCell id="3t429b_SGeL65_ukOjDj-385" value="id" style="ellipse;whiteSpace=wrap;html=1;align=center;fontStyle=4;fillColor=#1ba1e2;fontColor=#ffffff;strokeColor=#006EAF;" vertex="1" parent="1">
          <mxGeometry x="406.25" y="1450" width="70" height="30" as="geometry" />
        </mxCell>
        <mxCell id="3t429b_SGeL65_ukOjDj-386" style="edgeStyle=orthogonalEdgeStyle;rounded=0;orthogonalLoop=1;jettySize=auto;html=1;exitX=1;exitY=0.25;exitDx=0;exitDy=0;entryX=0;entryY=0.5;entryDx=0;entryDy=0;endArrow=none;startFill=0;" edge="1" parent="1" source="3t429b_SGeL65_ukOjDj-402" target="3t429b_SGeL65_ukOjDj-430">
          <mxGeometry relative="1" as="geometry" />
        </mxCell>
        <mxCell id="3t429b_SGeL65_ukOjDj-387" value="1" style="edgeLabel;html=1;align=center;verticalAlign=middle;resizable=0;points=[];" connectable="0" vertex="1" parent="3t429b_SGeL65_ukOjDj-386">
          <mxGeometry x="-0.7685" y="-2" relative="1" as="geometry">
            <mxPoint x="30" y="-2" as="offset" />
          </mxGeometry>
        </mxCell>
        <mxCell id="3t429b_SGeL65_ukOjDj-388" style="edgeStyle=orthogonalEdgeStyle;rounded=0;orthogonalLoop=1;jettySize=auto;html=1;exitX=1;exitY=0.5;exitDx=0;exitDy=0;entryX=0;entryY=0.5;entryDx=0;entryDy=0;endArrow=none;startFill=0;" edge="1" parent="1" source="3t429b_SGeL65_ukOjDj-402" target="3t429b_SGeL65_ukOjDj-431">
          <mxGeometry relative="1" as="geometry">
            <Array as="points">
              <mxPoint x="160" y="390" />
              <mxPoint x="160" y="455" />
            </Array>
          </mxGeometry>
        </mxCell>
        <mxCell id="3t429b_SGeL65_ukOjDj-389" value="N" style="edgeLabel;html=1;align=center;verticalAlign=middle;resizable=0;points=[];" connectable="0" vertex="1" parent="3t429b_SGeL65_ukOjDj-388">
          <mxGeometry x="-0.5145" y="-3" relative="1" as="geometry">
            <mxPoint x="35" y="32" as="offset" />
          </mxGeometry>
        </mxCell>
        <mxCell id="3t429b_SGeL65_ukOjDj-390" style="edgeStyle=orthogonalEdgeStyle;rounded=0;orthogonalLoop=1;jettySize=auto;html=1;exitX=1;exitY=0.75;exitDx=0;exitDy=0;entryX=0;entryY=0.5;entryDx=0;entryDy=0;endArrow=none;startFill=0;" edge="1" parent="1" target="3t429b_SGeL65_ukOjDj-432">
          <mxGeometry relative="1" as="geometry">
            <Array as="points">
              <mxPoint x="140" y="408" />
              <mxPoint x="140" y="533" />
            </Array>
            <mxPoint x="90" y="408" as="sourcePoint" />
          </mxGeometry>
        </mxCell>
        <mxCell id="3t429b_SGeL65_ukOjDj-391" value="N" style="edgeLabel;html=1;align=center;verticalAlign=middle;resizable=0;points=[];" connectable="0" vertex="1" parent="3t429b_SGeL65_ukOjDj-390">
          <mxGeometry x="-0.8879" y="-3" relative="1" as="geometry">
            <mxPoint x="39" y="67" as="offset" />
          </mxGeometry>
        </mxCell>
        <mxCell id="3t429b_SGeL65_ukOjDj-392" style="edgeStyle=orthogonalEdgeStyle;rounded=0;orthogonalLoop=1;jettySize=auto;html=1;exitX=0;exitY=0.25;exitDx=0;exitDy=0;entryX=1;entryY=0.5;entryDx=0;entryDy=0;endArrow=none;startFill=0;" edge="1" parent="1" source="3t429b_SGeL65_ukOjDj-402" target="3t429b_SGeL65_ukOjDj-447">
          <mxGeometry relative="1" as="geometry">
            <Array as="points">
              <mxPoint x="-110" y="380" />
              <mxPoint x="-110" y="290" />
            </Array>
          </mxGeometry>
        </mxCell>
        <mxCell id="3t429b_SGeL65_ukOjDj-393" value="1" style="edgeLabel;html=1;align=center;verticalAlign=middle;resizable=0;points=[];" connectable="0" vertex="1" parent="3t429b_SGeL65_ukOjDj-392">
          <mxGeometry x="-0.8977" relative="1" as="geometry">
            <mxPoint x="-90" y="-40" as="offset" />
          </mxGeometry>
        </mxCell>
        <mxCell id="3t429b_SGeL65_ukOjDj-394" style="edgeStyle=orthogonalEdgeStyle;rounded=0;orthogonalLoop=1;jettySize=auto;html=1;exitX=0;exitY=0.5;exitDx=0;exitDy=0;entryX=1;entryY=0.5;entryDx=0;entryDy=0;endArrow=none;startFill=0;" edge="1" parent="1" source="3t429b_SGeL65_ukOjDj-402" target="3t429b_SGeL65_ukOjDj-450">
          <mxGeometry relative="1" as="geometry">
            <Array as="points" />
          </mxGeometry>
        </mxCell>
        <mxCell id="3t429b_SGeL65_ukOjDj-395" value="1" style="edgeLabel;html=1;align=center;verticalAlign=middle;resizable=0;points=[];" connectable="0" vertex="1" parent="3t429b_SGeL65_ukOjDj-394">
          <mxGeometry x="-0.8457" y="-1" relative="1" as="geometry">
            <mxPoint x="-55" y="1" as="offset" />
          </mxGeometry>
        </mxCell>
        <mxCell id="3t429b_SGeL65_ukOjDj-396" style="edgeStyle=orthogonalEdgeStyle;rounded=0;orthogonalLoop=1;jettySize=auto;html=1;exitX=0;exitY=0.75;exitDx=0;exitDy=0;entryX=1;entryY=0.5;entryDx=0;entryDy=0;endArrow=none;startFill=0;" edge="1" parent="1" source="3t429b_SGeL65_ukOjDj-402" target="3t429b_SGeL65_ukOjDj-453">
          <mxGeometry relative="1" as="geometry">
            <Array as="points">
              <mxPoint x="-110" y="400" />
              <mxPoint x="-110" y="505" />
            </Array>
          </mxGeometry>
        </mxCell>
        <mxCell id="3t429b_SGeL65_ukOjDj-397" value="N" style="edgeLabel;html=1;align=center;verticalAlign=middle;resizable=0;points=[];" connectable="0" vertex="1" parent="3t429b_SGeL65_ukOjDj-396">
          <mxGeometry x="-0.7662" y="1" relative="1" as="geometry">
            <mxPoint x="-74" y="34" as="offset" />
          </mxGeometry>
        </mxCell>
        <mxCell id="3t429b_SGeL65_ukOjDj-398" style="edgeStyle=orthogonalEdgeStyle;rounded=0;orthogonalLoop=1;jettySize=auto;html=1;exitX=0.75;exitY=1;exitDx=0;exitDy=0;entryX=0.5;entryY=0;entryDx=0;entryDy=0;endArrow=none;startFill=0;" edge="1" parent="1" source="3t429b_SGeL65_ukOjDj-402" target="3t429b_SGeL65_ukOjDj-504">
          <mxGeometry relative="1" as="geometry" />
        </mxCell>
        <mxCell id="3t429b_SGeL65_ukOjDj-399" value="1" style="edgeLabel;html=1;align=center;verticalAlign=middle;resizable=0;points=[];" connectable="0" vertex="1" parent="3t429b_SGeL65_ukOjDj-398">
          <mxGeometry x="-0.7629" y="-1" relative="1" as="geometry">
            <mxPoint x="1" y="33" as="offset" />
          </mxGeometry>
        </mxCell>
        <mxCell id="3t429b_SGeL65_ukOjDj-400" style="edgeStyle=orthogonalEdgeStyle;rounded=0;orthogonalLoop=1;jettySize=auto;html=1;exitX=0.25;exitY=1;exitDx=0;exitDy=0;entryX=0.5;entryY=0;entryDx=0;entryDy=0;endArrow=none;startFill=0;" edge="1" parent="1" source="3t429b_SGeL65_ukOjDj-402" target="3t429b_SGeL65_ukOjDj-505">
          <mxGeometry relative="1" as="geometry">
            <mxPoint x="20" y="510" as="targetPoint" />
            <Array as="points">
              <mxPoint x="10" y="410" />
            </Array>
          </mxGeometry>
        </mxCell>
        <mxCell id="3t429b_SGeL65_ukOjDj-401" value="1" style="edgeLabel;html=1;align=center;verticalAlign=middle;resizable=0;points=[];" connectable="0" vertex="1" parent="3t429b_SGeL65_ukOjDj-400">
          <mxGeometry x="-0.6978" relative="1" as="geometry">
            <mxPoint y="34" as="offset" />
          </mxGeometry>
        </mxCell>
        <mxCell id="3t429b_SGeL65_ukOjDj-402" value="Person" style="whiteSpace=wrap;html=1;align=center;fillColor=#fff2cc;strokeColor=#d6b656;" vertex="1" parent="1">
          <mxGeometry x="-10" y="370" width="100" height="40" as="geometry" />
        </mxCell>
        <mxCell id="3t429b_SGeL65_ukOjDj-403" style="rounded=0;orthogonalLoop=1;jettySize=auto;html=1;entryX=0.25;entryY=0;entryDx=0;entryDy=0;endArrow=none;startFill=0;" edge="1" parent="1" source="3t429b_SGeL65_ukOjDj-404" target="3t429b_SGeL65_ukOjDj-402">
          <mxGeometry relative="1" as="geometry" />
        </mxCell>
        <mxCell id="3t429b_SGeL65_ukOjDj-404" value="name" style="ellipse;whiteSpace=wrap;html=1;align=center;fillColor=#dae8fc;strokeColor=#6c8ebf;" vertex="1" parent="1">
          <mxGeometry x="-116" y="175" width="70" height="35" as="geometry" />
        </mxCell>
        <mxCell id="3t429b_SGeL65_ukOjDj-405" style="rounded=0;orthogonalLoop=1;jettySize=auto;html=1;exitX=1;exitY=1;exitDx=0;exitDy=0;entryX=0;entryY=0.5;entryDx=0;entryDy=0;endArrow=none;startFill=0;" edge="1" parent="1" source="3t429b_SGeL65_ukOjDj-406" target="3t429b_SGeL65_ukOjDj-404">
          <mxGeometry relative="1" as="geometry" />
        </mxCell>
        <mxCell id="3t429b_SGeL65_ukOjDj-406" value="first_name" style="ellipse;whiteSpace=wrap;html=1;align=center;fillColor=#dae8fc;strokeColor=#6c8ebf;" vertex="1" parent="1">
          <mxGeometry x="-220" y="131" width="80" height="40" as="geometry" />
        </mxCell>
        <mxCell id="3t429b_SGeL65_ukOjDj-407" style="rounded=0;orthogonalLoop=1;jettySize=auto;html=1;exitX=0.5;exitY=1;exitDx=0;exitDy=0;entryX=0;entryY=0;entryDx=0;entryDy=0;endArrow=none;startFill=0;" edge="1" parent="1" source="3t429b_SGeL65_ukOjDj-408" target="3t429b_SGeL65_ukOjDj-404">
          <mxGeometry relative="1" as="geometry" />
        </mxCell>
        <mxCell id="3t429b_SGeL65_ukOjDj-408" value="second_name" style="ellipse;whiteSpace=wrap;html=1;align=center;fillColor=#dae8fc;strokeColor=#6c8ebf;" vertex="1" parent="1">
          <mxGeometry x="-186" y="90" width="90" height="35" as="geometry" />
        </mxCell>
        <mxCell id="3t429b_SGeL65_ukOjDj-409" style="rounded=0;orthogonalLoop=1;jettySize=auto;html=1;exitX=0.5;exitY=1;exitDx=0;exitDy=0;entryX=0.5;entryY=0;entryDx=0;entryDy=0;endArrow=none;startFill=0;" edge="1" parent="1" source="3t429b_SGeL65_ukOjDj-410" target="3t429b_SGeL65_ukOjDj-404">
          <mxGeometry relative="1" as="geometry" />
        </mxCell>
        <mxCell id="3t429b_SGeL65_ukOjDj-410" value="first_surname" style="ellipse;whiteSpace=wrap;html=1;align=center;fillColor=#dae8fc;strokeColor=#6c8ebf;" vertex="1" parent="1">
          <mxGeometry x="-86" y="85" width="90" height="40" as="geometry" />
        </mxCell>
        <mxCell id="3t429b_SGeL65_ukOjDj-411" style="rounded=0;orthogonalLoop=1;jettySize=auto;html=1;exitX=0;exitY=1;exitDx=0;exitDy=0;entryX=1;entryY=0;entryDx=0;entryDy=0;endArrow=none;startFill=0;" edge="1" parent="1" source="3t429b_SGeL65_ukOjDj-412" target="3t429b_SGeL65_ukOjDj-404">
          <mxGeometry relative="1" as="geometry" />
        </mxCell>
        <mxCell id="3t429b_SGeL65_ukOjDj-412" value="second_surname" style="ellipse;whiteSpace=wrap;html=1;align=center;fillColor=#dae8fc;strokeColor=#6c8ebf;" vertex="1" parent="1">
          <mxGeometry x="-36" y="135" width="110" height="40" as="geometry" />
        </mxCell>
        <mxCell id="3t429b_SGeL65_ukOjDj-413" style="rounded=0;orthogonalLoop=1;jettySize=auto;html=1;entryX=0.5;entryY=0;entryDx=0;entryDy=0;endArrow=none;startFill=0;" edge="1" parent="1" source="3t429b_SGeL65_ukOjDj-414" target="3t429b_SGeL65_ukOjDj-402">
          <mxGeometry relative="1" as="geometry" />
        </mxCell>
        <mxCell id="3t429b_SGeL65_ukOjDj-414" value="date_of_birth" style="ellipse;whiteSpace=wrap;html=1;align=center;fillColor=#dae8fc;strokeColor=#6c8ebf;" vertex="1" parent="1">
          <mxGeometry x="-47.5" y="225" width="85" height="40" as="geometry" />
        </mxCell>
        <mxCell id="3t429b_SGeL65_ukOjDj-415" style="rounded=0;orthogonalLoop=1;jettySize=auto;html=1;entryX=0.61;entryY=-0.006;entryDx=0;entryDy=0;endArrow=none;startFill=0;entryPerimeter=0;" edge="1" parent="1" source="3t429b_SGeL65_ukOjDj-416" target="3t429b_SGeL65_ukOjDj-402">
          <mxGeometry relative="1" as="geometry" />
        </mxCell>
        <mxCell id="3t429b_SGeL65_ukOjDj-416" value="identification_number" style="ellipse;whiteSpace=wrap;html=1;align=center;fillColor=#dae8fc;strokeColor=#6c8ebf;" vertex="1" parent="1">
          <mxGeometry x="-25" y="180" width="130" height="40" as="geometry" />
        </mxCell>
        <mxCell id="3t429b_SGeL65_ukOjDj-418" value="age" style="ellipse;whiteSpace=wrap;html=1;align=center;dashed=1;fillColor=#e1d5e7;strokeColor=#9673a6;" vertex="1" parent="1">
          <mxGeometry x="-100" y="293" width="60" height="35" as="geometry" />
        </mxCell>
        <mxCell id="3t429b_SGeL65_ukOjDj-420" value="id" style="ellipse;whiteSpace=wrap;html=1;align=center;fontStyle=4;fillColor=#1ba1e2;fontColor=#ffffff;strokeColor=#006EAF;" vertex="1" parent="1">
          <mxGeometry x="-101" y="340" width="40" height="30" as="geometry" />
        </mxCell>
        <mxCell id="3t429b_SGeL65_ukOjDj-421" value="Photo" style="whiteSpace=wrap;html=1;align=center;fillColor=#fff2cc;strokeColor=#d6b656;" vertex="1" parent="1">
          <mxGeometry x="280" y="360" width="100" height="40" as="geometry" />
        </mxCell>
        <mxCell id="3t429b_SGeL65_ukOjDj-422" style="rounded=0;orthogonalLoop=1;jettySize=auto;html=1;exitX=0;exitY=0.5;exitDx=0;exitDy=0;entryX=1;entryY=0.5;entryDx=0;entryDy=0;endArrow=none;startFill=0;edgeStyle=orthogonalEdgeStyle;" edge="1" parent="1" source="3t429b_SGeL65_ukOjDj-424" target="3t429b_SGeL65_ukOjDj-431">
          <mxGeometry relative="1" as="geometry" />
        </mxCell>
        <mxCell id="3t429b_SGeL65_ukOjDj-423" value="N" style="edgeLabel;html=1;align=center;verticalAlign=middle;resizable=0;points=[];" connectable="0" vertex="1" parent="3t429b_SGeL65_ukOjDj-422">
          <mxGeometry x="-0.6049" relative="1" as="geometry">
            <mxPoint x="-13" as="offset" />
          </mxGeometry>
        </mxCell>
        <mxCell id="3t429b_SGeL65_ukOjDj-424" value="Phone" style="whiteSpace=wrap;html=1;align=center;fillColor=#fff2cc;strokeColor=#d6b656;" vertex="1" parent="1">
          <mxGeometry x="280" y="435" width="100" height="40" as="geometry" />
        </mxCell>
        <mxCell id="3t429b_SGeL65_ukOjDj-425" style="rounded=0;orthogonalLoop=1;jettySize=auto;html=1;exitX=0;exitY=0.5;exitDx=0;exitDy=0;entryX=1;entryY=0.5;entryDx=0;entryDy=0;endArrow=none;startFill=0;edgeStyle=orthogonalEdgeStyle;" edge="1" parent="1" source="3t429b_SGeL65_ukOjDj-427" target="3t429b_SGeL65_ukOjDj-432">
          <mxGeometry relative="1" as="geometry" />
        </mxCell>
        <mxCell id="3t429b_SGeL65_ukOjDj-426" value="1" style="edgeLabel;html=1;align=center;verticalAlign=middle;resizable=0;points=[];" connectable="0" vertex="1" parent="3t429b_SGeL65_ukOjDj-425">
          <mxGeometry x="-0.6543" y="-1" relative="1" as="geometry">
            <mxPoint x="-15" y="1" as="offset" />
          </mxGeometry>
        </mxCell>
        <mxCell id="3t429b_SGeL65_ukOjDj-427" value="Gender" style="whiteSpace=wrap;html=1;align=center;fillColor=#fff2cc;strokeColor=#d6b656;" vertex="1" parent="1">
          <mxGeometry x="280" y="513" width="100" height="40" as="geometry" />
        </mxCell>
        <mxCell id="3t429b_SGeL65_ukOjDj-428" style="rounded=0;orthogonalLoop=1;jettySize=auto;html=1;exitX=1;exitY=0.5;exitDx=0;exitDy=0;entryX=0;entryY=0.5;entryDx=0;entryDy=0;endArrow=none;startFill=0;edgeStyle=orthogonalEdgeStyle;" edge="1" parent="1" source="3t429b_SGeL65_ukOjDj-430" target="3t429b_SGeL65_ukOjDj-421">
          <mxGeometry relative="1" as="geometry" />
        </mxCell>
        <mxCell id="3t429b_SGeL65_ukOjDj-429" value="N" style="edgeLabel;html=1;align=center;verticalAlign=middle;resizable=0;points=[];" connectable="0" vertex="1" parent="3t429b_SGeL65_ukOjDj-428">
          <mxGeometry x="0.5802" y="1" relative="1" as="geometry">
            <mxPoint x="-13" y="1" as="offset" />
          </mxGeometry>
        </mxCell>
        <mxCell id="3t429b_SGeL65_ukOjDj-430" value="Has" style="shape=rhombus;perimeter=rhombusPerimeter;whiteSpace=wrap;html=1;align=center;fillColor=#d5e8d4;strokeColor=#82b366;" vertex="1" parent="1">
          <mxGeometry x="170" y="355" width="50" height="50" as="geometry" />
        </mxCell>
        <mxCell id="3t429b_SGeL65_ukOjDj-431" value="Has" style="shape=rhombus;perimeter=rhombusPerimeter;whiteSpace=wrap;html=1;align=center;fillColor=#d5e8d4;strokeColor=#82b366;" vertex="1" parent="1">
          <mxGeometry x="170" y="430" width="50" height="50" as="geometry" />
        </mxCell>
        <mxCell id="3t429b_SGeL65_ukOjDj-432" value="Has" style="shape=rhombus;perimeter=rhombusPerimeter;whiteSpace=wrap;html=1;align=center;fillColor=#d5e8d4;strokeColor=#82b366;" vertex="1" parent="1">
          <mxGeometry x="170" y="508" width="50" height="50" as="geometry" />
        </mxCell>
        <mxCell id="3t429b_SGeL65_ukOjDj-433" style="rounded=0;orthogonalLoop=1;jettySize=auto;html=1;exitX=0;exitY=0.5;exitDx=0;exitDy=0;entryX=1;entryY=0.75;entryDx=0;entryDy=0;endArrow=none;startFill=0;" edge="1" parent="1" source="3t429b_SGeL65_ukOjDj-434" target="3t429b_SGeL65_ukOjDj-421">
          <mxGeometry relative="1" as="geometry" />
        </mxCell>
        <mxCell id="3t429b_SGeL65_ukOjDj-434" value="image" style="ellipse;whiteSpace=wrap;html=1;align=center;fillColor=#dae8fc;strokeColor=#6c8ebf;" vertex="1" parent="1">
          <mxGeometry x="402" y="361" width="70" height="35" as="geometry" />
        </mxCell>
        <mxCell id="3t429b_SGeL65_ukOjDj-435" style="rounded=0;orthogonalLoop=1;jettySize=auto;html=1;exitX=0;exitY=0.5;exitDx=0;exitDy=0;entryX=1;entryY=0.25;entryDx=0;entryDy=0;endArrow=none;startFill=0;" edge="1" parent="1" source="3t429b_SGeL65_ukOjDj-436" target="3t429b_SGeL65_ukOjDj-421">
          <mxGeometry relative="1" as="geometry" />
        </mxCell>
        <mxCell id="3t429b_SGeL65_ukOjDj-436" value="id" style="ellipse;whiteSpace=wrap;html=1;align=center;fontStyle=4;fillColor=#1ba1e2;fontColor=#ffffff;strokeColor=#006EAF;" vertex="1" parent="1">
          <mxGeometry x="430" y="330" width="70" height="30" as="geometry" />
        </mxCell>
        <mxCell id="3t429b_SGeL65_ukOjDj-437" style="rounded=0;orthogonalLoop=1;jettySize=auto;html=1;exitX=0;exitY=0.5;exitDx=0;exitDy=0;entryX=1;entryY=0.75;entryDx=0;entryDy=0;endArrow=none;startFill=0;" edge="1" parent="1" source="3t429b_SGeL65_ukOjDj-438" target="3t429b_SGeL65_ukOjDj-424">
          <mxGeometry relative="1" as="geometry">
            <mxPoint x="380" y="455" as="targetPoint" />
          </mxGeometry>
        </mxCell>
        <mxCell id="3t429b_SGeL65_ukOjDj-438" value="number" style="ellipse;whiteSpace=wrap;html=1;align=center;fillColor=#dae8fc;strokeColor=#6c8ebf;" vertex="1" parent="1">
          <mxGeometry x="430" y="470" width="60" height="20" as="geometry" />
        </mxCell>
        <mxCell id="3t429b_SGeL65_ukOjDj-439" style="rounded=0;orthogonalLoop=1;jettySize=auto;html=1;exitX=0;exitY=0.5;exitDx=0;exitDy=0;entryX=1;entryY=0.25;entryDx=0;entryDy=0;endArrow=none;startFill=0;" edge="1" parent="1" source="3t429b_SGeL65_ukOjDj-440" target="3t429b_SGeL65_ukOjDj-424">
          <mxGeometry relative="1" as="geometry">
            <mxPoint x="380" y="435" as="targetPoint" />
          </mxGeometry>
        </mxCell>
        <mxCell id="3t429b_SGeL65_ukOjDj-440" value="id" style="ellipse;whiteSpace=wrap;html=1;align=center;fontStyle=4;fillColor=#1ba1e2;fontColor=#ffffff;strokeColor=#006EAF;" vertex="1" parent="1">
          <mxGeometry x="430" y="400" width="50" height="20" as="geometry" />
        </mxCell>
        <mxCell id="3t429b_SGeL65_ukOjDj-441" style="rounded=0;orthogonalLoop=1;jettySize=auto;html=1;exitX=0;exitY=0.5;exitDx=0;exitDy=0;entryX=1;entryY=0.75;entryDx=0;entryDy=0;endArrow=none;startFill=0;" edge="1" parent="1" source="3t429b_SGeL65_ukOjDj-442" target="3t429b_SGeL65_ukOjDj-427">
          <mxGeometry relative="1" as="geometry">
            <mxPoint x="380" y="515" as="targetPoint" />
          </mxGeometry>
        </mxCell>
        <mxCell id="3t429b_SGeL65_ukOjDj-442" value="name" style="ellipse;whiteSpace=wrap;html=1;align=center;fillColor=#dae8fc;strokeColor=#6c8ebf;" vertex="1" parent="1">
          <mxGeometry x="430" y="554" width="70" height="35" as="geometry" />
        </mxCell>
        <mxCell id="3t429b_SGeL65_ukOjDj-443" style="rounded=0;orthogonalLoop=1;jettySize=auto;html=1;exitX=0;exitY=0.5;exitDx=0;exitDy=0;entryX=1;entryY=0.25;entryDx=0;entryDy=0;endArrow=none;startFill=0;" edge="1" parent="1" source="3t429b_SGeL65_ukOjDj-444" target="3t429b_SGeL65_ukOjDj-427">
          <mxGeometry relative="1" as="geometry">
            <mxPoint x="380" y="495" as="targetPoint" />
          </mxGeometry>
        </mxCell>
        <mxCell id="3t429b_SGeL65_ukOjDj-444" value="id" style="ellipse;whiteSpace=wrap;html=1;align=center;fontStyle=4;fillColor=#1ba1e2;fontColor=#ffffff;strokeColor=#006EAF;" vertex="1" parent="1">
          <mxGeometry x="430" y="493" width="70" height="30" as="geometry" />
        </mxCell>
        <mxCell id="3t429b_SGeL65_ukOjDj-445" style="edgeStyle=orthogonalEdgeStyle;rounded=0;orthogonalLoop=1;jettySize=auto;html=1;exitX=0;exitY=0.5;exitDx=0;exitDy=0;entryX=1;entryY=0.5;entryDx=0;entryDy=0;endArrow=none;startFill=0;" edge="1" parent="1" source="3t429b_SGeL65_ukOjDj-447" target="3t429b_SGeL65_ukOjDj-462">
          <mxGeometry relative="1" as="geometry">
            <Array as="points">
              <mxPoint x="-200" y="290" />
              <mxPoint x="-200" y="245" />
            </Array>
          </mxGeometry>
        </mxCell>
        <mxCell id="3t429b_SGeL65_ukOjDj-446" value="N" style="edgeLabel;html=1;align=center;verticalAlign=middle;resizable=0;points=[];" connectable="0" vertex="1" parent="3t429b_SGeL65_ukOjDj-445">
          <mxGeometry x="0.8104" y="-1" relative="1" as="geometry">
            <mxPoint x="18" y="1" as="offset" />
          </mxGeometry>
        </mxCell>
        <mxCell id="3t429b_SGeL65_ukOjDj-447" value="Has" style="shape=rhombus;perimeter=rhombusPerimeter;whiteSpace=wrap;html=1;align=center;fillColor=#d5e8d4;strokeColor=#82b366;" vertex="1" parent="1">
          <mxGeometry x="-180" y="265" width="50" height="50" as="geometry" />
        </mxCell>
        <mxCell id="3t429b_SGeL65_ukOjDj-448" style="edgeStyle=orthogonalEdgeStyle;rounded=0;orthogonalLoop=1;jettySize=auto;html=1;exitX=0;exitY=0.5;exitDx=0;exitDy=0;entryX=1;entryY=0.5;entryDx=0;entryDy=0;endArrow=none;startFill=0;" edge="1" parent="1" source="3t429b_SGeL65_ukOjDj-450" target="3t429b_SGeL65_ukOjDj-456">
          <mxGeometry relative="1" as="geometry" />
        </mxCell>
        <mxCell id="3t429b_SGeL65_ukOjDj-449" value="N" style="edgeLabel;html=1;align=center;verticalAlign=middle;resizable=0;points=[];" connectable="0" vertex="1" parent="3t429b_SGeL65_ukOjDj-448">
          <mxGeometry x="0.6111" y="1" relative="1" as="geometry">
            <mxPoint x="25" y="-1" as="offset" />
          </mxGeometry>
        </mxCell>
        <mxCell id="3t429b_SGeL65_ukOjDj-450" value="Has" style="shape=rhombus;perimeter=rhombusPerimeter;whiteSpace=wrap;html=1;align=center;fillColor=#d5e8d4;strokeColor=#82b366;" vertex="1" parent="1">
          <mxGeometry x="-180" y="365" width="50" height="50" as="geometry" />
        </mxCell>
        <mxCell id="3t429b_SGeL65_ukOjDj-451" style="edgeStyle=orthogonalEdgeStyle;rounded=0;orthogonalLoop=1;jettySize=auto;html=1;exitX=0;exitY=0.5;exitDx=0;exitDy=0;entryX=1;entryY=0.5;entryDx=0;entryDy=0;endArrow=none;startFill=0;" edge="1" parent="1" source="3t429b_SGeL65_ukOjDj-453" target="3t429b_SGeL65_ukOjDj-461">
          <mxGeometry relative="1" as="geometry" />
        </mxCell>
        <mxCell id="3t429b_SGeL65_ukOjDj-452" value="N" style="edgeLabel;html=1;align=center;verticalAlign=middle;resizable=0;points=[];" connectable="0" vertex="1" parent="3t429b_SGeL65_ukOjDj-451">
          <mxGeometry x="0.3148" y="1" relative="1" as="geometry">
            <mxPoint x="-7" y="-1" as="offset" />
          </mxGeometry>
        </mxCell>
        <mxCell id="3t429b_SGeL65_ukOjDj-453" value="Has" style="shape=rhombus;perimeter=rhombusPerimeter;whiteSpace=wrap;html=1;align=center;fillColor=#d5e8d4;strokeColor=#82b366;" vertex="1" parent="1">
          <mxGeometry x="-180" y="480" width="50" height="50" as="geometry" />
        </mxCell>
        <mxCell id="3t429b_SGeL65_ukOjDj-454" style="edgeStyle=orthogonalEdgeStyle;rounded=0;orthogonalLoop=1;jettySize=auto;html=1;entryX=1;entryY=0.5;entryDx=0;entryDy=0;endArrow=none;startFill=0;" edge="1" parent="1" source="3t429b_SGeL65_ukOjDj-456" target="3t429b_SGeL65_ukOjDj-468">
          <mxGeometry relative="1" as="geometry" />
        </mxCell>
        <mxCell id="3t429b_SGeL65_ukOjDj-455" value="N" style="edgeLabel;html=1;align=center;verticalAlign=middle;resizable=0;points=[];" connectable="0" vertex="1" parent="3t429b_SGeL65_ukOjDj-454">
          <mxGeometry x="-0.5767" relative="1" as="geometry">
            <mxPoint x="-20" as="offset" />
          </mxGeometry>
        </mxCell>
        <mxCell id="3t429b_SGeL65_ukOjDj-456" value="Email" style="whiteSpace=wrap;html=1;align=center;fillColor=#fff2cc;strokeColor=#d6b656;" vertex="1" parent="1">
          <mxGeometry x="-360" y="370" width="100" height="40" as="geometry" />
        </mxCell>
        <mxCell id="3t429b_SGeL65_ukOjDj-457" value="Domain" style="whiteSpace=wrap;html=1;align=center;fillColor=#fff2cc;strokeColor=#d6b656;" vertex="1" parent="1">
          <mxGeometry x="-620" y="430" width="100" height="40" as="geometry" />
        </mxCell>
        <mxCell id="3t429b_SGeL65_ukOjDj-458" style="edgeStyle=orthogonalEdgeStyle;rounded=0;orthogonalLoop=1;jettySize=auto;html=1;entryX=1;entryY=0.5;entryDx=0;entryDy=0;endArrow=none;startFill=0;" edge="1" parent="1" source="3t429b_SGeL65_ukOjDj-461" target="3t429b_SGeL65_ukOjDj-465">
          <mxGeometry relative="1" as="geometry" />
        </mxCell>
        <mxCell id="3t429b_SGeL65_ukOjDj-459" value="" style="edgeStyle=orthogonalEdgeStyle;rounded=0;orthogonalLoop=1;jettySize=auto;html=1;endArrow=none;startFill=0;" edge="1" parent="1" source="3t429b_SGeL65_ukOjDj-461" target="3t429b_SGeL65_ukOjDj-465">
          <mxGeometry relative="1" as="geometry" />
        </mxCell>
        <mxCell id="3t429b_SGeL65_ukOjDj-460" value="N" style="edgeLabel;html=1;align=center;verticalAlign=middle;resizable=0;points=[];" connectable="0" vertex="1" parent="3t429b_SGeL65_ukOjDj-459">
          <mxGeometry x="-0.619" y="1" relative="1" as="geometry">
            <mxPoint x="-22" y="-1" as="offset" />
          </mxGeometry>
        </mxCell>
        <mxCell id="3t429b_SGeL65_ukOjDj-461" value="Institution" style="whiteSpace=wrap;html=1;align=center;fillColor=#fff2cc;strokeColor=#d6b656;" vertex="1" parent="1">
          <mxGeometry x="-360" y="485" width="100" height="40" as="geometry" />
        </mxCell>
        <mxCell id="3t429b_SGeL65_ukOjDj-462" value="User" style="whiteSpace=wrap;html=1;align=center;fillColor=#fff2cc;strokeColor=#d6b656;" vertex="1" parent="1">
          <mxGeometry x="-360" y="225" width="100" height="40" as="geometry" />
        </mxCell>
        <mxCell id="3t429b_SGeL65_ukOjDj-463" style="edgeStyle=orthogonalEdgeStyle;rounded=0;orthogonalLoop=1;jettySize=auto;html=1;entryX=0.75;entryY=1;entryDx=0;entryDy=0;endArrow=none;startFill=0;" edge="1" parent="1" source="3t429b_SGeL65_ukOjDj-465" target="3t429b_SGeL65_ukOjDj-457">
          <mxGeometry relative="1" as="geometry" />
        </mxCell>
        <mxCell id="3t429b_SGeL65_ukOjDj-464" value="N" style="edgeLabel;html=1;align=center;verticalAlign=middle;resizable=0;points=[];" connectable="0" vertex="1" parent="3t429b_SGeL65_ukOjDj-463">
          <mxGeometry x="0.7176" y="-2" relative="1" as="geometry">
            <mxPoint x="-2" y="6" as="offset" />
          </mxGeometry>
        </mxCell>
        <mxCell id="3t429b_SGeL65_ukOjDj-465" value="Has" style="shape=rhombus;perimeter=rhombusPerimeter;whiteSpace=wrap;html=1;align=center;fillColor=#d5e8d4;strokeColor=#82b366;" vertex="1" parent="1">
          <mxGeometry x="-480" y="480" width="50" height="50" as="geometry" />
        </mxCell>
        <mxCell id="3t429b_SGeL65_ukOjDj-466" style="edgeStyle=orthogonalEdgeStyle;rounded=0;orthogonalLoop=1;jettySize=auto;html=1;exitX=0;exitY=0.5;exitDx=0;exitDy=0;entryX=0.75;entryY=0;entryDx=0;entryDy=0;endArrow=none;startFill=0;" edge="1" parent="1" source="3t429b_SGeL65_ukOjDj-468" target="3t429b_SGeL65_ukOjDj-457">
          <mxGeometry relative="1" as="geometry" />
        </mxCell>
        <mxCell id="3t429b_SGeL65_ukOjDj-467" value="1" style="edgeLabel;html=1;align=center;verticalAlign=middle;resizable=0;points=[];" connectable="0" vertex="1" parent="3t429b_SGeL65_ukOjDj-466">
          <mxGeometry x="0.7042" relative="1" as="geometry">
            <mxPoint y="-5" as="offset" />
          </mxGeometry>
        </mxCell>
        <mxCell id="3t429b_SGeL65_ukOjDj-468" value="Has" style="shape=rhombus;perimeter=rhombusPerimeter;whiteSpace=wrap;html=1;align=center;fillColor=#d5e8d4;strokeColor=#82b366;" vertex="1" parent="1">
          <mxGeometry x="-480" y="365" width="50" height="50" as="geometry" />
        </mxCell>
        <mxCell id="3t429b_SGeL65_ukOjDj-469" style="rounded=0;orthogonalLoop=1;jettySize=auto;html=1;entryX=0.75;entryY=0;entryDx=0;entryDy=0;exitX=0.5;exitY=1;exitDx=0;exitDy=0;endArrow=none;startFill=0;" edge="1" parent="1" source="3t429b_SGeL65_ukOjDj-470" target="3t429b_SGeL65_ukOjDj-462">
          <mxGeometry relative="1" as="geometry" />
        </mxCell>
        <mxCell id="3t429b_SGeL65_ukOjDj-470" value="id" style="ellipse;whiteSpace=wrap;html=1;align=center;fontStyle=4;fillColor=#1ba1e2;strokeColor=#006EAF;fontColor=#ffffff;" vertex="1" parent="1">
          <mxGeometry x="-270" y="180" width="50" height="30" as="geometry" />
        </mxCell>
        <mxCell id="3t429b_SGeL65_ukOjDj-471" style="rounded=0;orthogonalLoop=1;jettySize=auto;html=1;exitX=1;exitY=0.5;exitDx=0;exitDy=0;entryX=0;entryY=0.25;entryDx=0;entryDy=0;endArrow=none;startFill=0;" edge="1" parent="1" source="3t429b_SGeL65_ukOjDj-472" target="3t429b_SGeL65_ukOjDj-457">
          <mxGeometry relative="1" as="geometry" />
        </mxCell>
        <mxCell id="3t429b_SGeL65_ukOjDj-472" value="id" style="ellipse;whiteSpace=wrap;html=1;align=center;fontStyle=4;fillColor=#1ba1e2;strokeColor=#006EAF;fontColor=#ffffff;" vertex="1" parent="1">
          <mxGeometry x="-720" y="415" width="70" height="30" as="geometry" />
        </mxCell>
        <mxCell id="3t429b_SGeL65_ukOjDj-473" style="rounded=0;orthogonalLoop=1;jettySize=auto;html=1;exitX=0.5;exitY=1;exitDx=0;exitDy=0;entryX=0.75;entryY=0;entryDx=0;entryDy=0;endArrow=none;startFill=0;" edge="1" parent="1" source="3t429b_SGeL65_ukOjDj-474" target="3t429b_SGeL65_ukOjDj-456">
          <mxGeometry relative="1" as="geometry" />
        </mxCell>
        <mxCell id="3t429b_SGeL65_ukOjDj-474" value="id" style="ellipse;whiteSpace=wrap;html=1;align=center;fontStyle=4;fillColor=#1ba1e2;strokeColor=#006EAF;fontColor=#ffffff;" vertex="1" parent="1">
          <mxGeometry x="-251" y="300" width="36" height="30" as="geometry" />
        </mxCell>
        <mxCell id="3t429b_SGeL65_ukOjDj-475" style="rounded=0;orthogonalLoop=1;jettySize=auto;html=1;entryX=0.75;entryY=0;entryDx=0;entryDy=0;endArrow=none;startFill=0;" edge="1" parent="1" source="3t429b_SGeL65_ukOjDj-476" target="3t429b_SGeL65_ukOjDj-461">
          <mxGeometry relative="1" as="geometry" />
        </mxCell>
        <mxCell id="3t429b_SGeL65_ukOjDj-476" value="id" style="ellipse;whiteSpace=wrap;html=1;align=center;fontStyle=4;fillColor=#1ba1e2;fontColor=#ffffff;strokeColor=#006EAF;" vertex="1" parent="1">
          <mxGeometry x="-290" y="425" width="70" height="30" as="geometry" />
        </mxCell>
        <mxCell id="3t429b_SGeL65_ukOjDj-477" style="rounded=0;orthogonalLoop=1;jettySize=auto;html=1;entryX=0;entryY=0.75;entryDx=0;entryDy=0;endArrow=none;startFill=0;" edge="1" parent="1" source="3t429b_SGeL65_ukOjDj-478" target="3t429b_SGeL65_ukOjDj-457">
          <mxGeometry relative="1" as="geometry" />
        </mxCell>
        <mxCell id="3t429b_SGeL65_ukOjDj-478" value="name" style="ellipse;whiteSpace=wrap;html=1;align=center;fillColor=#dae8fc;strokeColor=#6c8ebf;" vertex="1" parent="1">
          <mxGeometry x="-720" y="465" width="70" height="30" as="geometry" />
        </mxCell>
        <mxCell id="3t429b_SGeL65_ukOjDj-479" style="rounded=0;orthogonalLoop=1;jettySize=auto;html=1;exitX=0.5;exitY=1;exitDx=0;exitDy=0;entryX=0.25;entryY=0;entryDx=0;entryDy=0;endArrow=none;startFill=0;" edge="1" parent="1" source="3t429b_SGeL65_ukOjDj-480" target="3t429b_SGeL65_ukOjDj-461">
          <mxGeometry relative="1" as="geometry" />
        </mxCell>
        <mxCell id="3t429b_SGeL65_ukOjDj-480" value="name" style="ellipse;whiteSpace=wrap;html=1;align=center;fillColor=#dae8fc;strokeColor=#6c8ebf;" vertex="1" parent="1">
          <mxGeometry x="-380" y="425" width="70" height="40" as="geometry" />
        </mxCell>
        <mxCell id="3t429b_SGeL65_ukOjDj-481" style="rounded=0;orthogonalLoop=1;jettySize=auto;html=1;entryX=0.25;entryY=0;entryDx=0;entryDy=0;endArrow=none;startFill=0;" edge="1" parent="1" source="3t429b_SGeL65_ukOjDj-482" target="3t429b_SGeL65_ukOjDj-456">
          <mxGeometry relative="1" as="geometry" />
        </mxCell>
        <mxCell id="3t429b_SGeL65_ukOjDj-482" value="name" style="ellipse;whiteSpace=wrap;html=1;align=center;fillColor=#dae8fc;strokeColor=#6c8ebf;" vertex="1" parent="1">
          <mxGeometry x="-395" y="315" width="55" height="20" as="geometry" />
        </mxCell>
        <mxCell id="3t429b_SGeL65_ukOjDj-483" style="rounded=0;orthogonalLoop=1;jettySize=auto;html=1;exitX=0.5;exitY=1;exitDx=0;exitDy=0;entryX=0.5;entryY=0;entryDx=0;entryDy=0;endArrow=none;startFill=0;" edge="1" parent="1" source="3t429b_SGeL65_ukOjDj-484" target="3t429b_SGeL65_ukOjDj-462">
          <mxGeometry relative="1" as="geometry" />
        </mxCell>
        <mxCell id="3t429b_SGeL65_ukOjDj-484" value="username" style="ellipse;whiteSpace=wrap;html=1;align=center;fillColor=#dae8fc;strokeColor=#6c8ebf;" vertex="1" parent="1">
          <mxGeometry x="-310" y="140" width="70" height="40" as="geometry" />
        </mxCell>
        <mxCell id="ezjH-i5-pDRoHfl9tepW-32" style="shape=connector;rounded=0;orthogonalLoop=1;jettySize=auto;html=1;exitX=0.5;exitY=1;exitDx=0;exitDy=0;entryX=0.25;entryY=0;entryDx=0;entryDy=0;strokeColor=default;align=center;verticalAlign=middle;fontFamily=Helvetica;fontSize=11;fontColor=default;labelBackgroundColor=default;startFill=0;endArrow=none;" edge="1" parent="1" source="3t429b_SGeL65_ukOjDj-486" target="3t429b_SGeL65_ukOjDj-462">
          <mxGeometry relative="1" as="geometry" />
        </mxCell>
        <mxCell id="3t429b_SGeL65_ukOjDj-486" value="password" style="ellipse;whiteSpace=wrap;html=1;align=center;fillColor=#dae8fc;strokeColor=#6c8ebf;" vertex="1" parent="1">
          <mxGeometry x="-360" y="100" width="70" height="40" as="geometry" />
        </mxCell>
        <mxCell id="3t429b_SGeL65_ukOjDj-487" style="edgeStyle=orthogonalEdgeStyle;rounded=0;orthogonalLoop=1;jettySize=auto;html=1;exitX=1;exitY=0.5;exitDx=0;exitDy=0;entryX=0;entryY=0.5;entryDx=0;entryDy=0;endArrow=none;startFill=0;" edge="1" parent="1" source="3t429b_SGeL65_ukOjDj-493" target="3t429b_SGeL65_ukOjDj-508">
          <mxGeometry relative="1" as="geometry" />
        </mxCell>
        <mxCell id="3t429b_SGeL65_ukOjDj-488" value="N" style="edgeLabel;html=1;align=center;verticalAlign=middle;resizable=0;points=[];" connectable="0" vertex="1" parent="3t429b_SGeL65_ukOjDj-487">
          <mxGeometry x="-0.4892" relative="1" as="geometry">
            <mxPoint x="14" y="-1" as="offset" />
          </mxGeometry>
        </mxCell>
        <mxCell id="3t429b_SGeL65_ukOjDj-489" style="edgeStyle=orthogonalEdgeStyle;rounded=0;orthogonalLoop=1;jettySize=auto;html=1;exitX=0.25;exitY=1;exitDx=0;exitDy=0;entryX=0.5;entryY=0;entryDx=0;entryDy=0;endArrow=none;startFill=0;" edge="1" parent="1" source="3t429b_SGeL65_ukOjDj-493" target="3t429b_SGeL65_ukOjDj-556">
          <mxGeometry relative="1" as="geometry" />
        </mxCell>
        <mxCell id="3t429b_SGeL65_ukOjDj-490" value="1" style="edgeLabel;html=1;align=center;verticalAlign=middle;resizable=0;points=[];" connectable="0" vertex="1" parent="3t429b_SGeL65_ukOjDj-489">
          <mxGeometry x="-0.8853" relative="1" as="geometry">
            <mxPoint x="-2" y="17" as="offset" />
          </mxGeometry>
        </mxCell>
        <mxCell id="3t429b_SGeL65_ukOjDj-491" style="edgeStyle=orthogonalEdgeStyle;rounded=0;orthogonalLoop=1;jettySize=auto;html=1;exitX=0.5;exitY=1;exitDx=0;exitDy=0;entryX=0;entryY=0.5;entryDx=0;entryDy=0;endArrow=none;startFill=0;" edge="1" parent="1" source="3t429b_SGeL65_ukOjDj-493" target="3t429b_SGeL65_ukOjDj-558">
          <mxGeometry relative="1" as="geometry" />
        </mxCell>
        <mxCell id="3t429b_SGeL65_ukOjDj-492" value="1" style="edgeLabel;html=1;align=center;verticalAlign=middle;resizable=0;points=[];" connectable="0" vertex="1" parent="3t429b_SGeL65_ukOjDj-491">
          <mxGeometry x="-0.9241" y="-1" relative="1" as="geometry">
            <mxPoint x="1" y="9" as="offset" />
          </mxGeometry>
        </mxCell>
        <mxCell id="3t429b_SGeL65_ukOjDj-493" value="Driver" style="whiteSpace=wrap;html=1;align=center;fillColor=#fff2cc;strokeColor=#d6b656;" vertex="1" parent="1">
          <mxGeometry x="145" y="680" width="100" height="40" as="geometry" />
        </mxCell>
        <mxCell id="3t429b_SGeL65_ukOjDj-494" style="edgeStyle=orthogonalEdgeStyle;rounded=0;orthogonalLoop=1;jettySize=auto;html=1;exitX=1;exitY=0.5;exitDx=0;exitDy=0;entryX=0;entryY=0.5;entryDx=0;entryDy=0;endArrow=none;startFill=0;" edge="1" parent="1" source="3t429b_SGeL65_ukOjDj-498" target="3t429b_SGeL65_ukOjDj-533">
          <mxGeometry relative="1" as="geometry" />
        </mxCell>
        <mxCell id="ezjH-i5-pDRoHfl9tepW-21" value="N" style="edgeLabel;html=1;align=center;verticalAlign=middle;resizable=0;points=[];fontFamily=Helvetica;fontSize=11;fontColor=default;labelBackgroundColor=default;" connectable="0" vertex="1" parent="3t429b_SGeL65_ukOjDj-494">
          <mxGeometry relative="1" as="geometry">
            <mxPoint as="offset" />
          </mxGeometry>
        </mxCell>
        <mxCell id="3t429b_SGeL65_ukOjDj-496" style="edgeStyle=orthogonalEdgeStyle;rounded=0;orthogonalLoop=1;jettySize=auto;html=1;exitX=0.5;exitY=1;exitDx=0;exitDy=0;entryX=0.5;entryY=0;entryDx=0;entryDy=0;endArrow=none;startFill=0;" edge="1" parent="1" source="3t429b_SGeL65_ukOjDj-498" target="3t429b_SGeL65_ukOjDj-553">
          <mxGeometry relative="1" as="geometry" />
        </mxCell>
        <mxCell id="3t429b_SGeL65_ukOjDj-497" value="N" style="edgeLabel;html=1;align=center;verticalAlign=middle;resizable=0;points=[];" connectable="0" vertex="1" parent="3t429b_SGeL65_ukOjDj-496">
          <mxGeometry x="-0.8727" y="2" relative="1" as="geometry">
            <mxPoint x="-2" y="86" as="offset" />
          </mxGeometry>
        </mxCell>
        <mxCell id="3t429b_SGeL65_ukOjDj-498" value="Passenger" style="whiteSpace=wrap;html=1;align=center;fillColor=#fff2cc;strokeColor=#d6b656;" vertex="1" parent="1">
          <mxGeometry x="-190" y="680" width="100" height="40" as="geometry" />
        </mxCell>
        <mxCell id="3t429b_SGeL65_ukOjDj-499" value="Vehicle" style="whiteSpace=wrap;html=1;align=center;fillColor=#fff2cc;strokeColor=#d6b656;" vertex="1" parent="1">
          <mxGeometry x="620.25" y="680" width="100" height="40" as="geometry" />
        </mxCell>
        <mxCell id="3t429b_SGeL65_ukOjDj-500" style="edgeStyle=orthogonalEdgeStyle;rounded=0;orthogonalLoop=1;jettySize=auto;html=1;entryX=0.5;entryY=0;entryDx=0;entryDy=0;exitX=0.5;exitY=1;exitDx=0;exitDy=0;endArrow=none;startFill=0;" edge="1" parent="1" source="3t429b_SGeL65_ukOjDj-505" target="3t429b_SGeL65_ukOjDj-498">
          <mxGeometry relative="1" as="geometry">
            <mxPoint x="20" y="550" as="sourcePoint" />
            <Array as="points">
              <mxPoint x="10" y="560" />
              <mxPoint x="-140" y="560" />
              <mxPoint x="-140" y="640" />
            </Array>
          </mxGeometry>
        </mxCell>
        <mxCell id="3t429b_SGeL65_ukOjDj-501" value="1" style="edgeLabel;html=1;align=center;verticalAlign=middle;resizable=0;points=[];" connectable="0" vertex="1" parent="3t429b_SGeL65_ukOjDj-500">
          <mxGeometry x="0.8639" y="-2" relative="1" as="geometry">
            <mxPoint as="offset" />
          </mxGeometry>
        </mxCell>
        <mxCell id="3t429b_SGeL65_ukOjDj-502" style="edgeStyle=orthogonalEdgeStyle;rounded=0;orthogonalLoop=1;jettySize=auto;html=1;exitX=0.5;exitY=1;exitDx=0;exitDy=0;entryX=0.5;entryY=0;entryDx=0;entryDy=0;endArrow=none;startFill=0;" edge="1" parent="1" source="3t429b_SGeL65_ukOjDj-504" target="3t429b_SGeL65_ukOjDj-493">
          <mxGeometry relative="1" as="geometry">
            <Array as="points">
              <mxPoint x="65" y="650" />
              <mxPoint x="195" y="650" />
            </Array>
          </mxGeometry>
        </mxCell>
        <mxCell id="3t429b_SGeL65_ukOjDj-503" value="N" style="edgeLabel;html=1;align=center;verticalAlign=middle;resizable=0;points=[];" connectable="0" vertex="1" parent="3t429b_SGeL65_ukOjDj-502">
          <mxGeometry x="0.8246" y="-1" relative="1" as="geometry">
            <mxPoint x="-70" y="-7" as="offset" />
          </mxGeometry>
        </mxCell>
        <mxCell id="nYZou5PLqQobL_fHpxvr-3" value="1" style="edgeLabel;html=1;align=center;verticalAlign=middle;resizable=0;points=[];" connectable="0" vertex="1" parent="3t429b_SGeL65_ukOjDj-502">
          <mxGeometry x="0.2304" y="-1" relative="1" as="geometry">
            <mxPoint as="offset" />
          </mxGeometry>
        </mxCell>
        <mxCell id="3t429b_SGeL65_ukOjDj-504" value="Is" style="shape=rhombus;perimeter=rhombusPerimeter;whiteSpace=wrap;html=1;align=center;fillColor=#f8cecc;strokeColor=#b85450;" vertex="1" parent="1">
          <mxGeometry x="45" y="510" width="40" height="40" as="geometry" />
        </mxCell>
        <mxCell id="3t429b_SGeL65_ukOjDj-505" value="Is" style="shape=rhombus;perimeter=rhombusPerimeter;whiteSpace=wrap;html=1;align=center;fillColor=#f8cecc;strokeColor=#b85450;" vertex="1" parent="1">
          <mxGeometry x="-10" y="510" width="40" height="40" as="geometry" />
        </mxCell>
        <mxCell id="3t429b_SGeL65_ukOjDj-506" style="edgeStyle=orthogonalEdgeStyle;rounded=0;orthogonalLoop=1;jettySize=auto;html=1;exitX=1;exitY=0.5;exitDx=0;exitDy=0;entryX=0;entryY=0.5;entryDx=0;entryDy=0;endArrow=none;startFill=0;" edge="1" parent="1" source="3t429b_SGeL65_ukOjDj-508" target="3t429b_SGeL65_ukOjDj-499">
          <mxGeometry relative="1" as="geometry">
            <mxPoint x="555.25" y="706" as="sourcePoint" />
          </mxGeometry>
        </mxCell>
        <mxCell id="3t429b_SGeL65_ukOjDj-507" value="N" style="edgeLabel;html=1;align=center;verticalAlign=middle;resizable=0;points=[];" connectable="0" vertex="1" parent="3t429b_SGeL65_ukOjDj-506">
          <mxGeometry x="0.5678" y="-2" relative="1" as="geometry">
            <mxPoint x="-21" y="-2" as="offset" />
          </mxGeometry>
        </mxCell>
        <mxCell id="3t429b_SGeL65_ukOjDj-508" value="Drive" style="shape=rhombus;perimeter=rhombusPerimeter;whiteSpace=wrap;html=1;align=center;fillColor=#d5e8d4;strokeColor=#82b366;" vertex="1" parent="1">
          <mxGeometry x="402" y="675" width="50" height="50" as="geometry" />
        </mxCell>
        <mxCell id="3t429b_SGeL65_ukOjDj-509" style="rounded=0;orthogonalLoop=1;jettySize=auto;html=1;entryX=1;entryY=0.25;entryDx=0;entryDy=0;endArrow=none;startFill=0;" edge="1" parent="1" source="3t429b_SGeL65_ukOjDj-510" target="3t429b_SGeL65_ukOjDj-499">
          <mxGeometry relative="1" as="geometry" />
        </mxCell>
        <mxCell id="3t429b_SGeL65_ukOjDj-510" value="id" style="ellipse;whiteSpace=wrap;html=1;align=center;fontStyle=4;fillColor=#1ba1e2;fontColor=#ffffff;strokeColor=#006EAF;" vertex="1" parent="1">
          <mxGeometry x="755.25" y="616" width="50" height="30" as="geometry" />
        </mxCell>
        <mxCell id="3t429b_SGeL65_ukOjDj-511" style="rounded=0;orthogonalLoop=1;jettySize=auto;html=1;entryX=1;entryY=0.5;entryDx=0;entryDy=0;endArrow=none;startFill=0;exitX=0;exitY=0.5;exitDx=0;exitDy=0;edgeStyle=orthogonalEdgeStyle;" edge="1" parent="1" source="VXwOsZXAh-60YvnX4HJ6-16" target="3t429b_SGeL65_ukOjDj-499">
          <mxGeometry relative="1" as="geometry">
            <mxPoint x="771.6033509384943" y="684.5334775320546" as="sourcePoint" />
          </mxGeometry>
        </mxCell>
        <mxCell id="VXwOsZXAh-60YvnX4HJ6-19" value="N" style="edgeLabel;html=1;align=center;verticalAlign=middle;resizable=0;points=[];fontSize=12;" vertex="1" connectable="0" parent="3t429b_SGeL65_ukOjDj-511">
          <mxGeometry x="0.5963" relative="1" as="geometry">
            <mxPoint as="offset" />
          </mxGeometry>
        </mxCell>
        <mxCell id="3t429b_SGeL65_ukOjDj-513" style="rounded=0;orthogonalLoop=1;jettySize=auto;html=1;entryX=1;entryY=0.75;entryDx=0;entryDy=0;endArrow=none;startFill=0;" edge="1" parent="1" source="3t429b_SGeL65_ukOjDj-514" target="3t429b_SGeL65_ukOjDj-499">
          <mxGeometry relative="1" as="geometry" />
        </mxCell>
        <mxCell id="3t429b_SGeL65_ukOjDj-514" value="plate" style="ellipse;whiteSpace=wrap;html=1;align=center;fillColor=#dae8fc;strokeColor=#6c8ebf;" vertex="1" parent="1">
          <mxGeometry x="767.25" y="736" width="65" height="33.75" as="geometry" />
        </mxCell>
        <mxCell id="3t429b_SGeL65_ukOjDj-515" style="edgeStyle=orthogonalEdgeStyle;rounded=0;orthogonalLoop=1;jettySize=auto;html=1;exitX=0.5;exitY=1;exitDx=0;exitDy=0;entryX=0.5;entryY=0;entryDx=0;entryDy=0;fontSize=12;startSize=8;endSize=8;endArrow=none;startFill=0;" edge="1" parent="1" source="3t429b_SGeL65_ukOjDj-461" target="3t429b_SGeL65_ukOjDj-522">
          <mxGeometry relative="1" as="geometry">
            <mxPoint x="145" y="-242" as="sourcePoint" />
          </mxGeometry>
        </mxCell>
        <mxCell id="3t429b_SGeL65_ukOjDj-516" value="N" style="edgeLabel;html=1;align=center;verticalAlign=middle;resizable=0;points=[];" connectable="0" vertex="1" parent="3t429b_SGeL65_ukOjDj-515">
          <mxGeometry x="-0.6723" y="-1" relative="1" as="geometry">
            <mxPoint x="1" y="21" as="offset" />
          </mxGeometry>
        </mxCell>
        <mxCell id="3t429b_SGeL65_ukOjDj-517" style="edgeStyle=orthogonalEdgeStyle;rounded=0;orthogonalLoop=1;jettySize=auto;html=1;exitX=0.5;exitY=1;exitDx=0;exitDy=0;entryX=0.5;entryY=0;entryDx=0;entryDy=0;endArrow=none;startFill=0;" edge="1" parent="1" source="3t429b_SGeL65_ukOjDj-519" target="3t429b_SGeL65_ukOjDj-559">
          <mxGeometry relative="1" as="geometry" />
        </mxCell>
        <mxCell id="3t429b_SGeL65_ukOjDj-518" value="N" style="edgeLabel;html=1;align=center;verticalAlign=middle;resizable=0;points=[];" connectable="0" vertex="1" parent="3t429b_SGeL65_ukOjDj-517">
          <mxGeometry x="-0.7197" y="-1" relative="1" as="geometry">
            <mxPoint x="1" y="33" as="offset" />
          </mxGeometry>
        </mxCell>
        <mxCell id="3t429b_SGeL65_ukOjDj-519" value="Admin" style="whiteSpace=wrap;html=1;align=center;fillColor=#fff2cc;strokeColor=#d6b656;" vertex="1" parent="1">
          <mxGeometry x="-360" y="730" width="100" height="40" as="geometry" />
        </mxCell>
        <mxCell id="3t429b_SGeL65_ukOjDj-520" style="edgeStyle=orthogonalEdgeStyle;rounded=0;orthogonalLoop=1;jettySize=auto;html=1;entryX=0.5;entryY=0;entryDx=0;entryDy=0;fontSize=12;startSize=8;endSize=8;endArrow=none;startFill=0;" edge="1" parent="1" source="3t429b_SGeL65_ukOjDj-522" target="3t429b_SGeL65_ukOjDj-519">
          <mxGeometry relative="1" as="geometry" />
        </mxCell>
        <mxCell id="3t429b_SGeL65_ukOjDj-521" value="N" style="edgeLabel;html=1;align=center;verticalAlign=middle;resizable=0;points=[];" connectable="0" vertex="1" parent="3t429b_SGeL65_ukOjDj-520">
          <mxGeometry x="0.6836" y="1" relative="1" as="geometry">
            <mxPoint x="-1" y="-29" as="offset" />
          </mxGeometry>
        </mxCell>
        <mxCell id="3t429b_SGeL65_ukOjDj-522" value="Manage" style="shape=rhombus;perimeter=rhombusPerimeter;whiteSpace=wrap;html=1;align=center;fillColor=#d5e8d4;strokeColor=#82b366;" vertex="1" parent="1">
          <mxGeometry x="-340" y="610" width="60" height="50" as="geometry" />
        </mxCell>
        <mxCell id="3t429b_SGeL65_ukOjDj-523" style="rounded=0;orthogonalLoop=1;jettySize=auto;html=1;entryX=0;entryY=0.25;entryDx=0;entryDy=0;endArrow=none;startFill=0;" edge="1" parent="1" source="3t429b_SGeL65_ukOjDj-524" target="3t429b_SGeL65_ukOjDj-519">
          <mxGeometry relative="1" as="geometry" />
        </mxCell>
        <mxCell id="3t429b_SGeL65_ukOjDj-524" value="id" style="ellipse;whiteSpace=wrap;html=1;align=center;fontStyle=4;fillColor=#1ba1e2;fontColor=#ffffff;strokeColor=#006EAF;" vertex="1" parent="1">
          <mxGeometry x="-500" y="690" width="70" height="30" as="geometry" />
        </mxCell>
        <mxCell id="3t429b_SGeL65_ukOjDj-525" style="rounded=0;orthogonalLoop=1;jettySize=auto;html=1;entryX=0;entryY=0.5;entryDx=0;entryDy=0;endArrow=none;startFill=0;" edge="1" parent="1" source="3t429b_SGeL65_ukOjDj-526" target="3t429b_SGeL65_ukOjDj-519">
          <mxGeometry relative="1" as="geometry" />
        </mxCell>
        <mxCell id="3t429b_SGeL65_ukOjDj-526" value="username" style="ellipse;whiteSpace=wrap;html=1;align=center;fillColor=#dae8fc;strokeColor=#6c8ebf;" vertex="1" parent="1">
          <mxGeometry x="-500" y="730" width="70" height="40" as="geometry" />
        </mxCell>
        <mxCell id="3t429b_SGeL65_ukOjDj-527" style="rounded=0;orthogonalLoop=1;jettySize=auto;html=1;entryX=0;entryY=0.75;entryDx=0;entryDy=0;endArrow=none;startFill=0;" edge="1" parent="1" source="3t429b_SGeL65_ukOjDj-528" target="3t429b_SGeL65_ukOjDj-519">
          <mxGeometry relative="1" as="geometry" />
        </mxCell>
        <mxCell id="3t429b_SGeL65_ukOjDj-528" value="password" style="ellipse;whiteSpace=wrap;html=1;align=center;fillColor=#dae8fc;strokeColor=#6c8ebf;" vertex="1" parent="1">
          <mxGeometry x="-500" y="780" width="70" height="40" as="geometry" />
        </mxCell>
        <mxCell id="3t429b_SGeL65_ukOjDj-529" style="edgeStyle=orthogonalEdgeStyle;rounded=0;orthogonalLoop=1;jettySize=auto;html=1;entryX=0;entryY=0.5;entryDx=0;entryDy=0;endArrow=none;startFill=0;" edge="1" parent="1" source="3t429b_SGeL65_ukOjDj-533" target="3t429b_SGeL65_ukOjDj-493">
          <mxGeometry relative="1" as="geometry" />
        </mxCell>
        <mxCell id="3t429b_SGeL65_ukOjDj-530" value="N" style="edgeLabel;html=1;align=center;verticalAlign=middle;resizable=0;points=[];" connectable="0" vertex="1" parent="3t429b_SGeL65_ukOjDj-529">
          <mxGeometry x="0.7232" y="-1" relative="1" as="geometry">
            <mxPoint x="-32" as="offset" />
          </mxGeometry>
        </mxCell>
        <mxCell id="3t429b_SGeL65_ukOjDj-531" style="edgeStyle=orthogonalEdgeStyle;rounded=0;orthogonalLoop=1;jettySize=auto;html=1;exitX=0.5;exitY=1;exitDx=0;exitDy=0;entryX=0.5;entryY=0;entryDx=0;entryDy=0;endArrow=none;startFill=0;" edge="1" parent="1" source="3t429b_SGeL65_ukOjDj-533" target="3t429b_SGeL65_ukOjDj-536">
          <mxGeometry relative="1" as="geometry" />
        </mxCell>
        <mxCell id="3t429b_SGeL65_ukOjDj-532" value="N" style="edgeLabel;html=1;align=center;verticalAlign=middle;resizable=0;points=[];" connectable="0" vertex="1" parent="3t429b_SGeL65_ukOjDj-531">
          <mxGeometry x="-0.7012" relative="1" as="geometry">
            <mxPoint y="11" as="offset" />
          </mxGeometry>
        </mxCell>
        <mxCell id="3t429b_SGeL65_ukOjDj-533" value="Charge" style="shape=rhombus;perimeter=rhombusPerimeter;whiteSpace=wrap;html=1;align=center;fillColor=#d5e8d4;strokeColor=#82b366;" vertex="1" parent="1">
          <mxGeometry x="7" y="680" width="50" height="40" as="geometry" />
        </mxCell>
        <mxCell id="3t429b_SGeL65_ukOjDj-534" style="edgeStyle=orthogonalEdgeStyle;rounded=0;orthogonalLoop=1;jettySize=auto;html=1;entryX=0.5;entryY=0;entryDx=0;entryDy=0;endArrow=none;startFill=0;" edge="1" parent="1" source="3t429b_SGeL65_ukOjDj-535" target="3t429b_SGeL65_ukOjDj-533">
          <mxGeometry relative="1" as="geometry" />
        </mxCell>
        <mxCell id="3t429b_SGeL65_ukOjDj-535" value="amount" style="ellipse;whiteSpace=wrap;html=1;align=center;fillColor=#dae8fc;strokeColor=#6c8ebf;" vertex="1" parent="1">
          <mxGeometry x="-15" y="630" width="60" height="30" as="geometry" />
        </mxCell>
        <mxCell id="3t429b_SGeL65_ukOjDj-536" value="Has" style="shape=rhombus;perimeter=rhombusPerimeter;whiteSpace=wrap;html=1;align=center;fillColor=#d5e8d4;strokeColor=#82b366;" vertex="1" parent="1">
          <mxGeometry x="10" y="760" width="40" height="40" as="geometry" />
        </mxCell>
        <mxCell id="3t429b_SGeL65_ukOjDj-537" style="edgeStyle=orthogonalEdgeStyle;rounded=0;orthogonalLoop=1;jettySize=auto;html=1;entryX=0.5;entryY=1;entryDx=0;entryDy=0;endArrow=none;startFill=0;" edge="1" parent="1" source="3t429b_SGeL65_ukOjDj-539" target="3t429b_SGeL65_ukOjDj-536">
          <mxGeometry relative="1" as="geometry" />
        </mxCell>
        <mxCell id="3t429b_SGeL65_ukOjDj-538" value="N" style="edgeLabel;html=1;align=center;verticalAlign=middle;resizable=0;points=[];" connectable="0" vertex="1" parent="3t429b_SGeL65_ukOjDj-537">
          <mxGeometry x="-0.4961" relative="1" as="geometry">
            <mxPoint y="-4" as="offset" />
          </mxGeometry>
        </mxCell>
        <mxCell id="3t429b_SGeL65_ukOjDj-539" value="Payment_method" style="whiteSpace=wrap;html=1;align=center;fillColor=#fff2cc;strokeColor=#d6b656;" vertex="1" parent="1">
          <mxGeometry x="-20" y="835" width="100" height="40" as="geometry" />
        </mxCell>
        <mxCell id="3t429b_SGeL65_ukOjDj-540" style="rounded=0;orthogonalLoop=1;jettySize=auto;html=1;exitX=0.5;exitY=0;exitDx=0;exitDy=0;entryX=0.25;entryY=1;entryDx=0;entryDy=0;endArrow=none;startFill=0;" edge="1" parent="1" source="3t429b_SGeL65_ukOjDj-541" target="3t429b_SGeL65_ukOjDj-539">
          <mxGeometry relative="1" as="geometry" />
        </mxCell>
        <mxCell id="3t429b_SGeL65_ukOjDj-541" value="id" style="ellipse;whiteSpace=wrap;html=1;align=center;fontStyle=4;fillColor=#1ba1e2;fontColor=#ffffff;strokeColor=#006EAF;" vertex="1" parent="1">
          <mxGeometry x="-40" y="900" width="70" height="30" as="geometry" />
        </mxCell>
        <mxCell id="3t429b_SGeL65_ukOjDj-542" style="rounded=0;orthogonalLoop=1;jettySize=auto;html=1;entryX=0.75;entryY=1;entryDx=0;entryDy=0;endArrow=none;startFill=0;" edge="1" parent="1" source="3t429b_SGeL65_ukOjDj-543" target="3t429b_SGeL65_ukOjDj-539">
          <mxGeometry relative="1" as="geometry" />
        </mxCell>
        <mxCell id="3t429b_SGeL65_ukOjDj-543" value="name" style="ellipse;whiteSpace=wrap;html=1;align=center;fillColor=#dae8fc;strokeColor=#6c8ebf;" vertex="1" parent="1">
          <mxGeometry x="35" y="900" width="70" height="30" as="geometry" />
        </mxCell>
        <mxCell id="3t429b_SGeL65_ukOjDj-544" style="edgeStyle=orthogonalEdgeStyle;rounded=0;orthogonalLoop=1;jettySize=auto;html=1;exitX=0;exitY=0.75;exitDx=0;exitDy=0;entryX=0.5;entryY=1;entryDx=0;entryDy=0;endArrow=none;startFill=0;" edge="1" parent="1" source="3t429b_SGeL65_ukOjDj-550" target="3t429b_SGeL65_ukOjDj-559">
          <mxGeometry relative="1" as="geometry" />
        </mxCell>
        <mxCell id="3t429b_SGeL65_ukOjDj-545" value="N" style="edgeLabel;html=1;align=center;verticalAlign=middle;resizable=0;points=[];" connectable="0" vertex="1" parent="3t429b_SGeL65_ukOjDj-544">
          <mxGeometry x="-0.8936" y="2" relative="1" as="geometry">
            <mxPoint x="-140" y="-2" as="offset" />
          </mxGeometry>
        </mxCell>
        <mxCell id="3t429b_SGeL65_ukOjDj-546" style="edgeStyle=orthogonalEdgeStyle;rounded=0;orthogonalLoop=1;jettySize=auto;html=1;exitX=1;exitY=0.75;exitDx=0;exitDy=0;entryX=0;entryY=0.5;entryDx=0;entryDy=0;endArrow=none;startFill=0;" edge="1" parent="1" source="3t429b_SGeL65_ukOjDj-550" target="3t429b_SGeL65_ukOjDj-567">
          <mxGeometry relative="1" as="geometry" />
        </mxCell>
        <mxCell id="3t429b_SGeL65_ukOjDj-547" value="N" style="edgeLabel;html=1;align=center;verticalAlign=middle;resizable=0;points=[];" connectable="0" vertex="1" parent="3t429b_SGeL65_ukOjDj-546">
          <mxGeometry x="-0.6138" y="-1" relative="1" as="geometry">
            <mxPoint x="29" y="-1" as="offset" />
          </mxGeometry>
        </mxCell>
        <mxCell id="3t429b_SGeL65_ukOjDj-548" style="edgeStyle=orthogonalEdgeStyle;rounded=0;orthogonalLoop=1;jettySize=auto;html=1;exitX=0.25;exitY=1;exitDx=0;exitDy=0;entryX=0;entryY=0.5;entryDx=0;entryDy=0;endArrow=none;startFill=0;" edge="1" parent="1" source="3t429b_SGeL65_ukOjDj-498" target="3t429b_SGeL65_ukOjDj-617">
          <mxGeometry relative="1" as="geometry" />
        </mxCell>
        <mxCell id="3t429b_SGeL65_ukOjDj-549" value="N" style="edgeLabel;html=1;align=center;verticalAlign=middle;resizable=0;points=[];" connectable="0" vertex="1" parent="3t429b_SGeL65_ukOjDj-548">
          <mxGeometry x="-0.6933" y="-1" relative="1" as="geometry">
            <mxPoint x="2" y="-72" as="offset" />
          </mxGeometry>
        </mxCell>
        <mxCell id="VXwOsZXAh-60YvnX4HJ6-3" style="edgeStyle=orthogonalEdgeStyle;rounded=0;orthogonalLoop=1;jettySize=auto;html=1;exitX=0.75;exitY=1;exitDx=0;exitDy=0;entryX=0.5;entryY=0;entryDx=0;entryDy=0;fontSize=12;startSize=8;endSize=8;endArrow=none;startFill=0;" edge="1" parent="1" source="3t429b_SGeL65_ukOjDj-550" target="VXwOsZXAh-60YvnX4HJ6-2">
          <mxGeometry relative="1" as="geometry" />
        </mxCell>
        <mxCell id="VXwOsZXAh-60YvnX4HJ6-6" value="N" style="edgeLabel;html=1;align=center;verticalAlign=middle;resizable=0;points=[];fontSize=12;" vertex="1" connectable="0" parent="VXwOsZXAh-60YvnX4HJ6-3">
          <mxGeometry x="-0.5757" relative="1" as="geometry">
            <mxPoint as="offset" />
          </mxGeometry>
        </mxCell>
        <mxCell id="3t429b_SGeL65_ukOjDj-550" value="Trip" style="whiteSpace=wrap;html=1;align=center;fillColor=#fff2cc;strokeColor=#d6b656;" vertex="1" parent="1">
          <mxGeometry x="-20" y="1000" width="100" height="40" as="geometry" />
        </mxCell>
        <mxCell id="3t429b_SGeL65_ukOjDj-551" style="edgeStyle=orthogonalEdgeStyle;rounded=0;orthogonalLoop=1;jettySize=auto;html=1;exitX=0.5;exitY=1;exitDx=0;exitDy=0;entryX=0;entryY=0.25;entryDx=0;entryDy=0;endArrow=none;startFill=0;" edge="1" parent="1" source="3t429b_SGeL65_ukOjDj-553" target="3t429b_SGeL65_ukOjDj-550">
          <mxGeometry relative="1" as="geometry" />
        </mxCell>
        <mxCell id="3t429b_SGeL65_ukOjDj-552" value="N" style="edgeLabel;html=1;align=center;verticalAlign=middle;resizable=0;points=[];" connectable="0" vertex="1" parent="3t429b_SGeL65_ukOjDj-551">
          <mxGeometry x="0.7683" relative="1" as="geometry">
            <mxPoint x="-52" as="offset" />
          </mxGeometry>
        </mxCell>
        <mxCell id="3t429b_SGeL65_ukOjDj-553" value="Has" style="shape=rhombus;perimeter=rhombusPerimeter;whiteSpace=wrap;html=1;align=center;fillColor=#d5e8d4;strokeColor=#82b366;" vertex="1" parent="1">
          <mxGeometry x="-160" y="881" width="40" height="40" as="geometry" />
        </mxCell>
        <mxCell id="3t429b_SGeL65_ukOjDj-554" style="edgeStyle=orthogonalEdgeStyle;rounded=0;orthogonalLoop=1;jettySize=auto;html=1;exitX=0.5;exitY=1;exitDx=0;exitDy=0;entryX=1;entryY=0.25;entryDx=0;entryDy=0;endArrow=none;startFill=0;" edge="1" parent="1" source="3t429b_SGeL65_ukOjDj-556" target="3t429b_SGeL65_ukOjDj-550">
          <mxGeometry relative="1" as="geometry" />
        </mxCell>
        <mxCell id="3t429b_SGeL65_ukOjDj-555" value="N" style="edgeLabel;html=1;align=center;verticalAlign=middle;resizable=0;points=[];" connectable="0" vertex="1" parent="3t429b_SGeL65_ukOjDj-554">
          <mxGeometry x="0.6575" relative="1" as="geometry">
            <mxPoint x="29" as="offset" />
          </mxGeometry>
        </mxCell>
        <mxCell id="3t429b_SGeL65_ukOjDj-556" value="Has" style="shape=rhombus;perimeter=rhombusPerimeter;whiteSpace=wrap;html=1;align=center;fillColor=#d5e8d4;strokeColor=#82b366;" vertex="1" parent="1">
          <mxGeometry x="150" y="940" width="40" height="40" as="geometry" />
        </mxCell>
        <mxCell id="3t429b_SGeL65_ukOjDj-557" style="edgeStyle=orthogonalEdgeStyle;rounded=0;orthogonalLoop=1;jettySize=auto;html=1;exitX=0.5;exitY=1;exitDx=0;exitDy=0;entryX=0.25;entryY=0;entryDx=0;entryDy=0;endArrow=none;startFill=0;" edge="1" parent="1" source="3t429b_SGeL65_ukOjDj-558" target="3t429b_SGeL65_ukOjDj-582">
          <mxGeometry relative="1" as="geometry" />
        </mxCell>
        <mxCell id="ezjH-i5-pDRoHfl9tepW-19" value="N" style="edgeLabel;html=1;align=center;verticalAlign=middle;resizable=0;points=[];fontFamily=Helvetica;fontSize=11;fontColor=default;labelBackgroundColor=default;" connectable="0" vertex="1" parent="3t429b_SGeL65_ukOjDj-557">
          <mxGeometry x="0.0276" y="2" relative="1" as="geometry">
            <mxPoint x="-3" as="offset" />
          </mxGeometry>
        </mxCell>
        <mxCell id="3t429b_SGeL65_ukOjDj-558" value="Do" style="shape=rhombus;perimeter=rhombusPerimeter;whiteSpace=wrap;html=1;align=center;fillColor=#d5e8d4;strokeColor=#82b366;" vertex="1" parent="1">
          <mxGeometry x="535" y="875" width="40" height="40" as="geometry" />
        </mxCell>
        <mxCell id="3t429b_SGeL65_ukOjDj-559" value="Consult" style="shape=rhombus;perimeter=rhombusPerimeter;whiteSpace=wrap;html=1;align=center;fillColor=#d5e8d4;strokeColor=#82b366;" vertex="1" parent="1">
          <mxGeometry x="-337.5" y="890" width="55" height="50" as="geometry" />
        </mxCell>
        <mxCell id="3t429b_SGeL65_ukOjDj-560" style="rounded=0;orthogonalLoop=1;jettySize=auto;html=1;entryX=0.25;entryY=1;entryDx=0;entryDy=0;exitX=1;exitY=0;exitDx=0;exitDy=0;endArrow=none;startFill=0;" edge="1" parent="1" source="3t429b_SGeL65_ukOjDj-561" target="3t429b_SGeL65_ukOjDj-550">
          <mxGeometry relative="1" as="geometry" />
        </mxCell>
        <mxCell id="3t429b_SGeL65_ukOjDj-561" value="id" style="ellipse;whiteSpace=wrap;html=1;align=center;fontStyle=4;fillColor=#1ba1e2;fontColor=#ffffff;strokeColor=#006EAF;" vertex="1" parent="1">
          <mxGeometry x="-100" y="1050" width="70" height="30" as="geometry" />
        </mxCell>
        <mxCell id="VXwOsZXAh-60YvnX4HJ6-9" value="" style="edgeStyle=none;curved=1;rounded=0;orthogonalLoop=1;jettySize=auto;html=1;fontSize=12;startSize=8;endSize=8;endArrow=none;startFill=0;" edge="1" parent="1" source="3t429b_SGeL65_ukOjDj-563" target="3t429b_SGeL65_ukOjDj-617">
          <mxGeometry relative="1" as="geometry" />
        </mxCell>
        <mxCell id="3t429b_SGeL65_ukOjDj-563" value="pick_&lt;span style=&quot;background-color: transparent; color: light-dark(rgb(0, 0, 0), rgb(255, 255, 255));&quot;&gt;up_time&lt;/span&gt;" style="ellipse;whiteSpace=wrap;html=1;align=center;fillColor=#dae8fc;strokeColor=#6c8ebf;" vertex="1" parent="1">
          <mxGeometry x="-102.5" y="1150" width="72.5" height="35" as="geometry" />
        </mxCell>
        <mxCell id="3t429b_SGeL65_ukOjDj-564" value="Status" style="whiteSpace=wrap;html=1;align=center;fillColor=#fff2cc;strokeColor=#d6b656;" vertex="1" parent="1">
          <mxGeometry x="290" y="1010" width="100" height="40" as="geometry" />
        </mxCell>
        <mxCell id="3t429b_SGeL65_ukOjDj-565" style="edgeStyle=orthogonalEdgeStyle;rounded=0;orthogonalLoop=1;jettySize=auto;html=1;exitX=1;exitY=0.5;exitDx=0;exitDy=0;entryX=0;entryY=0.5;entryDx=0;entryDy=0;endArrow=none;startFill=0;" edge="1" parent="1" source="3t429b_SGeL65_ukOjDj-567" target="3t429b_SGeL65_ukOjDj-564">
          <mxGeometry relative="1" as="geometry" />
        </mxCell>
        <mxCell id="3t429b_SGeL65_ukOjDj-566" value="N" style="edgeLabel;html=1;align=center;verticalAlign=middle;resizable=0;points=[];" connectable="0" vertex="1" parent="3t429b_SGeL65_ukOjDj-565">
          <mxGeometry x="0.4322" y="-1" relative="1" as="geometry">
            <mxPoint x="-3" y="-1" as="offset" />
          </mxGeometry>
        </mxCell>
        <mxCell id="3t429b_SGeL65_ukOjDj-567" value="Has" style="shape=rhombus;perimeter=rhombusPerimeter;whiteSpace=wrap;html=1;align=center;fillColor=#d5e8d4;strokeColor=#82b366;" vertex="1" parent="1">
          <mxGeometry x="190" y="1010" width="40" height="40" as="geometry" />
        </mxCell>
        <mxCell id="3t429b_SGeL65_ukOjDj-568" value="id" style="ellipse;whiteSpace=wrap;html=1;align=center;fontStyle=4;fillColor=#1ba1e2;fontColor=#ffffff;strokeColor=#006EAF;" vertex="1" parent="1">
          <mxGeometry x="410" y="1040" width="70" height="30" as="geometry" />
        </mxCell>
        <mxCell id="3t429b_SGeL65_ukOjDj-569" style="rounded=0;orthogonalLoop=1;jettySize=auto;html=1;entryX=1;entryY=0.25;entryDx=0;entryDy=0;endArrow=none;startFill=0;" edge="1" parent="1" source="3t429b_SGeL65_ukOjDj-570" target="3t429b_SGeL65_ukOjDj-564">
          <mxGeometry relative="1" as="geometry" />
        </mxCell>
        <mxCell id="3t429b_SGeL65_ukOjDj-570" value="name" style="ellipse;whiteSpace=wrap;html=1;align=center;fillColor=#dae8fc;strokeColor=#6c8ebf;" vertex="1" parent="1">
          <mxGeometry x="410" y="990" width="70" height="30" as="geometry" />
        </mxCell>
        <mxCell id="3t429b_SGeL65_ukOjDj-571" style="rounded=0;orthogonalLoop=1;jettySize=auto;html=1;entryX=0.995;entryY=0.652;entryDx=0;entryDy=0;entryPerimeter=0;endArrow=none;startFill=0;" edge="1" parent="1" source="3t429b_SGeL65_ukOjDj-568" target="3t429b_SGeL65_ukOjDj-564">
          <mxGeometry relative="1" as="geometry" />
        </mxCell>
        <mxCell id="3t429b_SGeL65_ukOjDj-572" value="end_time" style="ellipse;whiteSpace=wrap;html=1;align=center;fillColor=#dae8fc;strokeColor=#6c8ebf;" vertex="1" parent="1">
          <mxGeometry x="684" y="949" width="75" height="30" as="geometry" />
        </mxCell>
        <mxCell id="3t429b_SGeL65_ukOjDj-573" style="shape=connector;rounded=0;orthogonalLoop=1;jettySize=auto;html=1;exitX=1;exitY=0.25;exitDx=0;exitDy=0;entryX=0;entryY=1;entryDx=0;entryDy=0;strokeColor=default;align=center;verticalAlign=middle;fontFamily=Helvetica;fontSize=11;fontColor=default;labelBackgroundColor=default;startFill=0;endArrow=none;" edge="1" parent="1" source="3t429b_SGeL65_ukOjDj-582" target="3t429b_SGeL65_ukOjDj-572">
          <mxGeometry relative="1" as="geometry">
            <mxPoint x="610.7499999999995" y="1049.5" as="sourcePoint" />
            <mxPoint x="739.2300000000005" y="1100" as="targetPoint" />
          </mxGeometry>
        </mxCell>
        <mxCell id="3t429b_SGeL65_ukOjDj-574" style="edgeStyle=orthogonalEdgeStyle;rounded=0;orthogonalLoop=1;jettySize=auto;html=1;entryX=0.5;entryY=0;entryDx=0;entryDy=0;endArrow=none;startFill=0;exitX=0.25;exitY=1;exitDx=0;exitDy=0;" edge="1" parent="1" source="3t429b_SGeL65_ukOjDj-582" target="3t429b_SGeL65_ukOjDj-598">
          <mxGeometry relative="1" as="geometry">
            <Array as="points">
              <mxPoint x="555" y="1120" />
              <mxPoint x="555" y="1120" />
            </Array>
            <mxPoint x="520" y="1100" as="sourcePoint" />
          </mxGeometry>
        </mxCell>
        <mxCell id="3t429b_SGeL65_ukOjDj-575" value="1" style="edgeLabel;html=1;align=center;verticalAlign=middle;resizable=0;points=[];" connectable="0" vertex="1" parent="3t429b_SGeL65_ukOjDj-574">
          <mxGeometry x="-0.5417" y="1" relative="1" as="geometry">
            <mxPoint x="-1" y="13" as="offset" />
          </mxGeometry>
        </mxCell>
        <mxCell id="3t429b_SGeL65_ukOjDj-576" style="edgeStyle=orthogonalEdgeStyle;rounded=0;orthogonalLoop=1;jettySize=auto;html=1;exitX=0.5;exitY=1;exitDx=0;exitDy=0;entryX=0.5;entryY=0;entryDx=0;entryDy=0;endArrow=none;startFill=0;" edge="1" parent="1" source="3t429b_SGeL65_ukOjDj-582" target="3t429b_SGeL65_ukOjDj-601">
          <mxGeometry relative="1" as="geometry" />
        </mxCell>
        <mxCell id="3t429b_SGeL65_ukOjDj-577" value="1" style="edgeLabel;html=1;align=center;verticalAlign=middle;resizable=0;points=[];" connectable="0" vertex="1" parent="3t429b_SGeL65_ukOjDj-576">
          <mxGeometry x="-0.8613" y="2" relative="1" as="geometry">
            <mxPoint x="-2" y="57" as="offset" />
          </mxGeometry>
        </mxCell>
        <mxCell id="3t429b_SGeL65_ukOjDj-578" style="edgeStyle=orthogonalEdgeStyle;rounded=0;orthogonalLoop=1;jettySize=auto;html=1;exitX=0.75;exitY=1;exitDx=0;exitDy=0;entryX=0.5;entryY=0;entryDx=0;entryDy=0;endArrow=none;startFill=0;" edge="1" parent="1" source="3t429b_SGeL65_ukOjDj-582" target="3t429b_SGeL65_ukOjDj-604">
          <mxGeometry relative="1" as="geometry" />
        </mxCell>
        <mxCell id="3t429b_SGeL65_ukOjDj-579" value="1" style="edgeLabel;html=1;align=center;verticalAlign=middle;resizable=0;points=[];" connectable="0" vertex="1" parent="3t429b_SGeL65_ukOjDj-578">
          <mxGeometry x="-0.8838" y="1" relative="1" as="geometry">
            <mxPoint x="-1" y="109" as="offset" />
          </mxGeometry>
        </mxCell>
        <mxCell id="3t429b_SGeL65_ukOjDj-580" style="edgeStyle=orthogonalEdgeStyle;rounded=0;orthogonalLoop=1;jettySize=auto;html=1;exitX=0;exitY=0.75;exitDx=0;exitDy=0;entryX=1;entryY=0.5;entryDx=0;entryDy=0;endArrow=none;startFill=0;" edge="1" parent="1" source="3t429b_SGeL65_ukOjDj-582" target="3t429b_SGeL65_ukOjDj-616">
          <mxGeometry relative="1" as="geometry">
            <Array as="points">
              <mxPoint x="230" y="1085" />
            </Array>
          </mxGeometry>
        </mxCell>
        <mxCell id="3t429b_SGeL65_ukOjDj-581" value="1" style="edgeLabel;html=1;align=center;verticalAlign=middle;resizable=0;points=[];" connectable="0" vertex="1" parent="3t429b_SGeL65_ukOjDj-580">
          <mxGeometry x="-0.9014" y="-1" relative="1" as="geometry">
            <mxPoint x="-120" as="offset" />
          </mxGeometry>
        </mxCell>
        <mxCell id="3t429b_SGeL65_ukOjDj-582" value="Route" style="whiteSpace=wrap;html=1;align=center;fillColor=#fff2cc;strokeColor=#d6b656;" vertex="1" parent="1">
          <mxGeometry x="530" y="1055" width="100" height="40" as="geometry" />
        </mxCell>
        <mxCell id="ezjH-i5-pDRoHfl9tepW-171" style="shape=connector;rounded=0;orthogonalLoop=1;jettySize=auto;html=1;exitX=0;exitY=0.5;exitDx=0;exitDy=0;entryX=1;entryY=0.75;entryDx=0;entryDy=0;strokeColor=default;align=center;verticalAlign=middle;fontFamily=Helvetica;fontSize=11;fontColor=default;labelBackgroundColor=default;startFill=0;endArrow=none;" edge="1" parent="1" source="3t429b_SGeL65_ukOjDj-585" target="3t429b_SGeL65_ukOjDj-582">
          <mxGeometry relative="1" as="geometry" />
        </mxCell>
        <mxCell id="3t429b_SGeL65_ukOjDj-585" value="programming_date" style="ellipse;whiteSpace=wrap;html=1;align=center;fillColor=#dae8fc;strokeColor=#6c8ebf;" vertex="1" parent="1">
          <mxGeometry x="710" y="1035" width="115" height="35" as="geometry" />
        </mxCell>
        <mxCell id="3t429b_SGeL65_ukOjDj-586" style="shape=connector;rounded=0;orthogonalLoop=1;jettySize=auto;html=1;exitX=1;exitY=0.5;exitDx=0;exitDy=0;strokeColor=default;align=center;verticalAlign=middle;fontFamily=Helvetica;fontSize=11;fontColor=default;labelBackgroundColor=default;startFill=0;endArrow=none;entryX=0;entryY=0.5;entryDx=0;entryDy=0;" edge="1" parent="1" source="3t429b_SGeL65_ukOjDj-582" target="3t429b_SGeL65_ukOjDj-590">
          <mxGeometry relative="1" as="geometry">
            <mxPoint x="614.9549999999999" y="1189.975" as="targetPoint" />
          </mxGeometry>
        </mxCell>
        <mxCell id="ezjH-i5-pDRoHfl9tepW-173" style="shape=connector;rounded=0;orthogonalLoop=1;jettySize=auto;html=1;exitX=0.5;exitY=1;exitDx=0;exitDy=0;entryX=0.75;entryY=0;entryDx=0;entryDy=0;strokeColor=default;align=center;verticalAlign=middle;fontFamily=Helvetica;fontSize=11;fontColor=default;labelBackgroundColor=default;startFill=0;endArrow=none;" edge="1" parent="1" source="3t429b_SGeL65_ukOjDj-587" target="3t429b_SGeL65_ukOjDj-582">
          <mxGeometry relative="1" as="geometry" />
        </mxCell>
        <mxCell id="3t429b_SGeL65_ukOjDj-587" value="start_time" style="ellipse;whiteSpace=wrap;html=1;align=center;fillColor=#dae8fc;strokeColor=#6c8ebf;" vertex="1" parent="1">
          <mxGeometry x="585" y="990.5" width="80" height="30" as="geometry" />
        </mxCell>
        <mxCell id="ezjH-i5-pDRoHfl9tepW-172" style="shape=connector;rounded=0;orthogonalLoop=1;jettySize=auto;html=1;exitX=0;exitY=0.5;exitDx=0;exitDy=0;entryX=1;entryY=0.926;entryDx=0;entryDy=0;strokeColor=default;align=center;verticalAlign=middle;fontFamily=Helvetica;fontSize=11;fontColor=default;labelBackgroundColor=default;startFill=0;endArrow=none;entryPerimeter=0;" edge="1" parent="1" source="3t429b_SGeL65_ukOjDj-589" target="3t429b_SGeL65_ukOjDj-582">
          <mxGeometry relative="1" as="geometry" />
        </mxCell>
        <mxCell id="3t429b_SGeL65_ukOjDj-589" value="id" style="ellipse;whiteSpace=wrap;html=1;align=center;fontStyle=4;fillColor=#1ba1e2;fontColor=#ffffff;strokeColor=#006EAF;" vertex="1" parent="1">
          <mxGeometry x="707.5" y="1074" width="70" height="30" as="geometry" />
        </mxCell>
        <mxCell id="3t429b_SGeL65_ukOjDj-590" value="seat_availability" style="ellipse;whiteSpace=wrap;html=1;align=center;dashed=1;fillColor=#e1d5e7;strokeColor=#9673a6;" vertex="1" parent="1">
          <mxGeometry x="705" y="985" width="100" height="40" as="geometry" />
        </mxCell>
        <mxCell id="3t429b_SGeL65_ukOjDj-591" style="edgeStyle=orthogonalEdgeStyle;rounded=0;orthogonalLoop=1;jettySize=auto;html=1;entryX=0.5;entryY=0;entryDx=0;entryDy=0;endArrow=none;startFill=0;exitX=0.5;exitY=1;exitDx=0;exitDy=0;" edge="1" parent="1" source="3t429b_SGeL65_ukOjDj-595" target="3t429b_SGeL65_ukOjDj-607">
          <mxGeometry relative="1" as="geometry">
            <Array as="points" />
            <mxPoint x="290" y="1300" as="sourcePoint" />
          </mxGeometry>
        </mxCell>
        <mxCell id="3t429b_SGeL65_ukOjDj-592" value="N" style="edgeLabel;html=1;align=center;verticalAlign=middle;resizable=0;points=[];" connectable="0" vertex="1" parent="3t429b_SGeL65_ukOjDj-591">
          <mxGeometry x="-0.5824" relative="1" as="geometry">
            <mxPoint y="10" as="offset" />
          </mxGeometry>
        </mxCell>
        <mxCell id="3t429b_SGeL65_ukOjDj-593" style="edgeStyle=orthogonalEdgeStyle;rounded=0;orthogonalLoop=1;jettySize=auto;html=1;entryX=1;entryY=0.5;entryDx=0;entryDy=0;endArrow=none;startFill=0;" edge="1" parent="1" target="3t429b_SGeL65_ukOjDj-617">
          <mxGeometry relative="1" as="geometry">
            <mxPoint x="355" y="1230" as="sourcePoint" />
          </mxGeometry>
        </mxCell>
        <mxCell id="3t429b_SGeL65_ukOjDj-594" value="N" style="edgeLabel;html=1;align=center;verticalAlign=middle;resizable=0;points=[];" connectable="0" vertex="1" parent="3t429b_SGeL65_ukOjDj-593">
          <mxGeometry x="-0.7128" y="-1" relative="1" as="geometry">
            <mxPoint x="-57" y="1" as="offset" />
          </mxGeometry>
        </mxCell>
        <mxCell id="3t429b_SGeL65_ukOjDj-595" value="Stop" style="whiteSpace=wrap;html=1;align=center;fillColor=#fff2cc;strokeColor=#d6b656;" vertex="1" parent="1">
          <mxGeometry x="355" y="1200" width="100" height="40" as="geometry" />
        </mxCell>
        <mxCell id="3t429b_SGeL65_ukOjDj-596" style="edgeStyle=orthogonalEdgeStyle;rounded=0;orthogonalLoop=1;jettySize=auto;html=1;exitX=0;exitY=0.5;exitDx=0;exitDy=0;entryX=1;entryY=0.25;entryDx=0;entryDy=0;endArrow=none;startFill=0;" edge="1" parent="1" source="3t429b_SGeL65_ukOjDj-598" target="3t429b_SGeL65_ukOjDj-595">
          <mxGeometry relative="1" as="geometry">
            <Array as="points">
              <mxPoint x="455" y="1170" />
            </Array>
          </mxGeometry>
        </mxCell>
        <mxCell id="3t429b_SGeL65_ukOjDj-597" value="N" style="edgeLabel;html=1;align=center;verticalAlign=middle;resizable=0;points=[];" connectable="0" vertex="1" parent="3t429b_SGeL65_ukOjDj-596">
          <mxGeometry x="0.8295" y="1" relative="1" as="geometry">
            <mxPoint x="44" y="-30" as="offset" />
          </mxGeometry>
        </mxCell>
        <mxCell id="3t429b_SGeL65_ukOjDj-598" value="Has" style="shape=rhombus;perimeter=rhombusPerimeter;whiteSpace=wrap;html=1;align=center;fillColor=#d5e8d4;strokeColor=#82b366;" vertex="1" parent="1">
          <mxGeometry x="535" y="1150" width="40" height="40" as="geometry" />
        </mxCell>
        <mxCell id="3t429b_SGeL65_ukOjDj-599" style="edgeStyle=orthogonalEdgeStyle;rounded=0;orthogonalLoop=1;jettySize=auto;html=1;exitX=0;exitY=0.5;exitDx=0;exitDy=0;entryX=1;entryY=0.5;entryDx=0;entryDy=0;endArrow=none;startFill=0;" edge="1" parent="1" source="3t429b_SGeL65_ukOjDj-601" target="3t429b_SGeL65_ukOjDj-595">
          <mxGeometry relative="1" as="geometry" />
        </mxCell>
        <mxCell id="3t429b_SGeL65_ukOjDj-600" value="1" style="edgeLabel;html=1;align=center;verticalAlign=middle;resizable=0;points=[];" connectable="0" vertex="1" parent="3t429b_SGeL65_ukOjDj-599">
          <mxGeometry x="0.4017" relative="1" as="geometry">
            <mxPoint x="22" as="offset" />
          </mxGeometry>
        </mxCell>
        <mxCell id="3t429b_SGeL65_ukOjDj-601" value="start" style="shape=rhombus;perimeter=rhombusPerimeter;whiteSpace=wrap;html=1;align=center;fillColor=#d5e8d4;strokeColor=#82b366;" vertex="1" parent="1">
          <mxGeometry x="560" y="1200" width="40" height="40" as="geometry" />
        </mxCell>
        <mxCell id="3t429b_SGeL65_ukOjDj-602" style="edgeStyle=orthogonalEdgeStyle;rounded=0;orthogonalLoop=1;jettySize=auto;html=1;exitX=0;exitY=0.5;exitDx=0;exitDy=0;entryX=1;entryY=1;entryDx=0;entryDy=0;endArrow=none;startFill=0;" edge="1" parent="1" source="3t429b_SGeL65_ukOjDj-604" target="3t429b_SGeL65_ukOjDj-595">
          <mxGeometry relative="1" as="geometry">
            <Array as="points">
              <mxPoint x="455" y="1290" />
            </Array>
          </mxGeometry>
        </mxCell>
        <mxCell id="3t429b_SGeL65_ukOjDj-603" value="1" style="edgeLabel;html=1;align=center;verticalAlign=middle;resizable=0;points=[];" connectable="0" vertex="1" parent="3t429b_SGeL65_ukOjDj-602">
          <mxGeometry x="0.8703" y="1" relative="1" as="geometry">
            <mxPoint x="86" y="37" as="offset" />
          </mxGeometry>
        </mxCell>
        <mxCell id="3t429b_SGeL65_ukOjDj-604" value="finish" style="shape=rhombus;perimeter=rhombusPerimeter;whiteSpace=wrap;html=1;align=center;fillColor=#d5e8d4;strokeColor=#82b366;" vertex="1" parent="1">
          <mxGeometry x="585" y="1270" width="40" height="40" as="geometry" />
        </mxCell>
        <mxCell id="3t429b_SGeL65_ukOjDj-605" style="edgeStyle=orthogonalEdgeStyle;rounded=0;orthogonalLoop=1;jettySize=auto;html=1;exitX=0.5;exitY=1;exitDx=0;exitDy=0;entryX=0.5;entryY=0;entryDx=0;entryDy=0;endArrow=none;startFill=0;" edge="1" parent="1" source="3t429b_SGeL65_ukOjDj-607" target="3t429b_SGeL65_ukOjDj-359">
          <mxGeometry relative="1" as="geometry" />
        </mxCell>
        <mxCell id="3t429b_SGeL65_ukOjDj-606" value="1" style="edgeLabel;html=1;align=center;verticalAlign=middle;resizable=0;points=[];" connectable="0" vertex="1" parent="3t429b_SGeL65_ukOjDj-605">
          <mxGeometry x="0.5667" y="-1" relative="1" as="geometry">
            <mxPoint x="1" y="-11" as="offset" />
          </mxGeometry>
        </mxCell>
        <mxCell id="3t429b_SGeL65_ukOjDj-607" value="Has" style="shape=rhombus;perimeter=rhombusPerimeter;whiteSpace=wrap;html=1;align=center;fillColor=#d5e8d4;strokeColor=#82b366;" vertex="1" parent="1">
          <mxGeometry x="385" y="1290" width="40" height="40" as="geometry" />
        </mxCell>
        <mxCell id="ezjH-i5-pDRoHfl9tepW-182" style="shape=connector;rounded=0;orthogonalLoop=1;jettySize=auto;html=1;exitX=0.5;exitY=1;exitDx=0;exitDy=0;entryX=0.25;entryY=0;entryDx=0;entryDy=0;strokeColor=default;align=center;verticalAlign=middle;fontFamily=Helvetica;fontSize=11;fontColor=default;labelBackgroundColor=default;startFill=0;endArrow=none;" edge="1" parent="1" source="3t429b_SGeL65_ukOjDj-609" target="3t429b_SGeL65_ukOjDj-595">
          <mxGeometry relative="1" as="geometry" />
        </mxCell>
        <mxCell id="3t429b_SGeL65_ukOjDj-609" value="id" style="ellipse;whiteSpace=wrap;html=1;align=center;fontStyle=4;fillColor=#1ba1e2;fontColor=#ffffff;strokeColor=#006EAF;" vertex="1" parent="1">
          <mxGeometry x="336.25" y="1135.5" width="70" height="30" as="geometry" />
        </mxCell>
        <mxCell id="3t429b_SGeL65_ukOjDj-610" style="rounded=0;orthogonalLoop=1;jettySize=auto;html=1;entryX=0.5;entryY=0;entryDx=0;entryDy=0;endArrow=none;startFill=0;" edge="1" parent="1" source="3t429b_SGeL65_ukOjDj-611" target="3t429b_SGeL65_ukOjDj-595">
          <mxGeometry relative="1" as="geometry" />
        </mxCell>
        <mxCell id="3t429b_SGeL65_ukOjDj-611" value="latitude" style="ellipse;whiteSpace=wrap;html=1;align=center;fillColor=#dae8fc;strokeColor=#6c8ebf;" vertex="1" parent="1">
          <mxGeometry x="390" y="1102.5" width="70" height="30" as="geometry" />
        </mxCell>
        <mxCell id="3t429b_SGeL65_ukOjDj-612" style="rounded=0;orthogonalLoop=1;jettySize=auto;html=1;entryX=0.75;entryY=0;entryDx=0;entryDy=0;endArrow=none;startFill=0;" edge="1" parent="1" source="3t429b_SGeL65_ukOjDj-613" target="3t429b_SGeL65_ukOjDj-595">
          <mxGeometry relative="1" as="geometry" />
        </mxCell>
        <mxCell id="3t429b_SGeL65_ukOjDj-613" value="longitude" style="ellipse;whiteSpace=wrap;html=1;align=center;fillColor=#dae8fc;strokeColor=#6c8ebf;" vertex="1" parent="1">
          <mxGeometry x="425" y="1133" width="70" height="30" as="geometry" />
        </mxCell>
        <mxCell id="3t429b_SGeL65_ukOjDj-614" style="edgeStyle=orthogonalEdgeStyle;rounded=0;orthogonalLoop=1;jettySize=auto;html=1;exitX=0;exitY=0.5;exitDx=0;exitDy=0;entryX=1;entryY=1;entryDx=0;entryDy=0;endArrow=none;startFill=0;" edge="1" parent="1" source="3t429b_SGeL65_ukOjDj-616" target="3t429b_SGeL65_ukOjDj-550">
          <mxGeometry relative="1" as="geometry" />
        </mxCell>
        <mxCell id="3t429b_SGeL65_ukOjDj-615" value="N" style="edgeLabel;html=1;align=center;verticalAlign=middle;resizable=0;points=[];" connectable="0" vertex="1" parent="3t429b_SGeL65_ukOjDj-614">
          <mxGeometry x="0.7571" y="1" relative="1" as="geometry">
            <mxPoint x="41" y="25" as="offset" />
          </mxGeometry>
        </mxCell>
        <mxCell id="3t429b_SGeL65_ukOjDj-616" value="Has" style="shape=rhombus;perimeter=rhombusPerimeter;whiteSpace=wrap;html=1;align=center;fillColor=#d5e8d4;strokeColor=#82b366;" vertex="1" parent="1">
          <mxGeometry x="195" y="1064" width="40" height="40" as="geometry" />
        </mxCell>
        <mxCell id="3t429b_SGeL65_ukOjDj-617" value="Join" style="shape=rhombus;perimeter=rhombusPerimeter;whiteSpace=wrap;html=1;align=center;fillColor=#d5e8d4;strokeColor=#82b366;" vertex="1" parent="1">
          <mxGeometry x="-85" y="1210.5" width="40" height="40" as="geometry" />
        </mxCell>
        <mxCell id="3t429b_SGeL65_ukOjDj-618" value="Parameter" style="whiteSpace=wrap;html=1;align=center;fillColor=#fff2cc;strokeColor=#d6b656;" vertex="1" parent="1">
          <mxGeometry x="-660" y="980.5" width="100" height="40" as="geometry" />
        </mxCell>
        <mxCell id="3t429b_SGeL65_ukOjDj-619" style="edgeStyle=none;curved=1;rounded=0;orthogonalLoop=1;jettySize=auto;html=1;exitX=0.5;exitY=1;exitDx=0;exitDy=0;entryX=0.5;entryY=0;entryDx=0;entryDy=0;fontSize=12;startSize=8;endSize=8;endArrow=none;startFill=0;" edge="1" parent="1" source="3t429b_SGeL65_ukOjDj-620" target="3t429b_SGeL65_ukOjDj-618">
          <mxGeometry relative="1" as="geometry" />
        </mxCell>
        <mxCell id="3t429b_SGeL65_ukOjDj-620" value="name" style="ellipse;whiteSpace=wrap;html=1;align=center;fillColor=#dae8fc;strokeColor=#6c8ebf;" vertex="1" parent="1">
          <mxGeometry x="-650" y="895" width="82" height="40" as="geometry" />
        </mxCell>
        <mxCell id="3t429b_SGeL65_ukOjDj-621" style="edgeStyle=none;curved=1;rounded=0;orthogonalLoop=1;jettySize=auto;html=1;exitX=0.5;exitY=1;exitDx=0;exitDy=0;entryX=0.25;entryY=0;entryDx=0;entryDy=0;fontSize=12;startSize=8;endSize=8;endArrow=none;startFill=0;" edge="1" parent="1" source="3t429b_SGeL65_ukOjDj-622" target="3t429b_SGeL65_ukOjDj-618">
          <mxGeometry relative="1" as="geometry" />
        </mxCell>
        <mxCell id="3t429b_SGeL65_ukOjDj-622" value="value" style="ellipse;whiteSpace=wrap;html=1;align=center;fillColor=#dae8fc;strokeColor=#6c8ebf;" vertex="1" parent="1">
          <mxGeometry x="-740" y="910" width="80" height="40" as="geometry" />
        </mxCell>
        <mxCell id="3t429b_SGeL65_ukOjDj-623" style="edgeStyle=none;curved=1;rounded=0;orthogonalLoop=1;jettySize=auto;html=1;exitX=0.5;exitY=1;exitDx=0;exitDy=0;entryX=0.75;entryY=0;entryDx=0;entryDy=0;fontSize=12;startSize=8;endSize=8;endArrow=none;startFill=0;" edge="1" parent="1" source="3t429b_SGeL65_ukOjDj-624" target="3t429b_SGeL65_ukOjDj-618">
          <mxGeometry relative="1" as="geometry" />
        </mxCell>
        <mxCell id="3t429b_SGeL65_ukOjDj-624" value="id" style="ellipse;whiteSpace=wrap;html=1;align=center;fontStyle=4;fillColor=#1ba1e2;fontColor=#ffffff;strokeColor=#006EAF;" vertex="1" parent="1">
          <mxGeometry x="-560" y="900" width="80" height="45" as="geometry" />
        </mxCell>
        <mxCell id="3t429b_SGeL65_ukOjDj-625" value="Log" style="whiteSpace=wrap;html=1;align=center;fillColor=#fff2cc;strokeColor=#d6b656;" vertex="1" parent="1">
          <mxGeometry x="-655" y="1155.5" width="100" height="40" as="geometry" />
        </mxCell>
        <mxCell id="3t429b_SGeL65_ukOjDj-626" style="edgeStyle=none;curved=1;rounded=0;orthogonalLoop=1;jettySize=auto;html=1;exitX=0.5;exitY=1;exitDx=0;exitDy=0;entryX=0.5;entryY=0;entryDx=0;entryDy=0;fontSize=12;startSize=8;endSize=8;endArrow=none;startFill=0;" edge="1" parent="1" source="3t429b_SGeL65_ukOjDj-627" target="3t429b_SGeL65_ukOjDj-625">
          <mxGeometry relative="1" as="geometry" />
        </mxCell>
        <mxCell id="3t429b_SGeL65_ukOjDj-627" value="creator_name" style="ellipse;whiteSpace=wrap;html=1;align=center;fillColor=#dae8fc;strokeColor=#6c8ebf;" vertex="1" parent="1">
          <mxGeometry x="-646" y="1075" width="82" height="40" as="geometry" />
        </mxCell>
        <mxCell id="3t429b_SGeL65_ukOjDj-628" style="edgeStyle=none;curved=1;rounded=0;orthogonalLoop=1;jettySize=auto;html=1;exitX=0.5;exitY=1;exitDx=0;exitDy=0;entryX=0.25;entryY=0;entryDx=0;entryDy=0;fontSize=12;startSize=8;endSize=8;endArrow=none;startFill=0;" edge="1" parent="1" source="3t429b_SGeL65_ukOjDj-629" target="3t429b_SGeL65_ukOjDj-625">
          <mxGeometry relative="1" as="geometry" />
        </mxCell>
        <mxCell id="3t429b_SGeL65_ukOjDj-629" value="description" style="ellipse;whiteSpace=wrap;html=1;align=center;fillColor=#dae8fc;strokeColor=#6c8ebf;" vertex="1" parent="1">
          <mxGeometry x="-735" y="1075" width="80" height="40" as="geometry" />
        </mxCell>
        <mxCell id="3t429b_SGeL65_ukOjDj-630" style="edgeStyle=none;curved=1;rounded=0;orthogonalLoop=1;jettySize=auto;html=1;exitX=0.5;exitY=1;exitDx=0;exitDy=0;entryX=0.75;entryY=0;entryDx=0;entryDy=0;fontSize=12;startSize=8;endSize=8;endArrow=none;startFill=0;" edge="1" parent="1" source="3t429b_SGeL65_ukOjDj-631" target="3t429b_SGeL65_ukOjDj-625">
          <mxGeometry relative="1" as="geometry" />
        </mxCell>
        <mxCell id="3t429b_SGeL65_ukOjDj-631" value="id" style="ellipse;whiteSpace=wrap;html=1;align=center;fontStyle=4;fillColor=#1ba1e2;fontColor=#ffffff;strokeColor=#006EAF;" vertex="1" parent="1">
          <mxGeometry x="-545" y="1072.5" width="80" height="45" as="geometry" />
        </mxCell>
        <mxCell id="3t429b_SGeL65_ukOjDj-632" style="rounded=0;orthogonalLoop=1;jettySize=auto;html=1;entryX=0.25;entryY=1;entryDx=0;entryDy=0;endArrow=none;startFill=0;" edge="1" parent="1" source="3t429b_SGeL65_ukOjDj-633" target="3t429b_SGeL65_ukOjDj-625">
          <mxGeometry relative="1" as="geometry" />
        </mxCell>
        <mxCell id="3t429b_SGeL65_ukOjDj-633" value="date" style="ellipse;whiteSpace=wrap;html=1;align=center;fillColor=#dae8fc;strokeColor=#6c8ebf;" vertex="1" parent="1">
          <mxGeometry x="-740" y="1240" width="80" height="40" as="geometry" />
        </mxCell>
        <mxCell id="3t429b_SGeL65_ukOjDj-634" value="&lt;p style=&quot;font-size: 11px;&quot;&gt;NOTE:&lt;/p&gt;&lt;p style=&quot;font-size: 11px;&quot;&gt;&lt;b&gt;Inheritance:&lt;/b&gt; Superclass - Subclass Entity&lt;/p&gt;&lt;p style=&quot;font-size: 11px;&quot;&gt;&lt;b&gt;Justification:&lt;/b&gt; Passenger and driver&lt;/p&gt;&lt;p style=&quot;font-size: 11px;&quot;&gt;&amp;nbsp;share attributes&amp;nbsp;&lt;span style=&quot;background-color: transparent; color: light-dark(rgb(0, 0, 0), rgb(255, 255, 255));&quot;&gt;but additionally,&amp;nbsp;&lt;/span&gt;&lt;/p&gt;&lt;p style=&quot;font-size: 11px;&quot;&gt;they are related to different entities.&lt;/p&gt;" style="ellipse;shape=cloud;whiteSpace=wrap;html=1;align=center;fillColor=light-dark(#f2a14a, #36210a);strokeColor=#d79b00;" vertex="1" parent="1">
          <mxGeometry x="227.5" width="287.5" height="248.5" as="geometry" />
        </mxCell>
        <mxCell id="ezjH-i5-pDRoHfl9tepW-7" style="edgeStyle=orthogonalEdgeStyle;rounded=0;orthogonalLoop=1;jettySize=auto;html=1;exitX=1;exitY=1;exitDx=0;exitDy=0;entryX=0;entryY=0.5;entryDx=0;entryDy=0;endArrow=none;startFill=0;" edge="1" parent="1" source="3t429b_SGeL65_ukOjDj-402" target="ezjH-i5-pDRoHfl9tepW-12">
          <mxGeometry relative="1" as="geometry">
            <Array as="points">
              <mxPoint x="90" y="620" />
              <mxPoint x="170" y="620" />
            </Array>
            <mxPoint x="90" y="480" as="sourcePoint" />
          </mxGeometry>
        </mxCell>
        <mxCell id="ezjH-i5-pDRoHfl9tepW-8" value="N" style="edgeLabel;html=1;align=center;verticalAlign=middle;resizable=0;points=[];" connectable="0" vertex="1" parent="ezjH-i5-pDRoHfl9tepW-7">
          <mxGeometry x="-0.8879" y="-3" relative="1" as="geometry">
            <mxPoint x="3" y="69" as="offset" />
          </mxGeometry>
        </mxCell>
        <mxCell id="ezjH-i5-pDRoHfl9tepW-9" style="rounded=0;orthogonalLoop=1;jettySize=auto;html=1;exitX=0;exitY=0.5;exitDx=0;exitDy=0;entryX=1;entryY=0.5;entryDx=0;entryDy=0;endArrow=none;startFill=0;edgeStyle=orthogonalEdgeStyle;" edge="1" parent="1" source="ezjH-i5-pDRoHfl9tepW-18" target="ezjH-i5-pDRoHfl9tepW-12">
          <mxGeometry relative="1" as="geometry">
            <mxPoint x="280" y="605" as="sourcePoint" />
          </mxGeometry>
        </mxCell>
        <mxCell id="ezjH-i5-pDRoHfl9tepW-10" value="1" style="edgeLabel;html=1;align=center;verticalAlign=middle;resizable=0;points=[];" connectable="0" vertex="1" parent="ezjH-i5-pDRoHfl9tepW-9">
          <mxGeometry x="-0.6543" y="-1" relative="1" as="geometry">
            <mxPoint x="-11" y="1" as="offset" />
          </mxGeometry>
        </mxCell>
        <mxCell id="ezjH-i5-pDRoHfl9tepW-12" value="Has" style="shape=rhombus;perimeter=rhombusPerimeter;whiteSpace=wrap;html=1;align=center;fillColor=#d5e8d4;strokeColor=#82b366;" vertex="1" parent="1">
          <mxGeometry x="170" y="596" width="50" height="50" as="geometry" />
        </mxCell>
        <mxCell id="ezjH-i5-pDRoHfl9tepW-13" style="rounded=0;orthogonalLoop=1;jettySize=auto;html=1;exitX=0;exitY=0.5;exitDx=0;exitDy=0;entryX=1;entryY=1;entryDx=0;entryDy=0;endArrow=none;startFill=0;" edge="1" parent="1" source="ezjH-i5-pDRoHfl9tepW-14" target="ezjH-i5-pDRoHfl9tepW-18">
          <mxGeometry relative="1" as="geometry">
            <mxPoint x="360" y="615" as="targetPoint" />
          </mxGeometry>
        </mxCell>
        <mxCell id="ezjH-i5-pDRoHfl9tepW-14" value="name" style="ellipse;whiteSpace=wrap;html=1;align=center;fillColor=#dae8fc;strokeColor=#6c8ebf;" vertex="1" parent="1">
          <mxGeometry x="430" y="633.5" width="70" height="35" as="geometry" />
        </mxCell>
        <mxCell id="ezjH-i5-pDRoHfl9tepW-15" style="rounded=0;orthogonalLoop=1;jettySize=auto;html=1;exitX=0;exitY=0.5;exitDx=0;exitDy=0;entryX=1;entryY=0.25;entryDx=0;entryDy=0;endArrow=none;startFill=0;" edge="1" parent="1" source="ezjH-i5-pDRoHfl9tepW-16" target="ezjH-i5-pDRoHfl9tepW-18">
          <mxGeometry relative="1" as="geometry">
            <mxPoint x="360" y="595" as="targetPoint" />
          </mxGeometry>
        </mxCell>
        <mxCell id="ezjH-i5-pDRoHfl9tepW-16" value="id" style="ellipse;whiteSpace=wrap;html=1;align=center;fontStyle=4;fillColor=#1ba1e2;fontColor=#ffffff;strokeColor=#006EAF;" vertex="1" parent="1">
          <mxGeometry x="430" y="596" width="70" height="30" as="geometry" />
        </mxCell>
        <mxCell id="ezjH-i5-pDRoHfl9tepW-18" value="Type_identification" style="whiteSpace=wrap;html=1;align=center;fillColor=#fff2cc;strokeColor=#d6b656;" vertex="1" parent="1">
          <mxGeometry x="275" y="601" width="110" height="40" as="geometry" />
        </mxCell>
        <mxCell id="ezjH-i5-pDRoHfl9tepW-30" style="shape=connector;rounded=0;orthogonalLoop=1;jettySize=auto;html=1;exitX=0.5;exitY=1;exitDx=0;exitDy=0;entryX=0;entryY=0;entryDx=0;entryDy=0;strokeColor=default;align=center;verticalAlign=middle;fontFamily=Helvetica;fontSize=11;fontColor=default;labelBackgroundColor=default;startFill=0;endArrow=none;" edge="1" parent="1" source="ezjH-i5-pDRoHfl9tepW-23" target="3t429b_SGeL65_ukOjDj-462">
          <mxGeometry relative="1" as="geometry" />
        </mxCell>
        <mxCell id="ezjH-i5-pDRoHfl9tepW-23" value="creator" style="ellipse;whiteSpace=wrap;html=1;align=center;fillColor=#dae8fc;strokeColor=#6c8ebf;" vertex="1" parent="1">
          <mxGeometry x="-407.5" y="150" width="70" height="40" as="geometry" />
        </mxCell>
        <mxCell id="ezjH-i5-pDRoHfl9tepW-31" style="shape=connector;rounded=0;orthogonalLoop=1;jettySize=auto;html=1;exitX=1;exitY=0.5;exitDx=0;exitDy=0;entryX=0;entryY=0.75;entryDx=0;entryDy=0;strokeColor=default;align=center;verticalAlign=middle;fontFamily=Helvetica;fontSize=11;fontColor=default;labelBackgroundColor=default;startFill=0;endArrow=none;" edge="1" parent="1" source="ezjH-i5-pDRoHfl9tepW-24" target="3t429b_SGeL65_ukOjDj-462">
          <mxGeometry relative="1" as="geometry" />
        </mxCell>
        <mxCell id="ezjH-i5-pDRoHfl9tepW-24" value="creation_date" style="ellipse;whiteSpace=wrap;html=1;align=center;fillColor=#dae8fc;strokeColor=#6c8ebf;" vertex="1" parent="1">
          <mxGeometry x="-460" y="240" width="80" height="40" as="geometry" />
        </mxCell>
        <mxCell id="ezjH-i5-pDRoHfl9tepW-28" style="shape=connector;rounded=0;orthogonalLoop=1;jettySize=auto;html=1;exitX=0.5;exitY=1;exitDx=0;exitDy=0;entryX=0;entryY=0.25;entryDx=0;entryDy=0;strokeColor=default;align=center;verticalAlign=middle;fontFamily=Helvetica;fontSize=11;fontColor=default;labelBackgroundColor=default;startFill=0;endArrow=none;" edge="1" parent="1" source="ezjH-i5-pDRoHfl9tepW-25" target="3t429b_SGeL65_ukOjDj-462">
          <mxGeometry relative="1" as="geometry" />
        </mxCell>
        <mxCell id="ezjH-i5-pDRoHfl9tepW-25" value="modifier" style="ellipse;whiteSpace=wrap;html=1;align=center;fillColor=#dae8fc;strokeColor=#6c8ebf;" vertex="1" parent="1">
          <mxGeometry x="-480" y="120" width="70" height="40" as="geometry" />
        </mxCell>
        <mxCell id="ezjH-i5-pDRoHfl9tepW-29" style="shape=connector;rounded=0;orthogonalLoop=1;jettySize=auto;html=1;exitX=1;exitY=0.5;exitDx=0;exitDy=0;entryX=0;entryY=0.5;entryDx=0;entryDy=0;strokeColor=default;align=center;verticalAlign=middle;fontFamily=Helvetica;fontSize=11;fontColor=default;labelBackgroundColor=default;startFill=0;endArrow=none;" edge="1" parent="1" source="ezjH-i5-pDRoHfl9tepW-26" target="3t429b_SGeL65_ukOjDj-462">
          <mxGeometry relative="1" as="geometry" />
        </mxCell>
        <mxCell id="ezjH-i5-pDRoHfl9tepW-26" value="modification_date" style="ellipse;whiteSpace=wrap;html=1;align=center;fillColor=#dae8fc;strokeColor=#6c8ebf;" vertex="1" parent="1">
          <mxGeometry x="-517.5" y="190" width="105" height="40" as="geometry" />
        </mxCell>
        <mxCell id="ezjH-i5-pDRoHfl9tepW-37" style="shape=connector;rounded=0;orthogonalLoop=1;jettySize=auto;html=1;exitX=0;exitY=1;exitDx=0;exitDy=0;entryX=0.75;entryY=0;entryDx=0;entryDy=0;strokeColor=default;align=center;verticalAlign=middle;fontFamily=Helvetica;fontSize=11;fontColor=default;labelBackgroundColor=default;startFill=0;endArrow=none;" edge="1" parent="1" source="ezjH-i5-pDRoHfl9tepW-33" target="3t429b_SGeL65_ukOjDj-402">
          <mxGeometry relative="1" as="geometry" />
        </mxCell>
        <mxCell id="ezjH-i5-pDRoHfl9tepW-33" value="creator" style="ellipse;whiteSpace=wrap;html=1;align=center;fillColor=#dae8fc;strokeColor=#6c8ebf;" vertex="1" parent="1">
          <mxGeometry x="50" y="221.75" width="70" height="40" as="geometry" />
        </mxCell>
        <mxCell id="ezjH-i5-pDRoHfl9tepW-34" value="creation_date" style="ellipse;whiteSpace=wrap;html=1;align=center;fillColor=#dae8fc;strokeColor=#6c8ebf;" vertex="1" parent="1">
          <mxGeometry x="123" y="207" width="80" height="40" as="geometry" />
        </mxCell>
        <mxCell id="ezjH-i5-pDRoHfl9tepW-42" style="shape=connector;rounded=0;orthogonalLoop=1;jettySize=auto;html=1;exitX=0;exitY=1;exitDx=0;exitDy=0;entryX=1;entryY=0;entryDx=0;entryDy=0;strokeColor=default;align=center;verticalAlign=middle;fontFamily=Helvetica;fontSize=11;fontColor=default;labelBackgroundColor=default;startFill=0;endArrow=none;" edge="1" parent="1" source="ezjH-i5-pDRoHfl9tepW-35" target="3t429b_SGeL65_ukOjDj-402">
          <mxGeometry relative="1" as="geometry" />
        </mxCell>
        <mxCell id="ezjH-i5-pDRoHfl9tepW-35" value="modifier" style="ellipse;whiteSpace=wrap;html=1;align=center;fillColor=#dae8fc;strokeColor=#6c8ebf;" vertex="1" parent="1">
          <mxGeometry x="135" y="263" width="70" height="40" as="geometry" />
        </mxCell>
        <mxCell id="ezjH-i5-pDRoHfl9tepW-38" style="shape=connector;rounded=0;orthogonalLoop=1;jettySize=auto;html=1;exitX=0;exitY=1;exitDx=0;exitDy=0;entryX=1.002;entryY=0.177;entryDx=0;entryDy=0;strokeColor=default;align=center;verticalAlign=middle;fontFamily=Helvetica;fontSize=11;fontColor=default;labelBackgroundColor=default;startFill=0;endArrow=none;entryPerimeter=0;" edge="1" parent="1" source="ezjH-i5-pDRoHfl9tepW-36" target="3t429b_SGeL65_ukOjDj-402">
          <mxGeometry relative="1" as="geometry" />
        </mxCell>
        <mxCell id="ezjH-i5-pDRoHfl9tepW-36" value="modification_date" style="ellipse;whiteSpace=wrap;html=1;align=center;fillColor=#dae8fc;strokeColor=#6c8ebf;" vertex="1" parent="1">
          <mxGeometry x="130" y="310" width="105" height="40" as="geometry" />
        </mxCell>
        <mxCell id="ezjH-i5-pDRoHfl9tepW-39" style="shape=connector;rounded=0;orthogonalLoop=1;jettySize=auto;html=1;exitX=1;exitY=1;exitDx=0;exitDy=0;entryX=-0.002;entryY=0.15;entryDx=0;entryDy=0;entryPerimeter=0;strokeColor=default;align=center;verticalAlign=middle;fontFamily=Helvetica;fontSize=11;fontColor=default;labelBackgroundColor=default;startFill=0;endArrow=none;" edge="1" parent="1" source="3t429b_SGeL65_ukOjDj-420" target="3t429b_SGeL65_ukOjDj-402">
          <mxGeometry relative="1" as="geometry" />
        </mxCell>
        <mxCell id="ezjH-i5-pDRoHfl9tepW-40" style="shape=connector;rounded=0;orthogonalLoop=1;jettySize=auto;html=1;exitX=1;exitY=1;exitDx=0;exitDy=0;entryX=-0.001;entryY=0.09;entryDx=0;entryDy=0;entryPerimeter=0;strokeColor=default;align=center;verticalAlign=middle;fontFamily=Helvetica;fontSize=11;fontColor=default;labelBackgroundColor=default;startFill=0;endArrow=none;" edge="1" parent="1" source="3t429b_SGeL65_ukOjDj-418" target="3t429b_SGeL65_ukOjDj-402">
          <mxGeometry relative="1" as="geometry" />
        </mxCell>
        <mxCell id="ezjH-i5-pDRoHfl9tepW-41" style="shape=connector;rounded=0;orthogonalLoop=1;jettySize=auto;html=1;exitX=0;exitY=1;exitDx=0;exitDy=0;entryX=0.858;entryY=0;entryDx=0;entryDy=0;entryPerimeter=0;strokeColor=default;align=center;verticalAlign=middle;fontFamily=Helvetica;fontSize=11;fontColor=default;labelBackgroundColor=default;startFill=0;endArrow=none;" edge="1" parent="1" source="ezjH-i5-pDRoHfl9tepW-34" target="3t429b_SGeL65_ukOjDj-402">
          <mxGeometry relative="1" as="geometry" />
        </mxCell>
        <mxCell id="ezjH-i5-pDRoHfl9tepW-48" style="shape=connector;rounded=0;orthogonalLoop=1;jettySize=auto;html=1;exitX=0.5;exitY=1;exitDx=0;exitDy=0;entryX=0.5;entryY=0;entryDx=0;entryDy=0;strokeColor=default;align=center;verticalAlign=middle;fontFamily=Helvetica;fontSize=11;fontColor=default;labelBackgroundColor=default;startFill=0;endArrow=none;" edge="1" parent="1" source="ezjH-i5-pDRoHfl9tepW-43" target="3t429b_SGeL65_ukOjDj-421">
          <mxGeometry relative="1" as="geometry" />
        </mxCell>
        <mxCell id="ezjH-i5-pDRoHfl9tepW-43" value="creator" style="ellipse;whiteSpace=wrap;html=1;align=center;fillColor=#dae8fc;strokeColor=#6c8ebf;" vertex="1" parent="1">
          <mxGeometry x="285" y="309" width="70" height="40" as="geometry" />
        </mxCell>
        <mxCell id="ezjH-i5-pDRoHfl9tepW-47" style="shape=connector;rounded=0;orthogonalLoop=1;jettySize=auto;html=1;entryX=0;entryY=0;entryDx=0;entryDy=0;strokeColor=default;align=center;verticalAlign=middle;fontFamily=Helvetica;fontSize=11;fontColor=default;labelBackgroundColor=default;startFill=0;endArrow=none;" edge="1" parent="1" source="ezjH-i5-pDRoHfl9tepW-44" target="3t429b_SGeL65_ukOjDj-421">
          <mxGeometry relative="1" as="geometry" />
        </mxCell>
        <mxCell id="ezjH-i5-pDRoHfl9tepW-44" value="creation_date" style="ellipse;whiteSpace=wrap;html=1;align=center;fillColor=#dae8fc;strokeColor=#6c8ebf;" vertex="1" parent="1">
          <mxGeometry x="229" y="275" width="80" height="40" as="geometry" />
        </mxCell>
        <mxCell id="ezjH-i5-pDRoHfl9tepW-49" style="shape=connector;rounded=0;orthogonalLoop=1;jettySize=auto;html=1;exitX=0.5;exitY=1;exitDx=0;exitDy=0;entryX=0.75;entryY=0;entryDx=0;entryDy=0;strokeColor=default;align=center;verticalAlign=middle;fontFamily=Helvetica;fontSize=11;fontColor=default;labelBackgroundColor=default;startFill=0;endArrow=none;" edge="1" parent="1" source="ezjH-i5-pDRoHfl9tepW-45" target="3t429b_SGeL65_ukOjDj-421">
          <mxGeometry relative="1" as="geometry" />
        </mxCell>
        <mxCell id="ezjH-i5-pDRoHfl9tepW-45" value="modifier" style="ellipse;whiteSpace=wrap;html=1;align=center;fillColor=#dae8fc;strokeColor=#6c8ebf;" vertex="1" parent="1">
          <mxGeometry x="340" y="260" width="70" height="40" as="geometry" />
        </mxCell>
        <mxCell id="ezjH-i5-pDRoHfl9tepW-51" style="shape=connector;rounded=0;orthogonalLoop=1;jettySize=auto;html=1;exitX=0;exitY=1;exitDx=0;exitDy=0;entryX=1;entryY=0;entryDx=0;entryDy=0;strokeColor=default;align=center;verticalAlign=middle;fontFamily=Helvetica;fontSize=11;fontColor=default;labelBackgroundColor=default;startFill=0;endArrow=none;" edge="1" parent="1" source="ezjH-i5-pDRoHfl9tepW-46" target="3t429b_SGeL65_ukOjDj-421">
          <mxGeometry relative="1" as="geometry" />
        </mxCell>
        <mxCell id="ezjH-i5-pDRoHfl9tepW-46" value="modification_date" style="ellipse;whiteSpace=wrap;html=1;align=center;fillColor=#dae8fc;strokeColor=#6c8ebf;" vertex="1" parent="1">
          <mxGeometry x="415" y="287" width="105" height="40" as="geometry" />
        </mxCell>
        <mxCell id="ezjH-i5-pDRoHfl9tepW-59" style="shape=connector;rounded=0;orthogonalLoop=1;jettySize=auto;html=1;exitX=0;exitY=0;exitDx=0;exitDy=0;entryX=0.75;entryY=1;entryDx=0;entryDy=0;strokeColor=default;align=center;verticalAlign=middle;fontFamily=Helvetica;fontSize=11;fontColor=default;labelBackgroundColor=default;startFill=0;endArrow=none;" edge="1" parent="1" source="ezjH-i5-pDRoHfl9tepW-52" target="ezjH-i5-pDRoHfl9tepW-18">
          <mxGeometry relative="1" as="geometry" />
        </mxCell>
        <mxCell id="ezjH-i5-pDRoHfl9tepW-52" value="creator" style="ellipse;whiteSpace=wrap;html=1;align=center;fillColor=#dae8fc;strokeColor=#6c8ebf;" vertex="1" parent="1">
          <mxGeometry x="336.25" y="646" width="70" height="40" as="geometry" />
        </mxCell>
        <mxCell id="ezjH-i5-pDRoHfl9tepW-58" style="shape=connector;rounded=0;orthogonalLoop=1;jettySize=auto;html=1;exitX=1;exitY=0;exitDx=0;exitDy=0;entryX=0.5;entryY=1;entryDx=0;entryDy=0;strokeColor=default;align=center;verticalAlign=middle;fontFamily=Helvetica;fontSize=11;fontColor=default;labelBackgroundColor=default;startFill=0;endArrow=none;" edge="1" parent="1" source="ezjH-i5-pDRoHfl9tepW-53" target="ezjH-i5-pDRoHfl9tepW-18">
          <mxGeometry relative="1" as="geometry" />
        </mxCell>
        <mxCell id="ezjH-i5-pDRoHfl9tepW-53" value="creation_date" style="ellipse;whiteSpace=wrap;html=1;align=center;fillColor=#dae8fc;strokeColor=#6c8ebf;" vertex="1" parent="1">
          <mxGeometry x="240" y="646" width="80" height="40" as="geometry" />
        </mxCell>
        <mxCell id="ezjH-i5-pDRoHfl9tepW-57" style="shape=connector;rounded=0;orthogonalLoop=1;jettySize=auto;html=1;exitX=0;exitY=1;exitDx=0;exitDy=0;entryX=0.5;entryY=0;entryDx=0;entryDy=0;strokeColor=default;align=center;verticalAlign=middle;fontFamily=Helvetica;fontSize=11;fontColor=default;labelBackgroundColor=default;startFill=0;endArrow=none;" edge="1" parent="1" source="ezjH-i5-pDRoHfl9tepW-54" target="ezjH-i5-pDRoHfl9tepW-18">
          <mxGeometry relative="1" as="geometry" />
        </mxCell>
        <mxCell id="ezjH-i5-pDRoHfl9tepW-54" value="modifier" style="ellipse;whiteSpace=wrap;html=1;align=center;fillColor=#dae8fc;strokeColor=#6c8ebf;" vertex="1" parent="1">
          <mxGeometry x="336.25" y="558" width="70" height="40" as="geometry" />
        </mxCell>
        <mxCell id="ezjH-i5-pDRoHfl9tepW-56" style="shape=connector;rounded=0;orthogonalLoop=1;jettySize=auto;html=1;exitX=1;exitY=1;exitDx=0;exitDy=0;entryX=0.25;entryY=0;entryDx=0;entryDy=0;strokeColor=default;align=center;verticalAlign=middle;fontFamily=Helvetica;fontSize=11;fontColor=default;labelBackgroundColor=default;startFill=0;endArrow=none;" edge="1" parent="1" source="ezjH-i5-pDRoHfl9tepW-55" target="ezjH-i5-pDRoHfl9tepW-18">
          <mxGeometry relative="1" as="geometry" />
        </mxCell>
        <mxCell id="ezjH-i5-pDRoHfl9tepW-55" value="modification_date" style="ellipse;whiteSpace=wrap;html=1;align=center;fillColor=#dae8fc;strokeColor=#6c8ebf;" vertex="1" parent="1">
          <mxGeometry x="210" y="556" width="105" height="40" as="geometry" />
        </mxCell>
        <mxCell id="ezjH-i5-pDRoHfl9tepW-60" value="creator" style="ellipse;whiteSpace=wrap;html=1;align=center;fillColor=#dae8fc;strokeColor=#6c8ebf;" vertex="1" parent="1">
          <mxGeometry x="510" y="494" width="70" height="40" as="geometry" />
        </mxCell>
        <mxCell id="ezjH-i5-pDRoHfl9tepW-66" style="shape=connector;rounded=0;orthogonalLoop=1;jettySize=auto;html=1;exitX=0;exitY=0.5;exitDx=0;exitDy=0;entryX=1;entryY=0.5;entryDx=0;entryDy=0;strokeColor=default;align=center;verticalAlign=middle;fontFamily=Helvetica;fontSize=11;fontColor=default;labelBackgroundColor=default;startFill=0;endArrow=none;" edge="1" parent="1" source="ezjH-i5-pDRoHfl9tepW-61" target="3t429b_SGeL65_ukOjDj-427">
          <mxGeometry relative="1" as="geometry" />
        </mxCell>
        <mxCell id="ezjH-i5-pDRoHfl9tepW-61" value="creation_date" style="ellipse;whiteSpace=wrap;html=1;align=center;fillColor=#dae8fc;strokeColor=#6c8ebf;" vertex="1" parent="1">
          <mxGeometry x="505" y="537" width="80" height="40" as="geometry" />
        </mxCell>
        <mxCell id="ezjH-i5-pDRoHfl9tepW-65" style="shape=connector;rounded=0;orthogonalLoop=1;jettySize=auto;html=1;exitX=0;exitY=1;exitDx=0;exitDy=0;entryX=0.75;entryY=0;entryDx=0;entryDy=0;strokeColor=default;align=center;verticalAlign=middle;fontFamily=Helvetica;fontSize=11;fontColor=default;labelBackgroundColor=default;startFill=0;endArrow=none;" edge="1" parent="1" source="ezjH-i5-pDRoHfl9tepW-62" target="3t429b_SGeL65_ukOjDj-427">
          <mxGeometry relative="1" as="geometry" />
        </mxCell>
        <mxCell id="ezjH-i5-pDRoHfl9tepW-62" value="modifier" style="ellipse;whiteSpace=wrap;html=1;align=center;fillColor=#dae8fc;strokeColor=#6c8ebf;" vertex="1" parent="1">
          <mxGeometry x="345" y="479.5" width="70" height="30" as="geometry" />
        </mxCell>
        <mxCell id="ezjH-i5-pDRoHfl9tepW-64" style="shape=connector;rounded=0;orthogonalLoop=1;jettySize=auto;html=1;exitX=1;exitY=1;exitDx=0;exitDy=0;entryX=0.5;entryY=0;entryDx=0;entryDy=0;strokeColor=default;align=center;verticalAlign=middle;fontFamily=Helvetica;fontSize=11;fontColor=default;labelBackgroundColor=default;startFill=0;endArrow=none;" edge="1" parent="1" source="ezjH-i5-pDRoHfl9tepW-63" target="3t429b_SGeL65_ukOjDj-427">
          <mxGeometry relative="1" as="geometry" />
        </mxCell>
        <mxCell id="ezjH-i5-pDRoHfl9tepW-63" value="modification_date" style="ellipse;whiteSpace=wrap;html=1;align=center;fillColor=#dae8fc;strokeColor=#6c8ebf;" vertex="1" parent="1">
          <mxGeometry x="226" y="478" width="105" height="33" as="geometry" />
        </mxCell>
        <mxCell id="ezjH-i5-pDRoHfl9tepW-67" style="shape=connector;rounded=0;orthogonalLoop=1;jettySize=auto;html=1;exitX=0;exitY=1;exitDx=0;exitDy=0;strokeColor=default;align=center;verticalAlign=middle;fontFamily=Helvetica;fontSize=11;fontColor=default;labelBackgroundColor=default;startFill=0;endArrow=none;" edge="1" parent="1" source="ezjH-i5-pDRoHfl9tepW-60">
          <mxGeometry relative="1" as="geometry">
            <mxPoint x="380" y="529" as="targetPoint" />
          </mxGeometry>
        </mxCell>
        <mxCell id="ezjH-i5-pDRoHfl9tepW-74" style="shape=connector;rounded=0;orthogonalLoop=1;jettySize=auto;html=1;exitX=0;exitY=0.5;exitDx=0;exitDy=0;entryX=1;entryY=0.5;entryDx=0;entryDy=0;strokeColor=default;align=center;verticalAlign=middle;fontFamily=Helvetica;fontSize=11;fontColor=default;labelBackgroundColor=default;startFill=0;endArrow=none;" edge="1" parent="1" source="ezjH-i5-pDRoHfl9tepW-68" target="3t429b_SGeL65_ukOjDj-424">
          <mxGeometry relative="1" as="geometry" />
        </mxCell>
        <mxCell id="ezjH-i5-pDRoHfl9tepW-68" value="creator" style="ellipse;whiteSpace=wrap;html=1;align=center;fillColor=#dae8fc;strokeColor=#6c8ebf;" vertex="1" parent="1">
          <mxGeometry x="472" y="414" width="54" height="23" as="geometry" />
        </mxCell>
        <mxCell id="ezjH-i5-pDRoHfl9tepW-69" value="creation_date" style="ellipse;whiteSpace=wrap;html=1;align=center;fillColor=#dae8fc;strokeColor=#6c8ebf;" vertex="1" parent="1">
          <mxGeometry x="480" y="442" width="80" height="23" as="geometry" />
        </mxCell>
        <mxCell id="ezjH-i5-pDRoHfl9tepW-73" style="shape=connector;rounded=0;orthogonalLoop=1;jettySize=auto;html=1;exitX=0;exitY=1;exitDx=0;exitDy=0;entryX=0.75;entryY=0;entryDx=0;entryDy=0;strokeColor=default;align=center;verticalAlign=middle;fontFamily=Helvetica;fontSize=11;fontColor=default;labelBackgroundColor=default;startFill=0;endArrow=none;" edge="1" parent="1" source="ezjH-i5-pDRoHfl9tepW-70" target="3t429b_SGeL65_ukOjDj-424">
          <mxGeometry relative="1" as="geometry" />
        </mxCell>
        <mxCell id="ezjH-i5-pDRoHfl9tepW-70" value="modifier" style="ellipse;whiteSpace=wrap;html=1;align=center;fillColor=#dae8fc;strokeColor=#6c8ebf;" vertex="1" parent="1">
          <mxGeometry x="340" y="407" width="70" height="18" as="geometry" />
        </mxCell>
        <mxCell id="ezjH-i5-pDRoHfl9tepW-72" style="shape=connector;rounded=0;orthogonalLoop=1;jettySize=auto;html=1;exitX=1;exitY=1;exitDx=0;exitDy=0;entryX=0.5;entryY=0;entryDx=0;entryDy=0;strokeColor=default;align=center;verticalAlign=middle;fontFamily=Helvetica;fontSize=11;fontColor=default;labelBackgroundColor=default;startFill=0;endArrow=none;" edge="1" parent="1" source="ezjH-i5-pDRoHfl9tepW-71" target="3t429b_SGeL65_ukOjDj-424">
          <mxGeometry relative="1" as="geometry" />
        </mxCell>
        <mxCell id="ezjH-i5-pDRoHfl9tepW-71" value="modification_date" style="ellipse;whiteSpace=wrap;html=1;align=center;fillColor=#dae8fc;strokeColor=#6c8ebf;" vertex="1" parent="1">
          <mxGeometry x="229" y="405" width="105" height="25" as="geometry" />
        </mxCell>
        <mxCell id="ezjH-i5-pDRoHfl9tepW-75" style="shape=connector;rounded=0;orthogonalLoop=1;jettySize=auto;html=1;exitX=0;exitY=0.5;exitDx=0;exitDy=0;entryX=1;entryY=0.646;entryDx=0;entryDy=0;entryPerimeter=0;strokeColor=default;align=center;verticalAlign=middle;fontFamily=Helvetica;fontSize=11;fontColor=default;labelBackgroundColor=default;startFill=0;endArrow=none;" edge="1" parent="1" source="ezjH-i5-pDRoHfl9tepW-69" target="3t429b_SGeL65_ukOjDj-424">
          <mxGeometry relative="1" as="geometry" />
        </mxCell>
        <mxCell id="ezjH-i5-pDRoHfl9tepW-86" style="shape=connector;rounded=0;orthogonalLoop=1;jettySize=auto;html=1;entryX=0.5;entryY=1;entryDx=0;entryDy=0;strokeColor=default;align=center;verticalAlign=middle;fontFamily=Helvetica;fontSize=11;fontColor=default;labelBackgroundColor=default;startFill=0;endArrow=none;exitX=0.5;exitY=0;exitDx=0;exitDy=0;" edge="1" parent="1" source="ezjH-i5-pDRoHfl9tepW-76" target="3t429b_SGeL65_ukOjDj-499">
          <mxGeometry relative="1" as="geometry">
            <mxPoint x="500" y="760" as="sourcePoint" />
          </mxGeometry>
        </mxCell>
        <mxCell id="ezjH-i5-pDRoHfl9tepW-76" value="creator" style="ellipse;whiteSpace=wrap;html=1;align=center;fillColor=#dae8fc;strokeColor=#6c8ebf;" vertex="1" parent="1">
          <mxGeometry x="647.5" y="748.5" width="45.5" height="25" as="geometry" />
        </mxCell>
        <mxCell id="ezjH-i5-pDRoHfl9tepW-84" style="shape=connector;rounded=0;orthogonalLoop=1;jettySize=auto;html=1;exitX=0.5;exitY=0;exitDx=0;exitDy=0;entryX=0;entryY=1;entryDx=0;entryDy=0;strokeColor=default;align=center;verticalAlign=middle;fontFamily=Helvetica;fontSize=11;fontColor=default;labelBackgroundColor=default;startFill=0;endArrow=none;" edge="1" parent="1" source="ezjH-i5-pDRoHfl9tepW-77" target="3t429b_SGeL65_ukOjDj-499">
          <mxGeometry relative="1" as="geometry" />
        </mxCell>
        <mxCell id="ezjH-i5-pDRoHfl9tepW-77" value="creation_date" style="ellipse;whiteSpace=wrap;html=1;align=center;fillColor=#dae8fc;strokeColor=#6c8ebf;" vertex="1" parent="1">
          <mxGeometry x="550.25" y="744.75" width="80" height="25" as="geometry" />
        </mxCell>
        <mxCell id="ezjH-i5-pDRoHfl9tepW-85" style="shape=connector;rounded=0;orthogonalLoop=1;jettySize=auto;html=1;exitX=0.5;exitY=0;exitDx=0;exitDy=0;entryX=0.25;entryY=1;entryDx=0;entryDy=0;strokeColor=default;align=center;verticalAlign=middle;fontFamily=Helvetica;fontSize=11;fontColor=default;labelBackgroundColor=default;startFill=0;endArrow=none;" edge="1" parent="1" source="ezjH-i5-pDRoHfl9tepW-78" target="3t429b_SGeL65_ukOjDj-499">
          <mxGeometry relative="1" as="geometry" />
        </mxCell>
        <mxCell id="ezjH-i5-pDRoHfl9tepW-78" value="modifier" style="ellipse;whiteSpace=wrap;html=1;align=center;fillColor=#dae8fc;strokeColor=#6c8ebf;" vertex="1" parent="1">
          <mxGeometry x="600.75" y="778.5" width="55" height="20" as="geometry" />
        </mxCell>
        <mxCell id="ezjH-i5-pDRoHfl9tepW-228" style="shape=connector;rounded=0;orthogonalLoop=1;jettySize=auto;html=1;exitX=1;exitY=0;exitDx=0;exitDy=0;entryX=0.75;entryY=1;entryDx=0;entryDy=0;strokeColor=default;align=center;verticalAlign=middle;fontFamily=Helvetica;fontSize=11;fontColor=default;labelBackgroundColor=default;startFill=0;endArrow=none;" edge="1" parent="1" source="ezjH-i5-pDRoHfl9tepW-79" target="3t429b_SGeL65_ukOjDj-499">
          <mxGeometry relative="1" as="geometry" />
        </mxCell>
        <mxCell id="ezjH-i5-pDRoHfl9tepW-79" value="modification_date" style="ellipse;whiteSpace=wrap;html=1;align=center;fillColor=#dae8fc;strokeColor=#6c8ebf;" vertex="1" parent="1">
          <mxGeometry x="605.25" y="826" width="105" height="25" as="geometry" />
        </mxCell>
        <mxCell id="ezjH-i5-pDRoHfl9tepW-94" style="shape=connector;rounded=0;orthogonalLoop=1;jettySize=auto;html=1;exitX=0;exitY=0;exitDx=0;exitDy=0;entryX=1;entryY=0.75;entryDx=0;entryDy=0;strokeColor=default;align=center;verticalAlign=middle;fontFamily=Helvetica;fontSize=11;fontColor=default;labelBackgroundColor=default;startFill=0;endArrow=none;" edge="1" parent="1" source="ezjH-i5-pDRoHfl9tepW-88" target="3t429b_SGeL65_ukOjDj-493">
          <mxGeometry relative="1" as="geometry" />
        </mxCell>
        <mxCell id="ezjH-i5-pDRoHfl9tepW-88" value="creator" style="ellipse;whiteSpace=wrap;html=1;align=center;fillColor=#dae8fc;strokeColor=#6c8ebf;" vertex="1" parent="1">
          <mxGeometry x="248.25" y="725" width="45.5" height="25" as="geometry" />
        </mxCell>
        <mxCell id="ezjH-i5-pDRoHfl9tepW-92" style="shape=connector;rounded=0;orthogonalLoop=1;jettySize=auto;html=1;exitX=1;exitY=0;exitDx=0;exitDy=0;entryX=0;entryY=0.75;entryDx=0;entryDy=0;strokeColor=default;align=center;verticalAlign=middle;fontFamily=Helvetica;fontSize=11;fontColor=default;labelBackgroundColor=default;startFill=0;endArrow=none;" edge="1" parent="1" source="ezjH-i5-pDRoHfl9tepW-89" target="3t429b_SGeL65_ukOjDj-493">
          <mxGeometry relative="1" as="geometry" />
        </mxCell>
        <mxCell id="ezjH-i5-pDRoHfl9tepW-89" value="creation_date" style="ellipse;whiteSpace=wrap;html=1;align=center;fillColor=#dae8fc;strokeColor=#6c8ebf;" vertex="1" parent="1">
          <mxGeometry x="55" y="713.75" width="80" height="25" as="geometry" />
        </mxCell>
        <mxCell id="ezjH-i5-pDRoHfl9tepW-93" style="shape=connector;rounded=0;orthogonalLoop=1;jettySize=auto;html=1;exitX=0.5;exitY=0;exitDx=0;exitDy=0;entryX=0;entryY=1;entryDx=0;entryDy=0;strokeColor=default;align=center;verticalAlign=middle;fontFamily=Helvetica;fontSize=11;fontColor=default;labelBackgroundColor=default;startFill=0;endArrow=none;" edge="1" parent="1" source="ezjH-i5-pDRoHfl9tepW-90" target="3t429b_SGeL65_ukOjDj-493">
          <mxGeometry relative="1" as="geometry" />
        </mxCell>
        <mxCell id="ezjH-i5-pDRoHfl9tepW-90" value="modifier" style="ellipse;whiteSpace=wrap;html=1;align=center;fillColor=#dae8fc;strokeColor=#6c8ebf;" vertex="1" parent="1">
          <mxGeometry x="105" y="752.5" width="55" height="20" as="geometry" />
        </mxCell>
        <mxCell id="ezjH-i5-pDRoHfl9tepW-95" style="shape=connector;rounded=0;orthogonalLoop=1;jettySize=auto;html=1;exitX=0.5;exitY=0;exitDx=0;exitDy=0;entryX=0.75;entryY=1;entryDx=0;entryDy=0;strokeColor=default;align=center;verticalAlign=middle;fontFamily=Helvetica;fontSize=11;fontColor=default;labelBackgroundColor=default;startFill=0;endArrow=none;" edge="1" parent="1" source="ezjH-i5-pDRoHfl9tepW-91" target="3t429b_SGeL65_ukOjDj-493">
          <mxGeometry relative="1" as="geometry" />
        </mxCell>
        <mxCell id="ezjH-i5-pDRoHfl9tepW-91" value="modification_date" style="ellipse;whiteSpace=wrap;html=1;align=center;fillColor=#dae8fc;strokeColor=#6c8ebf;" vertex="1" parent="1">
          <mxGeometry x="208.5" y="767.5" width="105" height="25" as="geometry" />
        </mxCell>
        <mxCell id="ezjH-i5-pDRoHfl9tepW-106" style="shape=connector;rounded=0;orthogonalLoop=1;jettySize=auto;html=1;exitX=1;exitY=0.5;exitDx=0;exitDy=0;entryX=0;entryY=0.5;entryDx=0;entryDy=0;strokeColor=default;align=center;verticalAlign=middle;fontFamily=Helvetica;fontSize=11;fontColor=default;labelBackgroundColor=default;startFill=0;endArrow=none;" edge="1" parent="1" source="ezjH-i5-pDRoHfl9tepW-96" target="3t429b_SGeL65_ukOjDj-498">
          <mxGeometry relative="1" as="geometry" />
        </mxCell>
        <mxCell id="ezjH-i5-pDRoHfl9tepW-96" value="creator" style="ellipse;whiteSpace=wrap;html=1;align=center;fillColor=#dae8fc;strokeColor=#6c8ebf;" vertex="1" parent="1">
          <mxGeometry x="-260" y="692.5" width="45.5" height="25" as="geometry" />
        </mxCell>
        <mxCell id="ezjH-i5-pDRoHfl9tepW-101" style="shape=connector;rounded=0;orthogonalLoop=1;jettySize=auto;html=1;exitX=0.5;exitY=1;exitDx=0;exitDy=0;entryX=0;entryY=0;entryDx=0;entryDy=0;strokeColor=default;align=center;verticalAlign=middle;fontFamily=Helvetica;fontSize=11;fontColor=default;labelBackgroundColor=default;startFill=0;endArrow=none;" edge="1" parent="1" source="ezjH-i5-pDRoHfl9tepW-97" target="3t429b_SGeL65_ukOjDj-498">
          <mxGeometry relative="1" as="geometry" />
        </mxCell>
        <mxCell id="ezjH-i5-pDRoHfl9tepW-97" value="creation_date" style="ellipse;whiteSpace=wrap;html=1;align=center;fillColor=#dae8fc;strokeColor=#6c8ebf;" vertex="1" parent="1">
          <mxGeometry x="-236" y="626" width="80" height="25" as="geometry" />
        </mxCell>
        <mxCell id="ezjH-i5-pDRoHfl9tepW-105" style="shape=connector;rounded=0;orthogonalLoop=1;jettySize=auto;html=1;exitX=0.5;exitY=1;exitDx=0;exitDy=0;entryX=0.75;entryY=0;entryDx=0;entryDy=0;strokeColor=default;align=center;verticalAlign=middle;fontFamily=Helvetica;fontSize=11;fontColor=default;labelBackgroundColor=default;startFill=0;endArrow=none;" edge="1" parent="1" source="ezjH-i5-pDRoHfl9tepW-98" target="3t429b_SGeL65_ukOjDj-498">
          <mxGeometry relative="1" as="geometry" />
        </mxCell>
        <mxCell id="ezjH-i5-pDRoHfl9tepW-98" value="modifier" style="ellipse;whiteSpace=wrap;html=1;align=center;fillColor=#dae8fc;strokeColor=#6c8ebf;" vertex="1" parent="1">
          <mxGeometry x="-134" y="626" width="55" height="20" as="geometry" />
        </mxCell>
        <mxCell id="ezjH-i5-pDRoHfl9tepW-104" style="shape=connector;rounded=0;orthogonalLoop=1;jettySize=auto;html=1;exitX=0;exitY=0;exitDx=0;exitDy=0;entryX=0.75;entryY=1;entryDx=0;entryDy=0;strokeColor=default;align=center;verticalAlign=middle;fontFamily=Helvetica;fontSize=11;fontColor=default;labelBackgroundColor=default;startFill=0;endArrow=none;" edge="1" parent="1" source="ezjH-i5-pDRoHfl9tepW-99" target="3t429b_SGeL65_ukOjDj-498">
          <mxGeometry relative="1" as="geometry" />
        </mxCell>
        <mxCell id="ezjH-i5-pDRoHfl9tepW-99" value="modification_date" style="ellipse;whiteSpace=wrap;html=1;align=center;fillColor=#dae8fc;strokeColor=#6c8ebf;" vertex="1" parent="1">
          <mxGeometry x="-120" y="738.75" width="105" height="25" as="geometry" />
        </mxCell>
        <mxCell id="ezjH-i5-pDRoHfl9tepW-114" style="shape=connector;rounded=0;orthogonalLoop=1;jettySize=auto;html=1;exitX=1;exitY=0.5;exitDx=0;exitDy=0;entryX=0;entryY=0.5;entryDx=0;entryDy=0;strokeColor=default;align=center;verticalAlign=middle;fontFamily=Helvetica;fontSize=11;fontColor=default;labelBackgroundColor=default;startFill=0;endArrow=none;" edge="1" parent="1" source="ezjH-i5-pDRoHfl9tepW-107" target="3t429b_SGeL65_ukOjDj-539">
          <mxGeometry relative="1" as="geometry" />
        </mxCell>
        <mxCell id="ezjH-i5-pDRoHfl9tepW-107" value="creator" style="ellipse;whiteSpace=wrap;html=1;align=center;fillColor=#dae8fc;strokeColor=#6c8ebf;" vertex="1" parent="1">
          <mxGeometry x="-96" y="860" width="45.5" height="25" as="geometry" />
        </mxCell>
        <mxCell id="ezjH-i5-pDRoHfl9tepW-113" style="shape=connector;rounded=0;orthogonalLoop=1;jettySize=auto;html=1;exitX=0.5;exitY=1;exitDx=0;exitDy=0;entryX=0;entryY=0;entryDx=0;entryDy=0;strokeColor=default;align=center;verticalAlign=middle;fontFamily=Helvetica;fontSize=11;fontColor=default;labelBackgroundColor=default;startFill=0;endArrow=none;" edge="1" parent="1" source="ezjH-i5-pDRoHfl9tepW-108" target="3t429b_SGeL65_ukOjDj-539">
          <mxGeometry relative="1" as="geometry" />
        </mxCell>
        <mxCell id="ezjH-i5-pDRoHfl9tepW-108" value="creation_date" style="ellipse;whiteSpace=wrap;html=1;align=center;fillColor=#dae8fc;strokeColor=#6c8ebf;" vertex="1" parent="1">
          <mxGeometry x="-76" y="800" width="80" height="25" as="geometry" />
        </mxCell>
        <mxCell id="ezjH-i5-pDRoHfl9tepW-115" style="shape=connector;rounded=0;orthogonalLoop=1;jettySize=auto;html=1;exitX=0;exitY=0;exitDx=0;exitDy=0;entryX=1;entryY=0.5;entryDx=0;entryDy=0;strokeColor=default;align=center;verticalAlign=middle;fontFamily=Helvetica;fontSize=11;fontColor=default;labelBackgroundColor=default;startFill=0;endArrow=none;" edge="1" parent="1" source="ezjH-i5-pDRoHfl9tepW-109" target="3t429b_SGeL65_ukOjDj-539">
          <mxGeometry relative="1" as="geometry" />
        </mxCell>
        <mxCell id="ezjH-i5-pDRoHfl9tepW-109" value="modifier" style="ellipse;whiteSpace=wrap;html=1;align=center;fillColor=#dae8fc;strokeColor=#6c8ebf;" vertex="1" parent="1">
          <mxGeometry x="95" y="860" width="55" height="20" as="geometry" />
        </mxCell>
        <mxCell id="ezjH-i5-pDRoHfl9tepW-111" style="shape=connector;rounded=0;orthogonalLoop=1;jettySize=auto;html=1;exitX=0.5;exitY=1;exitDx=0;exitDy=0;entryX=1;entryY=0;entryDx=0;entryDy=0;strokeColor=default;align=center;verticalAlign=middle;fontFamily=Helvetica;fontSize=11;fontColor=default;labelBackgroundColor=default;startFill=0;endArrow=none;" edge="1" parent="1" source="ezjH-i5-pDRoHfl9tepW-110" target="3t429b_SGeL65_ukOjDj-539">
          <mxGeometry relative="1" as="geometry" />
        </mxCell>
        <mxCell id="ezjH-i5-pDRoHfl9tepW-110" value="modification_date" style="ellipse;whiteSpace=wrap;html=1;align=center;fillColor=#dae8fc;strokeColor=#6c8ebf;" vertex="1" parent="1">
          <mxGeometry x="55" y="787.5" width="105" height="25" as="geometry" />
        </mxCell>
        <mxCell id="ezjH-i5-pDRoHfl9tepW-122" style="shape=connector;rounded=0;orthogonalLoop=1;jettySize=auto;html=1;exitX=0.5;exitY=1;exitDx=0;exitDy=0;entryX=0.25;entryY=0;entryDx=0;entryDy=0;strokeColor=default;align=center;verticalAlign=middle;fontFamily=Helvetica;fontSize=11;fontColor=default;labelBackgroundColor=default;startFill=0;endArrow=none;" edge="1" parent="1" source="ezjH-i5-pDRoHfl9tepW-116" target="3t429b_SGeL65_ukOjDj-519">
          <mxGeometry relative="1" as="geometry" />
        </mxCell>
        <mxCell id="ezjH-i5-pDRoHfl9tepW-116" value="creator" style="ellipse;whiteSpace=wrap;html=1;align=center;fillColor=#dae8fc;strokeColor=#6c8ebf;" vertex="1" parent="1">
          <mxGeometry x="-395" y="680" width="45.5" height="25" as="geometry" />
        </mxCell>
        <mxCell id="ezjH-i5-pDRoHfl9tepW-120" style="shape=connector;rounded=0;orthogonalLoop=1;jettySize=auto;html=1;exitX=0;exitY=0;exitDx=0;exitDy=0;entryX=0.75;entryY=1;entryDx=0;entryDy=0;strokeColor=default;align=center;verticalAlign=middle;fontFamily=Helvetica;fontSize=11;fontColor=default;labelBackgroundColor=default;startFill=0;endArrow=none;" edge="1" parent="1" source="ezjH-i5-pDRoHfl9tepW-117" target="3t429b_SGeL65_ukOjDj-519">
          <mxGeometry relative="1" as="geometry" />
        </mxCell>
        <mxCell id="ezjH-i5-pDRoHfl9tepW-117" value="creation_date" style="ellipse;whiteSpace=wrap;html=1;align=center;fillColor=#dae8fc;strokeColor=#6c8ebf;" vertex="1" parent="1">
          <mxGeometry x="-277.25" y="800" width="80" height="25" as="geometry" />
        </mxCell>
        <mxCell id="ezjH-i5-pDRoHfl9tepW-121" style="shape=connector;rounded=0;orthogonalLoop=1;jettySize=auto;html=1;exitX=0;exitY=0.5;exitDx=0;exitDy=0;entryX=1;entryY=0.75;entryDx=0;entryDy=0;strokeColor=default;align=center;verticalAlign=middle;fontFamily=Helvetica;fontSize=11;fontColor=default;labelBackgroundColor=default;startFill=0;endArrow=none;" edge="1" parent="1" source="ezjH-i5-pDRoHfl9tepW-118" target="3t429b_SGeL65_ukOjDj-519">
          <mxGeometry relative="1" as="geometry" />
        </mxCell>
        <mxCell id="ezjH-i5-pDRoHfl9tepW-118" value="modifier" style="ellipse;whiteSpace=wrap;html=1;align=center;fillColor=#dae8fc;strokeColor=#6c8ebf;" vertex="1" parent="1">
          <mxGeometry x="-236" y="753.75" width="55" height="20" as="geometry" />
        </mxCell>
        <mxCell id="ezjH-i5-pDRoHfl9tepW-123" style="shape=connector;rounded=0;orthogonalLoop=1;jettySize=auto;html=1;exitX=1;exitY=0;exitDx=0;exitDy=0;entryX=0.25;entryY=1;entryDx=0;entryDy=0;strokeColor=default;align=center;verticalAlign=middle;fontFamily=Helvetica;fontSize=11;fontColor=default;labelBackgroundColor=default;startFill=0;endArrow=none;" edge="1" parent="1" source="ezjH-i5-pDRoHfl9tepW-119" target="3t429b_SGeL65_ukOjDj-519">
          <mxGeometry relative="1" as="geometry" />
        </mxCell>
        <mxCell id="ezjH-i5-pDRoHfl9tepW-119" value="modification_date" style="ellipse;whiteSpace=wrap;html=1;align=center;fillColor=#dae8fc;strokeColor=#6c8ebf;" vertex="1" parent="1">
          <mxGeometry x="-455" y="825" width="105" height="25" as="geometry" />
        </mxCell>
        <mxCell id="ezjH-i5-pDRoHfl9tepW-131" style="shape=connector;rounded=0;orthogonalLoop=1;jettySize=auto;html=1;exitX=1;exitY=0;exitDx=0;exitDy=0;entryX=0;entryY=0.75;entryDx=0;entryDy=0;strokeColor=default;align=center;verticalAlign=middle;fontFamily=Helvetica;fontSize=11;fontColor=default;labelBackgroundColor=default;startFill=0;endArrow=none;" edge="1" parent="1" source="ezjH-i5-pDRoHfl9tepW-124" target="3t429b_SGeL65_ukOjDj-461">
          <mxGeometry relative="1" as="geometry" />
        </mxCell>
        <mxCell id="ezjH-i5-pDRoHfl9tepW-124" value="creator" style="ellipse;whiteSpace=wrap;html=1;align=center;fillColor=#dae8fc;strokeColor=#6c8ebf;" vertex="1" parent="1">
          <mxGeometry x="-425" y="525" width="45.5" height="25" as="geometry" />
        </mxCell>
        <mxCell id="ezjH-i5-pDRoHfl9tepW-130" style="shape=connector;rounded=0;orthogonalLoop=1;jettySize=auto;html=1;exitX=1;exitY=0;exitDx=0;exitDy=0;entryX=0.25;entryY=1;entryDx=0;entryDy=0;strokeColor=default;align=center;verticalAlign=middle;fontFamily=Helvetica;fontSize=11;fontColor=default;labelBackgroundColor=default;startFill=0;endArrow=none;" edge="1" parent="1" source="ezjH-i5-pDRoHfl9tepW-125" target="3t429b_SGeL65_ukOjDj-461">
          <mxGeometry relative="1" as="geometry" />
        </mxCell>
        <mxCell id="ezjH-i5-pDRoHfl9tepW-125" value="creation_date" style="ellipse;whiteSpace=wrap;html=1;align=center;fillColor=#dae8fc;strokeColor=#6c8ebf;" vertex="1" parent="1">
          <mxGeometry x="-410" y="566" width="85" height="23" as="geometry" />
        </mxCell>
        <mxCell id="ezjH-i5-pDRoHfl9tepW-129" style="shape=connector;rounded=0;orthogonalLoop=1;jettySize=auto;html=1;exitX=0.5;exitY=0;exitDx=0;exitDy=0;entryX=0.75;entryY=1;entryDx=0;entryDy=0;strokeColor=default;align=center;verticalAlign=middle;fontFamily=Helvetica;fontSize=11;fontColor=default;labelBackgroundColor=default;startFill=0;endArrow=none;" edge="1" parent="1" source="ezjH-i5-pDRoHfl9tepW-126" target="3t429b_SGeL65_ukOjDj-461">
          <mxGeometry relative="1" as="geometry" />
        </mxCell>
        <mxCell id="ezjH-i5-pDRoHfl9tepW-126" value="modifier" style="ellipse;whiteSpace=wrap;html=1;align=center;fillColor=#dae8fc;strokeColor=#6c8ebf;" vertex="1" parent="1">
          <mxGeometry x="-295" y="566" width="55" height="20" as="geometry" />
        </mxCell>
        <mxCell id="ezjH-i5-pDRoHfl9tepW-128" style="shape=connector;rounded=0;orthogonalLoop=1;jettySize=auto;html=1;exitX=0;exitY=0;exitDx=0;exitDy=0;entryX=1;entryY=0.75;entryDx=0;entryDy=0;strokeColor=default;align=center;verticalAlign=middle;fontFamily=Helvetica;fontSize=11;fontColor=default;labelBackgroundColor=default;startFill=0;endArrow=none;" edge="1" parent="1" source="ezjH-i5-pDRoHfl9tepW-127" target="3t429b_SGeL65_ukOjDj-461">
          <mxGeometry relative="1" as="geometry" />
        </mxCell>
        <mxCell id="ezjH-i5-pDRoHfl9tepW-127" value="modification_date" style="ellipse;whiteSpace=wrap;html=1;align=center;fillColor=#dae8fc;strokeColor=#6c8ebf;" vertex="1" parent="1">
          <mxGeometry x="-260" y="528" width="105" height="25" as="geometry" />
        </mxCell>
        <mxCell id="ezjH-i5-pDRoHfl9tepW-139" style="shape=connector;rounded=0;orthogonalLoop=1;jettySize=auto;html=1;exitX=0.5;exitY=1;exitDx=0;exitDy=0;entryX=0.5;entryY=0;entryDx=0;entryDy=0;strokeColor=default;align=center;verticalAlign=middle;fontFamily=Helvetica;fontSize=11;fontColor=default;labelBackgroundColor=default;startFill=0;endArrow=none;" edge="1" parent="1" source="ezjH-i5-pDRoHfl9tepW-132" target="3t429b_SGeL65_ukOjDj-457">
          <mxGeometry relative="1" as="geometry" />
        </mxCell>
        <mxCell id="ezjH-i5-pDRoHfl9tepW-132" value="creator" style="ellipse;whiteSpace=wrap;html=1;align=center;fillColor=#dae8fc;strokeColor=#6c8ebf;" vertex="1" parent="1">
          <mxGeometry x="-590.5" y="355" width="45.5" height="25" as="geometry" />
        </mxCell>
        <mxCell id="ezjH-i5-pDRoHfl9tepW-138" style="shape=connector;rounded=0;orthogonalLoop=1;jettySize=auto;html=1;exitX=0.5;exitY=1;exitDx=0;exitDy=0;entryX=0.25;entryY=0;entryDx=0;entryDy=0;strokeColor=default;align=center;verticalAlign=middle;fontFamily=Helvetica;fontSize=11;fontColor=default;labelBackgroundColor=default;startFill=0;endArrow=none;" edge="1" parent="1" source="ezjH-i5-pDRoHfl9tepW-133" target="3t429b_SGeL65_ukOjDj-457">
          <mxGeometry relative="1" as="geometry" />
        </mxCell>
        <mxCell id="ezjH-i5-pDRoHfl9tepW-133" value="creation_date" style="ellipse;whiteSpace=wrap;html=1;align=center;fillColor=#dae8fc;strokeColor=#6c8ebf;" vertex="1" parent="1">
          <mxGeometry x="-675" y="382" width="80" height="25" as="geometry" />
        </mxCell>
        <mxCell id="ezjH-i5-pDRoHfl9tepW-136" style="shape=connector;rounded=0;orthogonalLoop=1;jettySize=auto;html=1;exitX=0.5;exitY=0;exitDx=0;exitDy=0;entryX=0;entryY=1;entryDx=0;entryDy=0;strokeColor=default;align=center;verticalAlign=middle;fontFamily=Helvetica;fontSize=11;fontColor=default;labelBackgroundColor=default;startFill=0;endArrow=none;" edge="1" parent="1" source="ezjH-i5-pDRoHfl9tepW-134" target="3t429b_SGeL65_ukOjDj-457">
          <mxGeometry relative="1" as="geometry" />
        </mxCell>
        <mxCell id="ezjH-i5-pDRoHfl9tepW-134" value="modifier" style="ellipse;whiteSpace=wrap;html=1;align=center;fillColor=#dae8fc;strokeColor=#6c8ebf;" vertex="1" parent="1">
          <mxGeometry x="-662.5" y="498" width="55" height="20" as="geometry" />
        </mxCell>
        <mxCell id="ezjH-i5-pDRoHfl9tepW-137" style="shape=connector;rounded=0;orthogonalLoop=1;jettySize=auto;html=1;exitX=0.5;exitY=0;exitDx=0;exitDy=0;entryX=0.5;entryY=1;entryDx=0;entryDy=0;strokeColor=default;align=center;verticalAlign=middle;fontFamily=Helvetica;fontSize=11;fontColor=default;labelBackgroundColor=default;startFill=0;endArrow=none;" edge="1" parent="1" source="ezjH-i5-pDRoHfl9tepW-135" target="3t429b_SGeL65_ukOjDj-457">
          <mxGeometry relative="1" as="geometry" />
        </mxCell>
        <mxCell id="ezjH-i5-pDRoHfl9tepW-135" value="modification_date" style="ellipse;whiteSpace=wrap;html=1;align=center;fillColor=#dae8fc;strokeColor=#6c8ebf;" vertex="1" parent="1">
          <mxGeometry x="-620" y="525" width="105" height="25" as="geometry" />
        </mxCell>
        <mxCell id="ezjH-i5-pDRoHfl9tepW-140" value="creator" style="ellipse;whiteSpace=wrap;html=1;align=center;fillColor=#dae8fc;strokeColor=#6c8ebf;" vertex="1" parent="1">
          <mxGeometry x="-297.75" y="312" width="45.5" height="25" as="geometry" />
        </mxCell>
        <mxCell id="ezjH-i5-pDRoHfl9tepW-145" style="shape=connector;rounded=0;orthogonalLoop=1;jettySize=auto;html=1;exitX=1;exitY=1;exitDx=0;exitDy=0;entryX=0;entryY=0.25;entryDx=0;entryDy=0;strokeColor=default;align=center;verticalAlign=middle;fontFamily=Helvetica;fontSize=11;fontColor=default;labelBackgroundColor=default;startFill=0;endArrow=none;" edge="1" parent="1" source="ezjH-i5-pDRoHfl9tepW-141" target="3t429b_SGeL65_ukOjDj-456">
          <mxGeometry relative="1" as="geometry" />
        </mxCell>
        <mxCell id="ezjH-i5-pDRoHfl9tepW-141" value="creation_date" style="ellipse;whiteSpace=wrap;html=1;align=center;fillColor=#dae8fc;strokeColor=#6c8ebf;" vertex="1" parent="1">
          <mxGeometry x="-442.5" y="345" width="80" height="25" as="geometry" />
        </mxCell>
        <mxCell id="ezjH-i5-pDRoHfl9tepW-146" style="shape=connector;rounded=0;orthogonalLoop=1;jettySize=auto;html=1;exitX=0.5;exitY=1;exitDx=0;exitDy=0;entryX=0.5;entryY=0;entryDx=0;entryDy=0;strokeColor=default;align=center;verticalAlign=middle;fontFamily=Helvetica;fontSize=11;fontColor=default;labelBackgroundColor=default;startFill=0;endArrow=none;" edge="1" parent="1" source="ezjH-i5-pDRoHfl9tepW-142" target="3t429b_SGeL65_ukOjDj-456">
          <mxGeometry relative="1" as="geometry" />
        </mxCell>
        <mxCell id="ezjH-i5-pDRoHfl9tepW-142" value="modifier" style="ellipse;whiteSpace=wrap;html=1;align=center;fillColor=#dae8fc;strokeColor=#6c8ebf;" vertex="1" parent="1">
          <mxGeometry x="-349.5" y="289" width="55" height="20" as="geometry" />
        </mxCell>
        <mxCell id="ezjH-i5-pDRoHfl9tepW-147" style="shape=connector;rounded=0;orthogonalLoop=1;jettySize=auto;html=1;exitX=0;exitY=1;exitDx=0;exitDy=0;entryX=1;entryY=0.25;entryDx=0;entryDy=0;strokeColor=default;align=center;verticalAlign=middle;fontFamily=Helvetica;fontSize=11;fontColor=default;labelBackgroundColor=default;startFill=0;endArrow=none;" edge="1" parent="1" source="ezjH-i5-pDRoHfl9tepW-143" target="3t429b_SGeL65_ukOjDj-456">
          <mxGeometry relative="1" as="geometry" />
        </mxCell>
        <mxCell id="ezjH-i5-pDRoHfl9tepW-143" value="modification_date" style="ellipse;whiteSpace=wrap;html=1;align=center;fillColor=#dae8fc;strokeColor=#6c8ebf;" vertex="1" parent="1">
          <mxGeometry x="-250" y="338" width="105" height="25" as="geometry" />
        </mxCell>
        <mxCell id="ezjH-i5-pDRoHfl9tepW-148" style="shape=connector;rounded=0;orthogonalLoop=1;jettySize=auto;html=1;exitX=0;exitY=1;exitDx=0;exitDy=0;entryX=0.62;entryY=-0.007;entryDx=0;entryDy=0;entryPerimeter=0;strokeColor=default;align=center;verticalAlign=middle;fontFamily=Helvetica;fontSize=11;fontColor=default;labelBackgroundColor=default;startFill=0;endArrow=none;" edge="1" parent="1" source="ezjH-i5-pDRoHfl9tepW-140" target="3t429b_SGeL65_ukOjDj-456">
          <mxGeometry relative="1" as="geometry" />
        </mxCell>
        <mxCell id="ezjH-i5-pDRoHfl9tepW-154" style="shape=connector;rounded=0;orthogonalLoop=1;jettySize=auto;html=1;exitX=1;exitY=1;exitDx=0;exitDy=0;entryX=0.25;entryY=0;entryDx=0;entryDy=0;strokeColor=default;align=center;verticalAlign=middle;fontFamily=Helvetica;fontSize=11;fontColor=default;labelBackgroundColor=default;startFill=0;endArrow=none;" edge="1" parent="1" source="ezjH-i5-pDRoHfl9tepW-149" target="3t429b_SGeL65_ukOjDj-550">
          <mxGeometry relative="1" as="geometry" />
        </mxCell>
        <mxCell id="ezjH-i5-pDRoHfl9tepW-149" value="creator" style="ellipse;whiteSpace=wrap;html=1;align=center;fillColor=#dae8fc;strokeColor=#6c8ebf;" vertex="1" parent="1">
          <mxGeometry x="-41.5" y="950" width="45.5" height="25" as="geometry" />
        </mxCell>
        <mxCell id="ezjH-i5-pDRoHfl9tepW-153" style="shape=connector;rounded=0;orthogonalLoop=1;jettySize=auto;html=1;exitX=1;exitY=1;exitDx=0;exitDy=0;entryX=0;entryY=0;entryDx=0;entryDy=0;strokeColor=default;align=center;verticalAlign=middle;fontFamily=Helvetica;fontSize=11;fontColor=default;labelBackgroundColor=default;startFill=0;endArrow=none;" edge="1" parent="1" source="ezjH-i5-pDRoHfl9tepW-150" target="3t429b_SGeL65_ukOjDj-550">
          <mxGeometry relative="1" as="geometry" />
        </mxCell>
        <mxCell id="ezjH-i5-pDRoHfl9tepW-150" value="creation_date" style="ellipse;whiteSpace=wrap;html=1;align=center;fillColor=#dae8fc;strokeColor=#6c8ebf;" vertex="1" parent="1">
          <mxGeometry x="-100" y="975" width="80" height="25" as="geometry" />
        </mxCell>
        <mxCell id="ezjH-i5-pDRoHfl9tepW-155" style="shape=connector;rounded=0;orthogonalLoop=1;jettySize=auto;html=1;exitX=0;exitY=1;exitDx=0;exitDy=0;entryX=0.5;entryY=0;entryDx=0;entryDy=0;strokeColor=default;align=center;verticalAlign=middle;fontFamily=Helvetica;fontSize=11;fontColor=default;labelBackgroundColor=default;startFill=0;endArrow=none;" edge="1" parent="1" source="ezjH-i5-pDRoHfl9tepW-151" target="3t429b_SGeL65_ukOjDj-550">
          <mxGeometry relative="1" as="geometry" />
        </mxCell>
        <mxCell id="ezjH-i5-pDRoHfl9tepW-151" value="modifier" style="ellipse;whiteSpace=wrap;html=1;align=center;fillColor=#dae8fc;strokeColor=#6c8ebf;" vertex="1" parent="1">
          <mxGeometry x="5" y="945" width="55" height="20" as="geometry" />
        </mxCell>
        <mxCell id="ezjH-i5-pDRoHfl9tepW-156" style="shape=connector;rounded=0;orthogonalLoop=1;jettySize=auto;html=1;exitX=0.5;exitY=1;exitDx=0;exitDy=0;entryX=0.75;entryY=0;entryDx=0;entryDy=0;strokeColor=default;align=center;verticalAlign=middle;fontFamily=Helvetica;fontSize=11;fontColor=default;labelBackgroundColor=default;startFill=0;endArrow=none;" edge="1" parent="1" source="ezjH-i5-pDRoHfl9tepW-152" target="3t429b_SGeL65_ukOjDj-550">
          <mxGeometry relative="1" as="geometry" />
        </mxCell>
        <mxCell id="ezjH-i5-pDRoHfl9tepW-152" value="modification_date" style="ellipse;whiteSpace=wrap;html=1;align=center;fillColor=#dae8fc;strokeColor=#6c8ebf;" vertex="1" parent="1">
          <mxGeometry x="40" y="960" width="95" height="35" as="geometry" />
        </mxCell>
        <mxCell id="ezjH-i5-pDRoHfl9tepW-163" style="shape=connector;rounded=0;orthogonalLoop=1;jettySize=auto;html=1;exitX=0.5;exitY=1;exitDx=0;exitDy=0;entryX=0.5;entryY=0;entryDx=0;entryDy=0;strokeColor=default;align=center;verticalAlign=middle;fontFamily=Helvetica;fontSize=11;fontColor=default;labelBackgroundColor=default;startFill=0;endArrow=none;" edge="1" parent="1" source="ezjH-i5-pDRoHfl9tepW-157" target="3t429b_SGeL65_ukOjDj-564">
          <mxGeometry relative="1" as="geometry" />
        </mxCell>
        <mxCell id="ezjH-i5-pDRoHfl9tepW-157" value="creator" style="ellipse;whiteSpace=wrap;html=1;align=center;fillColor=#dae8fc;strokeColor=#6c8ebf;" vertex="1" parent="1">
          <mxGeometry x="368.5" y="925" width="45.5" height="25" as="geometry" />
        </mxCell>
        <mxCell id="ezjH-i5-pDRoHfl9tepW-161" style="shape=connector;rounded=0;orthogonalLoop=1;jettySize=auto;html=1;exitX=0.5;exitY=1;exitDx=0;exitDy=0;entryX=0;entryY=0;entryDx=0;entryDy=0;strokeColor=default;align=center;verticalAlign=middle;fontFamily=Helvetica;fontSize=11;fontColor=default;labelBackgroundColor=default;startFill=0;endArrow=none;" edge="1" parent="1" source="ezjH-i5-pDRoHfl9tepW-158" target="3t429b_SGeL65_ukOjDj-564">
          <mxGeometry relative="1" as="geometry" />
        </mxCell>
        <mxCell id="ezjH-i5-pDRoHfl9tepW-158" value="creation_date" style="ellipse;whiteSpace=wrap;html=1;align=center;fillColor=#dae8fc;strokeColor=#6c8ebf;" vertex="1" parent="1">
          <mxGeometry x="231" y="958" width="80" height="25" as="geometry" />
        </mxCell>
        <mxCell id="ezjH-i5-pDRoHfl9tepW-162" style="shape=connector;rounded=0;orthogonalLoop=1;jettySize=auto;html=1;exitX=0;exitY=1;exitDx=0;exitDy=0;entryX=0.25;entryY=0;entryDx=0;entryDy=0;strokeColor=default;align=center;verticalAlign=middle;fontFamily=Helvetica;fontSize=11;fontColor=default;labelBackgroundColor=default;startFill=0;endArrow=none;" edge="1" parent="1" source="ezjH-i5-pDRoHfl9tepW-159" target="3t429b_SGeL65_ukOjDj-564">
          <mxGeometry relative="1" as="geometry" />
        </mxCell>
        <mxCell id="ezjH-i5-pDRoHfl9tepW-159" value="modifier" style="ellipse;whiteSpace=wrap;html=1;align=center;fillColor=#dae8fc;strokeColor=#6c8ebf;" vertex="1" parent="1">
          <mxGeometry x="313.5" y="945" width="55" height="20" as="geometry" />
        </mxCell>
        <mxCell id="ezjH-i5-pDRoHfl9tepW-164" style="shape=connector;rounded=0;orthogonalLoop=1;jettySize=auto;html=1;exitX=0;exitY=1;exitDx=0;exitDy=0;entryX=0.75;entryY=0;entryDx=0;entryDy=0;strokeColor=default;align=center;verticalAlign=middle;fontFamily=Helvetica;fontSize=11;fontColor=default;labelBackgroundColor=default;startFill=0;endArrow=none;" edge="1" parent="1" source="ezjH-i5-pDRoHfl9tepW-160" target="3t429b_SGeL65_ukOjDj-564">
          <mxGeometry relative="1" as="geometry" />
        </mxCell>
        <mxCell id="ezjH-i5-pDRoHfl9tepW-160" value="modification_date" style="ellipse;whiteSpace=wrap;html=1;align=center;fillColor=#dae8fc;strokeColor=#6c8ebf;" vertex="1" parent="1">
          <mxGeometry x="390" y="956" width="105" height="25" as="geometry" />
        </mxCell>
        <mxCell id="ezjH-i5-pDRoHfl9tepW-175" style="shape=connector;rounded=0;orthogonalLoop=1;jettySize=auto;html=1;exitX=0.5;exitY=1;exitDx=0;exitDy=0;entryX=0.25;entryY=0;entryDx=0;entryDy=0;strokeColor=default;align=center;verticalAlign=middle;fontFamily=Helvetica;fontSize=11;fontColor=default;labelBackgroundColor=default;startFill=0;endArrow=none;" edge="1" parent="1" source="ezjH-i5-pDRoHfl9tepW-165" target="3t429b_SGeL65_ukOjDj-582">
          <mxGeometry relative="1" as="geometry" />
        </mxCell>
        <mxCell id="ezjH-i5-pDRoHfl9tepW-165" value="creator" style="ellipse;whiteSpace=wrap;html=1;align=center;fillColor=#dae8fc;strokeColor=#6c8ebf;" vertex="1" parent="1">
          <mxGeometry x="504.75" y="1020" width="45.5" height="25" as="geometry" />
        </mxCell>
        <mxCell id="ezjH-i5-pDRoHfl9tepW-166" value="creation_date" style="ellipse;whiteSpace=wrap;html=1;align=center;fillColor=#dae8fc;strokeColor=#6c8ebf;" vertex="1" parent="1">
          <mxGeometry x="665" y="1105" width="80" height="25" as="geometry" />
        </mxCell>
        <mxCell id="ezjH-i5-pDRoHfl9tepW-167" value="modifier" style="ellipse;whiteSpace=wrap;html=1;align=center;fillColor=#dae8fc;strokeColor=#6c8ebf;" vertex="1" parent="1">
          <mxGeometry x="475" y="1107.5" width="55" height="20" as="geometry" />
        </mxCell>
        <mxCell id="ezjH-i5-pDRoHfl9tepW-168" value="modification_date" style="ellipse;whiteSpace=wrap;html=1;align=center;fillColor=#dae8fc;strokeColor=#6c8ebf;" vertex="1" parent="1">
          <mxGeometry x="627" y="1135.5" width="105" height="25" as="geometry" />
        </mxCell>
        <mxCell id="ezjH-i5-pDRoHfl9tepW-174" style="shape=connector;rounded=0;orthogonalLoop=1;jettySize=auto;html=1;exitX=1;exitY=0.5;exitDx=0;exitDy=0;entryX=0.111;entryY=0.997;entryDx=0;entryDy=0;entryPerimeter=0;strokeColor=default;align=center;verticalAlign=middle;fontFamily=Helvetica;fontSize=11;fontColor=default;labelBackgroundColor=default;startFill=0;endArrow=none;" edge="1" parent="1" source="ezjH-i5-pDRoHfl9tepW-167" target="3t429b_SGeL65_ukOjDj-582">
          <mxGeometry relative="1" as="geometry" />
        </mxCell>
        <mxCell id="ezjH-i5-pDRoHfl9tepW-176" style="shape=connector;rounded=0;orthogonalLoop=1;jettySize=auto;html=1;exitX=0;exitY=0.5;exitDx=0;exitDy=0;strokeColor=default;align=center;verticalAlign=middle;fontFamily=Helvetica;fontSize=11;fontColor=default;labelBackgroundColor=default;startFill=0;endArrow=none;entryX=0.944;entryY=0.999;entryDx=0;entryDy=0;entryPerimeter=0;" edge="1" parent="1" target="3t429b_SGeL65_ukOjDj-582">
          <mxGeometry relative="1" as="geometry">
            <mxPoint x="664.9999999999977" y="1117.5" as="sourcePoint" />
            <mxPoint x="622" y="1094.8" as="targetPoint" />
          </mxGeometry>
        </mxCell>
        <mxCell id="ezjH-i5-pDRoHfl9tepW-177" style="shape=connector;rounded=0;orthogonalLoop=1;jettySize=auto;html=1;exitX=0;exitY=0;exitDx=0;exitDy=0;entryX=0.879;entryY=0.999;entryDx=0;entryDy=0;entryPerimeter=0;strokeColor=default;align=center;verticalAlign=middle;fontFamily=Helvetica;fontSize=11;fontColor=default;labelBackgroundColor=default;startFill=0;endArrow=none;" edge="1" parent="1" source="ezjH-i5-pDRoHfl9tepW-168" target="3t429b_SGeL65_ukOjDj-582">
          <mxGeometry relative="1" as="geometry" />
        </mxCell>
        <mxCell id="ezjH-i5-pDRoHfl9tepW-187" style="shape=connector;rounded=0;orthogonalLoop=1;jettySize=auto;html=1;exitX=0.5;exitY=0;exitDx=0;exitDy=0;entryX=0.25;entryY=1;entryDx=0;entryDy=0;strokeColor=default;align=center;verticalAlign=middle;fontFamily=Helvetica;fontSize=11;fontColor=default;labelBackgroundColor=default;startFill=0;endArrow=none;" edge="1" parent="1" source="ezjH-i5-pDRoHfl9tepW-178" target="3t429b_SGeL65_ukOjDj-595">
          <mxGeometry relative="1" as="geometry" />
        </mxCell>
        <mxCell id="ezjH-i5-pDRoHfl9tepW-178" value="creator" style="ellipse;whiteSpace=wrap;html=1;align=center;fillColor=#dae8fc;strokeColor=#6c8ebf;" vertex="1" parent="1">
          <mxGeometry x="352.25" y="1270" width="45.5" height="25" as="geometry" />
        </mxCell>
        <mxCell id="ezjH-i5-pDRoHfl9tepW-184" style="shape=connector;rounded=0;orthogonalLoop=1;jettySize=auto;html=1;exitX=1;exitY=0.5;exitDx=0;exitDy=0;entryX=0;entryY=0.75;entryDx=0;entryDy=0;strokeColor=default;align=center;verticalAlign=middle;fontFamily=Helvetica;fontSize=11;fontColor=default;labelBackgroundColor=default;startFill=0;endArrow=none;" edge="1" parent="1" source="ezjH-i5-pDRoHfl9tepW-179" target="3t429b_SGeL65_ukOjDj-595">
          <mxGeometry relative="1" as="geometry" />
        </mxCell>
        <mxCell id="ezjH-i5-pDRoHfl9tepW-179" value="creation_date" style="ellipse;whiteSpace=wrap;html=1;align=center;fillColor=#dae8fc;strokeColor=#6c8ebf;" vertex="1" parent="1">
          <mxGeometry x="240" y="1240" width="80" height="25" as="geometry" />
        </mxCell>
        <mxCell id="ezjH-i5-pDRoHfl9tepW-186" style="shape=connector;rounded=0;orthogonalLoop=1;jettySize=auto;html=1;exitX=0.5;exitY=0;exitDx=0;exitDy=0;entryX=0;entryY=1;entryDx=0;entryDy=0;strokeColor=default;align=center;verticalAlign=middle;fontFamily=Helvetica;fontSize=11;fontColor=default;labelBackgroundColor=default;startFill=0;endArrow=none;" edge="1" parent="1" source="ezjH-i5-pDRoHfl9tepW-180" target="3t429b_SGeL65_ukOjDj-595">
          <mxGeometry relative="1" as="geometry" />
        </mxCell>
        <mxCell id="ezjH-i5-pDRoHfl9tepW-180" value="modifier" style="ellipse;whiteSpace=wrap;html=1;align=center;fillColor=#dae8fc;strokeColor=#6c8ebf;" vertex="1" parent="1">
          <mxGeometry x="290" y="1280" width="55" height="20" as="geometry" />
        </mxCell>
        <mxCell id="ezjH-i5-pDRoHfl9tepW-183" style="shape=connector;rounded=0;orthogonalLoop=1;jettySize=auto;html=1;exitX=1;exitY=0.5;exitDx=0;exitDy=0;entryX=0;entryY=0;entryDx=0;entryDy=0;strokeColor=default;align=center;verticalAlign=middle;fontFamily=Helvetica;fontSize=11;fontColor=default;labelBackgroundColor=default;startFill=0;endArrow=none;" edge="1" parent="1" source="ezjH-i5-pDRoHfl9tepW-181" target="3t429b_SGeL65_ukOjDj-595">
          <mxGeometry relative="1" as="geometry" />
        </mxCell>
        <mxCell id="ezjH-i5-pDRoHfl9tepW-181" value="modification_date" style="ellipse;whiteSpace=wrap;html=1;align=center;fillColor=#dae8fc;strokeColor=#6c8ebf;" vertex="1" parent="1">
          <mxGeometry x="231" y="1170.5" width="105" height="25" as="geometry" />
        </mxCell>
        <mxCell id="ezjH-i5-pDRoHfl9tepW-195" style="shape=connector;rounded=0;orthogonalLoop=1;jettySize=auto;html=1;exitX=0;exitY=0.5;exitDx=0;exitDy=0;entryX=1;entryY=0.25;entryDx=0;entryDy=0;strokeColor=default;align=center;verticalAlign=middle;fontFamily=Helvetica;fontSize=11;fontColor=default;labelBackgroundColor=default;startFill=0;endArrow=none;" edge="1" parent="1" source="ezjH-i5-pDRoHfl9tepW-188" target="3t429b_SGeL65_ukOjDj-359">
          <mxGeometry relative="1" as="geometry" />
        </mxCell>
        <mxCell id="ezjH-i5-pDRoHfl9tepW-188" value="creator" style="ellipse;whiteSpace=wrap;html=1;align=center;fillColor=#dae8fc;strokeColor=#6c8ebf;" vertex="1" parent="1">
          <mxGeometry x="500" y="1360" width="45.5" height="25" as="geometry" />
        </mxCell>
        <mxCell id="ezjH-i5-pDRoHfl9tepW-192" style="shape=connector;rounded=0;orthogonalLoop=1;jettySize=auto;html=1;exitX=0;exitY=0.5;exitDx=0;exitDy=0;entryX=1;entryY=1;entryDx=0;entryDy=0;strokeColor=default;align=center;verticalAlign=middle;fontFamily=Helvetica;fontSize=11;fontColor=default;labelBackgroundColor=default;startFill=0;endArrow=none;" edge="1" parent="1" source="ezjH-i5-pDRoHfl9tepW-189" target="3t429b_SGeL65_ukOjDj-359">
          <mxGeometry relative="1" as="geometry" />
        </mxCell>
        <mxCell id="ezjH-i5-pDRoHfl9tepW-189" value="creation_date" style="ellipse;whiteSpace=wrap;html=1;align=center;fillColor=#dae8fc;strokeColor=#6c8ebf;" vertex="1" parent="1">
          <mxGeometry x="482.75" y="1425" width="80" height="25" as="geometry" />
        </mxCell>
        <mxCell id="ezjH-i5-pDRoHfl9tepW-196" style="shape=connector;rounded=0;orthogonalLoop=1;jettySize=auto;html=1;exitX=0;exitY=0.5;exitDx=0;exitDy=0;entryX=1;entryY=0.75;entryDx=0;entryDy=0;strokeColor=default;align=center;verticalAlign=middle;fontFamily=Helvetica;fontSize=11;fontColor=default;labelBackgroundColor=default;startFill=0;endArrow=none;" edge="1" parent="1" source="ezjH-i5-pDRoHfl9tepW-190" target="3t429b_SGeL65_ukOjDj-359">
          <mxGeometry relative="1" as="geometry" />
        </mxCell>
        <mxCell id="ezjH-i5-pDRoHfl9tepW-190" value="modifier" style="ellipse;whiteSpace=wrap;html=1;align=center;fillColor=#dae8fc;strokeColor=#6c8ebf;" vertex="1" parent="1">
          <mxGeometry x="495.25" y="1396" width="55" height="20" as="geometry" />
        </mxCell>
        <mxCell id="ezjH-i5-pDRoHfl9tepW-194" style="shape=connector;rounded=0;orthogonalLoop=1;jettySize=auto;html=1;exitX=0;exitY=0.5;exitDx=0;exitDy=0;entryX=0.75;entryY=0;entryDx=0;entryDy=0;strokeColor=default;align=center;verticalAlign=middle;fontFamily=Helvetica;fontSize=11;fontColor=default;labelBackgroundColor=default;startFill=0;endArrow=none;" edge="1" parent="1" source="ezjH-i5-pDRoHfl9tepW-191" target="3t429b_SGeL65_ukOjDj-359">
          <mxGeometry relative="1" as="geometry" />
        </mxCell>
        <mxCell id="ezjH-i5-pDRoHfl9tepW-191" value="modification_date" style="ellipse;whiteSpace=wrap;html=1;align=center;fillColor=#dae8fc;strokeColor=#6c8ebf;" vertex="1" parent="1">
          <mxGeometry x="446.5" y="1320" width="105" height="25" as="geometry" />
        </mxCell>
        <mxCell id="ezjH-i5-pDRoHfl9tepW-204" style="shape=connector;rounded=0;orthogonalLoop=1;jettySize=auto;html=1;exitX=0.5;exitY=1;exitDx=0;exitDy=0;entryX=0.25;entryY=0;entryDx=0;entryDy=0;strokeColor=default;align=center;verticalAlign=middle;fontFamily=Helvetica;fontSize=11;fontColor=default;labelBackgroundColor=default;startFill=0;endArrow=none;" edge="1" parent="1" source="ezjH-i5-pDRoHfl9tepW-197" target="3t429b_SGeL65_ukOjDj-358">
          <mxGeometry relative="1" as="geometry" />
        </mxCell>
        <mxCell id="ezjH-i5-pDRoHfl9tepW-197" value="creator" style="ellipse;whiteSpace=wrap;html=1;align=center;fillColor=#dae8fc;strokeColor=#6c8ebf;" vertex="1" parent="1">
          <mxGeometry x="80" y="1305" width="45.5" height="25" as="geometry" />
        </mxCell>
        <mxCell id="ezjH-i5-pDRoHfl9tepW-201" style="shape=connector;rounded=0;orthogonalLoop=1;jettySize=auto;html=1;exitX=1;exitY=1;exitDx=0;exitDy=0;entryX=0;entryY=0;entryDx=0;entryDy=0;strokeColor=default;align=center;verticalAlign=middle;fontFamily=Helvetica;fontSize=11;fontColor=default;labelBackgroundColor=default;startFill=0;endArrow=none;" edge="1" parent="1" source="ezjH-i5-pDRoHfl9tepW-198" target="3t429b_SGeL65_ukOjDj-358">
          <mxGeometry relative="1" as="geometry" />
        </mxCell>
        <mxCell id="ezjH-i5-pDRoHfl9tepW-198" value="creation_date" style="ellipse;whiteSpace=wrap;html=1;align=center;fillColor=#dae8fc;strokeColor=#6c8ebf;" vertex="1" parent="1">
          <mxGeometry x="15" y="1335" width="80" height="25" as="geometry" />
        </mxCell>
        <mxCell id="ezjH-i5-pDRoHfl9tepW-203" style="shape=connector;rounded=0;orthogonalLoop=1;jettySize=auto;html=1;exitX=0.5;exitY=1;exitDx=0;exitDy=0;entryX=0.5;entryY=0;entryDx=0;entryDy=0;strokeColor=default;align=center;verticalAlign=middle;fontFamily=Helvetica;fontSize=11;fontColor=default;labelBackgroundColor=default;startFill=0;endArrow=none;" edge="1" parent="1" source="ezjH-i5-pDRoHfl9tepW-199" target="3t429b_SGeL65_ukOjDj-358">
          <mxGeometry relative="1" as="geometry" />
        </mxCell>
        <mxCell id="ezjH-i5-pDRoHfl9tepW-199" value="modifier" style="ellipse;whiteSpace=wrap;html=1;align=center;fillColor=#dae8fc;strokeColor=#6c8ebf;" vertex="1" parent="1">
          <mxGeometry x="140" y="1300" width="55" height="20" as="geometry" />
        </mxCell>
        <mxCell id="ezjH-i5-pDRoHfl9tepW-202" style="shape=connector;rounded=0;orthogonalLoop=1;jettySize=auto;html=1;exitX=0.5;exitY=1;exitDx=0;exitDy=0;entryX=1;entryY=0;entryDx=0;entryDy=0;strokeColor=default;align=center;verticalAlign=middle;fontFamily=Helvetica;fontSize=11;fontColor=default;labelBackgroundColor=default;startFill=0;endArrow=none;" edge="1" parent="1" source="ezjH-i5-pDRoHfl9tepW-200" target="3t429b_SGeL65_ukOjDj-358">
          <mxGeometry relative="1" as="geometry" />
        </mxCell>
        <mxCell id="ezjH-i5-pDRoHfl9tepW-200" value="modification_date" style="ellipse;whiteSpace=wrap;html=1;align=center;fillColor=#dae8fc;strokeColor=#6c8ebf;" vertex="1" parent="1">
          <mxGeometry x="170" y="1330" width="105" height="25" as="geometry" />
        </mxCell>
        <mxCell id="ezjH-i5-pDRoHfl9tepW-214" style="shape=connector;rounded=0;orthogonalLoop=1;jettySize=auto;html=1;exitX=0.5;exitY=1;exitDx=0;exitDy=0;entryX=0.25;entryY=0;entryDx=0;entryDy=0;strokeColor=default;align=center;verticalAlign=middle;fontFamily=Helvetica;fontSize=11;fontColor=default;labelBackgroundColor=default;startFill=0;endArrow=none;" edge="1" parent="1" source="ezjH-i5-pDRoHfl9tepW-205" target="3t429b_SGeL65_ukOjDj-355">
          <mxGeometry relative="1" as="geometry" />
        </mxCell>
        <mxCell id="ezjH-i5-pDRoHfl9tepW-205" value="creator" style="ellipse;whiteSpace=wrap;html=1;align=center;fillColor=#dae8fc;strokeColor=#6c8ebf;" vertex="1" parent="1">
          <mxGeometry x="-187.25" y="1305" width="45.5" height="25" as="geometry" />
        </mxCell>
        <mxCell id="ezjH-i5-pDRoHfl9tepW-213" style="shape=connector;rounded=0;orthogonalLoop=1;jettySize=auto;html=1;exitX=1;exitY=1;exitDx=0;exitDy=0;entryX=0;entryY=0;entryDx=0;entryDy=0;strokeColor=default;align=center;verticalAlign=middle;fontFamily=Helvetica;fontSize=11;fontColor=default;labelBackgroundColor=default;startFill=0;endArrow=none;" edge="1" parent="1" source="ezjH-i5-pDRoHfl9tepW-206" target="3t429b_SGeL65_ukOjDj-355">
          <mxGeometry relative="1" as="geometry" />
        </mxCell>
        <mxCell id="ezjH-i5-pDRoHfl9tepW-206" value="creation_date" style="ellipse;whiteSpace=wrap;html=1;align=center;fillColor=#dae8fc;strokeColor=#6c8ebf;" vertex="1" parent="1">
          <mxGeometry x="-252.25" y="1335" width="80" height="25" as="geometry" />
        </mxCell>
        <mxCell id="ezjH-i5-pDRoHfl9tepW-215" style="shape=connector;rounded=0;orthogonalLoop=1;jettySize=auto;html=1;exitX=0;exitY=1;exitDx=0;exitDy=0;entryX=0.5;entryY=0;entryDx=0;entryDy=0;strokeColor=default;align=center;verticalAlign=middle;fontFamily=Helvetica;fontSize=11;fontColor=default;labelBackgroundColor=default;startFill=0;endArrow=none;" edge="1" parent="1" source="ezjH-i5-pDRoHfl9tepW-207" target="3t429b_SGeL65_ukOjDj-355">
          <mxGeometry relative="1" as="geometry" />
        </mxCell>
        <mxCell id="ezjH-i5-pDRoHfl9tepW-207" value="modifier" style="ellipse;whiteSpace=wrap;html=1;align=center;fillColor=#dae8fc;strokeColor=#6c8ebf;" vertex="1" parent="1">
          <mxGeometry x="-127.25" y="1300" width="55" height="20" as="geometry" />
        </mxCell>
        <mxCell id="ezjH-i5-pDRoHfl9tepW-216" style="shape=connector;rounded=0;orthogonalLoop=1;jettySize=auto;html=1;exitX=0.5;exitY=1;exitDx=0;exitDy=0;entryX=1;entryY=0;entryDx=0;entryDy=0;strokeColor=default;align=center;verticalAlign=middle;fontFamily=Helvetica;fontSize=11;fontColor=default;labelBackgroundColor=default;startFill=0;endArrow=none;" edge="1" parent="1" source="ezjH-i5-pDRoHfl9tepW-208" target="3t429b_SGeL65_ukOjDj-355">
          <mxGeometry relative="1" as="geometry" />
        </mxCell>
        <mxCell id="ezjH-i5-pDRoHfl9tepW-208" value="modification_date" style="ellipse;whiteSpace=wrap;html=1;align=center;fillColor=#dae8fc;strokeColor=#6c8ebf;" vertex="1" parent="1">
          <mxGeometry x="-97.25" y="1330" width="105" height="25" as="geometry" />
        </mxCell>
        <mxCell id="ezjH-i5-pDRoHfl9tepW-218" style="shape=connector;rounded=0;orthogonalLoop=1;jettySize=auto;html=1;exitX=0.5;exitY=1;exitDx=0;exitDy=0;entryX=0.25;entryY=0;entryDx=0;entryDy=0;strokeColor=default;align=center;verticalAlign=middle;fontFamily=Helvetica;fontSize=11;fontColor=default;labelBackgroundColor=default;startFill=0;endArrow=none;" edge="1" parent="1" source="ezjH-i5-pDRoHfl9tepW-209" target="3t429b_SGeL65_ukOjDj-354">
          <mxGeometry relative="1" as="geometry" />
        </mxCell>
        <mxCell id="ezjH-i5-pDRoHfl9tepW-209" value="creator" style="ellipse;whiteSpace=wrap;html=1;align=center;fillColor=#dae8fc;strokeColor=#6c8ebf;" vertex="1" parent="1">
          <mxGeometry x="-455" y="1307.5" width="45.5" height="25" as="geometry" />
        </mxCell>
        <mxCell id="ezjH-i5-pDRoHfl9tepW-217" style="shape=connector;rounded=0;orthogonalLoop=1;jettySize=auto;html=1;exitX=1;exitY=1;exitDx=0;exitDy=0;entryX=0;entryY=0;entryDx=0;entryDy=0;strokeColor=default;align=center;verticalAlign=middle;fontFamily=Helvetica;fontSize=11;fontColor=default;labelBackgroundColor=default;startFill=0;endArrow=none;" edge="1" parent="1" source="ezjH-i5-pDRoHfl9tepW-210" target="3t429b_SGeL65_ukOjDj-354">
          <mxGeometry relative="1" as="geometry" />
        </mxCell>
        <mxCell id="ezjH-i5-pDRoHfl9tepW-210" value="creation_date" style="ellipse;whiteSpace=wrap;html=1;align=center;fillColor=#dae8fc;strokeColor=#6c8ebf;" vertex="1" parent="1">
          <mxGeometry x="-520" y="1337.5" width="80" height="25" as="geometry" />
        </mxCell>
        <mxCell id="ezjH-i5-pDRoHfl9tepW-219" style="shape=connector;rounded=0;orthogonalLoop=1;jettySize=auto;html=1;exitX=0.5;exitY=1;exitDx=0;exitDy=0;entryX=0.5;entryY=0;entryDx=0;entryDy=0;strokeColor=default;align=center;verticalAlign=middle;fontFamily=Helvetica;fontSize=11;fontColor=default;labelBackgroundColor=default;startFill=0;endArrow=none;" edge="1" parent="1" source="ezjH-i5-pDRoHfl9tepW-211" target="3t429b_SGeL65_ukOjDj-354">
          <mxGeometry relative="1" as="geometry" />
        </mxCell>
        <mxCell id="ezjH-i5-pDRoHfl9tepW-211" value="modifier" style="ellipse;whiteSpace=wrap;html=1;align=center;fillColor=#dae8fc;strokeColor=#6c8ebf;" vertex="1" parent="1">
          <mxGeometry x="-395" y="1302.5" width="55" height="20" as="geometry" />
        </mxCell>
        <mxCell id="ezjH-i5-pDRoHfl9tepW-220" style="shape=connector;rounded=0;orthogonalLoop=1;jettySize=auto;html=1;exitX=0.5;exitY=1;exitDx=0;exitDy=0;entryX=1;entryY=0;entryDx=0;entryDy=0;strokeColor=default;align=center;verticalAlign=middle;fontFamily=Helvetica;fontSize=11;fontColor=default;labelBackgroundColor=default;startFill=0;endArrow=none;" edge="1" parent="1" source="ezjH-i5-pDRoHfl9tepW-212" target="3t429b_SGeL65_ukOjDj-354">
          <mxGeometry relative="1" as="geometry" />
        </mxCell>
        <mxCell id="ezjH-i5-pDRoHfl9tepW-212" value="modification_date" style="ellipse;whiteSpace=wrap;html=1;align=center;fillColor=#dae8fc;strokeColor=#6c8ebf;" vertex="1" parent="1">
          <mxGeometry x="-365" y="1332.5" width="105" height="25" as="geometry" />
        </mxCell>
        <mxCell id="ezjH-i5-pDRoHfl9tepW-221" value="&lt;div style=&quot;text-align: center;&quot;&gt;&lt;span style=&quot;background-color: light-dark(#ffffff, var(--ge-dark-color, #121212)); color: light-dark(rgb(0, 0, 0), rgb(255, 255, 255));&quot;&gt;&lt;b&gt;KEY:&lt;/b&gt;&lt;/span&gt;&lt;/div&gt;&lt;div&gt;&amp;nbsp; &amp;nbsp; &amp;nbsp; &amp;nbsp; Entity&lt;/div&gt;&lt;div&gt;&amp;nbsp; &amp;nbsp; &amp;nbsp; &amp;nbsp; Attribute&lt;/div&gt;&lt;div&gt;&amp;nbsp; &amp;nbsp; &amp;nbsp; &amp;nbsp; Primary Key&lt;/div&gt;&lt;div&gt;&amp;nbsp; &amp;nbsp; &amp;nbsp; &amp;nbsp; Calculated Attribute&lt;/div&gt;&lt;div&gt;&amp;nbsp; &amp;nbsp; &amp;nbsp; &amp;nbsp; Relation&lt;/div&gt;&lt;div&gt;&amp;nbsp; &amp;nbsp; &amp;nbsp; &amp;nbsp; Inheritance&lt;/div&gt;&lt;div&gt;&amp;nbsp; &amp;nbsp; &amp;nbsp; &amp;nbsp; Notes&lt;/div&gt;" style="rounded=0;whiteSpace=wrap;html=1;fontFamily=Helvetica;fontSize=11;fontColor=default;labelBackgroundColor=default;align=left;" vertex="1" parent="1">
          <mxGeometry x="515" y="54.12" width="135" height="125.88" as="geometry" />
        </mxCell>
        <mxCell id="ezjH-i5-pDRoHfl9tepW-222" value="" style="rounded=0;whiteSpace=wrap;html=1;fontFamily=Helvetica;fontSize=11;labelBackgroundColor=default;fillColor=#fff2cc;strokeColor=#d6b656;" vertex="1" parent="1">
          <mxGeometry x="530" y="79" width="10" height="10" as="geometry" />
        </mxCell>
        <mxCell id="ezjH-i5-pDRoHfl9tepW-223" value="" style="rounded=0;whiteSpace=wrap;html=1;fontFamily=Helvetica;fontSize=11;labelBackgroundColor=default;fillColor=#dae8fc;strokeColor=#6c8ebf;" vertex="1" parent="1">
          <mxGeometry x="530" y="92" width="10" height="10" as="geometry" />
        </mxCell>
        <mxCell id="ezjH-i5-pDRoHfl9tepW-224" value="" style="rounded=0;whiteSpace=wrap;html=1;fontFamily=Helvetica;fontSize=11;fontColor=#ffffff;labelBackgroundColor=default;fillColor=#1ba1e2;strokeColor=#006EAF;" vertex="1" parent="1">
          <mxGeometry x="530" y="105" width="10" height="10" as="geometry" />
        </mxCell>
        <mxCell id="ezjH-i5-pDRoHfl9tepW-225" value="" style="rounded=0;whiteSpace=wrap;html=1;fontFamily=Helvetica;fontSize=11;labelBackgroundColor=default;fillColor=#e1d5e7;strokeColor=#9673a6;" vertex="1" parent="1">
          <mxGeometry x="530" y="118" width="10" height="10" as="geometry" />
        </mxCell>
        <mxCell id="ezjH-i5-pDRoHfl9tepW-226" value="" style="rounded=0;whiteSpace=wrap;html=1;fontFamily=Helvetica;fontSize=11;labelBackgroundColor=default;fillColor=#d5e8d4;strokeColor=#82b366;" vertex="1" parent="1">
          <mxGeometry x="530" y="131" width="10" height="10" as="geometry" />
        </mxCell>
        <mxCell id="ezjH-i5-pDRoHfl9tepW-227" value="" style="rounded=0;whiteSpace=wrap;html=1;fontFamily=Helvetica;fontSize=11;labelBackgroundColor=default;fillColor=#f8cecc;strokeColor=#b85450;" vertex="1" parent="1">
          <mxGeometry x="530" y="145" width="10" height="10" as="geometry" />
        </mxCell>
        <mxCell id="ezjH-i5-pDRoHfl9tepW-230" style="shape=connector;rounded=0;orthogonalLoop=1;jettySize=auto;html=1;entryX=1;entryY=0.5;entryDx=0;entryDy=0;strokeColor=default;align=center;verticalAlign=middle;fontFamily=Helvetica;fontSize=11;fontColor=default;labelBackgroundColor=default;startFill=0;endArrow=none;exitX=0;exitY=0.5;exitDx=0;exitDy=0;" edge="1" parent="1" source="VXwOsZXAh-60YvnX4HJ6-40" target="_pGOJU-Ed9QC0g85rfFG-14">
          <mxGeometry relative="1" as="geometry">
            <mxPoint x="972" y="810" as="sourcePoint" />
            <mxPoint x="972" y="785" as="targetPoint" />
          </mxGeometry>
        </mxCell>
        <mxCell id="VXwOsZXAh-60YvnX4HJ6-43" value="1" style="edgeLabel;html=1;align=center;verticalAlign=middle;resizable=0;points=[];fontSize=12;" vertex="1" connectable="0" parent="ezjH-i5-pDRoHfl9tepW-230">
          <mxGeometry x="0.36" y="2" relative="1" as="geometry">
            <mxPoint y="6" as="offset" />
          </mxGeometry>
        </mxCell>
        <mxCell id="ezjH-i5-pDRoHfl9tepW-233" value="" style="rounded=0;whiteSpace=wrap;html=1;fontFamily=Helvetica;fontSize=11;labelBackgroundColor=default;fillColor=light-dark(#f2a14a, #36210a);strokeColor=#d79b00;gradientColor=light-dark(#f2a14a, #ededed);" vertex="1" parent="1">
          <mxGeometry x="530" y="158" width="10" height="10" as="geometry" />
        </mxCell>
        <mxCell id="ezjH-i5-pDRoHfl9tepW-234" value="&lt;p style=&quot;font-size: 11px;&quot;&gt;NOTE:&lt;/p&gt;&lt;p style=&quot;font-size: 11px;&quot;&gt;The &lt;b&gt;Record&amp;nbsp;&lt;/b&gt;of every activity done by&lt;/p&gt;&lt;p style=&quot;font-size: 11px;&quot;&gt;&amp;nbsp; &amp;nbsp; &amp;nbsp; &amp;nbsp;every user can be accessed through&amp;nbsp;&lt;/p&gt;&lt;p style=&quot;font-size: 11px;&quot;&gt;the entity &lt;b&gt;Trip&lt;/b&gt;.&lt;/p&gt;" style="ellipse;shape=cloud;whiteSpace=wrap;html=1;align=center;fillColor=light-dark(#f2a14a, #36210a);strokeColor=#d79b00;" vertex="1" parent="1">
          <mxGeometry x="-480" y="1070.5" width="251.25" height="210" as="geometry" />
        </mxCell>
        <mxCell id="ezjH-i5-pDRoHfl9tepW-235" value="&lt;p style=&quot;font-size: 11px;&quot;&gt;NOTE:&lt;/p&gt;&lt;p style=&quot;font-size: 11px;&quot;&gt;Every single &lt;b&gt;entity&lt;/b&gt;&amp;nbsp;(except Parameter&lt;/p&gt;&lt;p style=&quot;font-size: 11px;&quot;&gt;and Log) has the attributes &lt;b&gt;creator&lt;/b&gt;,&lt;/p&gt;&lt;p style=&quot;font-size: 11px;&quot;&gt;&lt;b&gt;creation_date&lt;/b&gt;, &lt;b&gt;modifier&lt;/b&gt;&amp;nbsp;and&lt;/p&gt;&lt;p style=&quot;font-size: 11px;&quot;&gt;&lt;b&gt;modification_date &lt;/b&gt;to help&lt;/p&gt;&lt;p style=&quot;font-size: 11px;&quot;&gt;keep a log of everything&lt;/p&gt;&lt;p style=&quot;font-size: 11px;&quot;&gt;happening in the database.&lt;/p&gt;" style="ellipse;shape=cloud;whiteSpace=wrap;html=1;align=center;fillColor=light-dark(#f2a14a, #36210a);strokeColor=#d79b00;" vertex="1" parent="1">
          <mxGeometry x="-790" y="620" width="261.25" height="270" as="geometry" />
        </mxCell>
        <mxCell id="zVYg9iZkqoKVB1EyA-T6-1" value="&lt;p style=&quot;font-size: 11px;&quot;&gt;NOTE:&lt;/p&gt;&lt;p style=&quot;&quot;&gt;&lt;span style=&quot;background-color: transparent; color: light-dark(rgb(0, 0, 0), rgb(255, 255, 255));&quot;&gt;&lt;b&gt;seat_availability&lt;/b&gt;&lt;/span&gt;&lt;span&gt;&lt;font style=&quot;color: rgb(0, 0, 0);&quot;&gt;&lt;span style=&quot;font-size: 11px;&quot;&gt;&lt;b style=&quot;&quot;&gt;: &lt;/b&gt;It is calculated&amp;nbsp;&lt;/span&gt;&lt;/font&gt;&lt;/span&gt;&lt;/p&gt;&lt;p style=&quot;&quot;&gt;&lt;span&gt;&lt;font style=&quot;color: rgb(0, 0, 0);&quot;&gt;&lt;span style=&quot;font-size: 11px;&quot;&gt;from the attribute&amp;nbsp;&lt;/span&gt;&lt;/font&gt;&lt;/span&gt;&lt;/p&gt;&lt;p style=&quot;&quot;&gt;&lt;span&gt;&lt;font style=&quot;color: rgb(0, 0, 0);&quot;&gt;&lt;span style=&quot;font-size: 11px;&quot;&gt;&quot;chosen_capacity&quot;&lt;/span&gt;&lt;/font&gt;&lt;/span&gt;&lt;/p&gt;" style="ellipse;shape=cloud;whiteSpace=wrap;html=1;align=center;fillColor=light-dark(#f2a14a, #36210a);strokeColor=#d79b00;" vertex="1" parent="1">
          <mxGeometry x="832.25" y="992.75" width="237.5" height="192.25" as="geometry" />
        </mxCell>
        <mxCell id="VXwOsZXAh-60YvnX4HJ6-4" style="edgeStyle=orthogonalEdgeStyle;rounded=0;orthogonalLoop=1;jettySize=auto;html=1;entryX=0;entryY=0.25;entryDx=0;entryDy=0;fontSize=12;startSize=8;endSize=8;endArrow=none;startFill=0;" edge="1" parent="1" source="VXwOsZXAh-60YvnX4HJ6-2" target="3t429b_SGeL65_ukOjDj-595">
          <mxGeometry relative="1" as="geometry">
            <Array as="points">
              <mxPoint x="140" y="1210" />
              <mxPoint x="140" y="1210" />
            </Array>
          </mxGeometry>
        </mxCell>
        <mxCell id="VXwOsZXAh-60YvnX4HJ6-7" value="N" style="edgeLabel;html=1;align=center;verticalAlign=middle;resizable=0;points=[];fontSize=12;" vertex="1" connectable="0" parent="VXwOsZXAh-60YvnX4HJ6-4">
          <mxGeometry x="0.7744" y="-1" relative="1" as="geometry">
            <mxPoint as="offset" />
          </mxGeometry>
        </mxCell>
        <mxCell id="VXwOsZXAh-60YvnX4HJ6-2" value="Has" style="shape=rhombus;perimeter=rhombusPerimeter;whiteSpace=wrap;html=1;align=center;fillColor=#d5e8d4;strokeColor=#82b366;" vertex="1" parent="1">
          <mxGeometry x="35" y="1170.5" width="40" height="40" as="geometry" />
        </mxCell>
        <mxCell id="VXwOsZXAh-60YvnX4HJ6-5" style="edgeStyle=none;curved=1;rounded=0;orthogonalLoop=1;jettySize=auto;html=1;exitX=0;exitY=0;exitDx=0;exitDy=0;fontSize=12;startSize=8;endSize=8;" edge="1" parent="1" source="VXwOsZXAh-60YvnX4HJ6-2" target="VXwOsZXAh-60YvnX4HJ6-2">
          <mxGeometry relative="1" as="geometry" />
        </mxCell>
        <mxCell id="_pGOJU-Ed9QC0g85rfFG-14" value="has" style="shape=rhombus;perimeter=rhombusPerimeter;whiteSpace=wrap;html=1;align=center;fillColor=#d5e8d4;strokeColor=#82b366;" vertex="1" parent="1">
          <mxGeometry x="701.5" y="872.5" width="40" height="40" as="geometry" />
        </mxCell>
        <mxCell id="_pGOJU-Ed9QC0g85rfFG-15" style="edgeStyle=orthogonalEdgeStyle;rounded=0;orthogonalLoop=1;jettySize=auto;html=1;entryX=1;entryY=1;entryDx=0;entryDy=0;endArrow=none;startFill=0;exitX=0.5;exitY=0;exitDx=0;exitDy=0;" edge="1" parent="1" source="_pGOJU-Ed9QC0g85rfFG-14" target="3t429b_SGeL65_ukOjDj-499">
          <mxGeometry relative="1" as="geometry">
            <mxPoint x="720" y="840" as="sourcePoint" />
            <Array as="points">
              <mxPoint x="720" y="873" />
            </Array>
          </mxGeometry>
        </mxCell>
        <mxCell id="VXwOsZXAh-60YvnX4HJ6-20" value="N" style="edgeLabel;html=1;align=center;verticalAlign=middle;resizable=0;points=[];fontSize=12;" vertex="1" connectable="0" parent="_pGOJU-Ed9QC0g85rfFG-15">
          <mxGeometry x="0.639" y="-1" relative="1" as="geometry">
            <mxPoint as="offset" />
          </mxGeometry>
        </mxCell>
        <mxCell id="_pGOJU-Ed9QC0g85rfFG-16" style="edgeStyle=orthogonalEdgeStyle;rounded=0;orthogonalLoop=1;jettySize=auto;html=1;entryX=0.5;entryY=0;entryDx=0;entryDy=0;endArrow=none;startFill=0;" edge="1" parent="1" source="_pGOJU-Ed9QC0g85rfFG-14" target="3t429b_SGeL65_ukOjDj-582">
          <mxGeometry relative="1" as="geometry" />
        </mxCell>
        <mxCell id="VXwOsZXAh-60YvnX4HJ6-21" value="N" style="edgeLabel;html=1;align=center;verticalAlign=middle;resizable=0;points=[];fontSize=12;" vertex="1" connectable="0" parent="_pGOJU-Ed9QC0g85rfFG-16">
          <mxGeometry x="0.8123" relative="1" as="geometry">
            <mxPoint as="offset" />
          </mxGeometry>
        </mxCell>
        <mxCell id="VXwOsZXAh-60YvnX4HJ6-10" value="Max_Capacity" style="whiteSpace=wrap;html=1;align=center;fillColor=#fff2cc;strokeColor=#d6b656;" vertex="1" parent="1">
          <mxGeometry x="875.25" y="651.38" width="100" height="40" as="geometry" />
        </mxCell>
        <mxCell id="VXwOsZXAh-60YvnX4HJ6-11" style="rounded=0;orthogonalLoop=1;jettySize=auto;html=1;entryX=1;entryY=0.5;entryDx=0;entryDy=0;endArrow=none;startFill=0;" edge="1" parent="1" source="VXwOsZXAh-60YvnX4HJ6-12" target="VXwOsZXAh-60YvnX4HJ6-10">
          <mxGeometry relative="1" as="geometry" />
        </mxCell>
        <mxCell id="VXwOsZXAh-60YvnX4HJ6-12" value="id" style="ellipse;whiteSpace=wrap;html=1;align=center;fontStyle=4;fillColor=#1ba1e2;fontColor=#ffffff;strokeColor=#006EAF;" vertex="1" parent="1">
          <mxGeometry x="1050.25" y="662" width="50" height="30" as="geometry" />
        </mxCell>
        <mxCell id="VXwOsZXAh-60YvnX4HJ6-13" style="rounded=0;orthogonalLoop=1;jettySize=auto;html=1;entryX=1;entryY=0.75;entryDx=0;entryDy=0;endArrow=none;startFill=0;" edge="1" parent="1" source="VXwOsZXAh-60YvnX4HJ6-14" target="VXwOsZXAh-60YvnX4HJ6-10">
          <mxGeometry relative="1" as="geometry" />
        </mxCell>
        <mxCell id="VXwOsZXAh-60YvnX4HJ6-14" value="number" style="ellipse;whiteSpace=wrap;html=1;align=center;fillColor=#dae8fc;strokeColor=#6c8ebf;" vertex="1" parent="1">
          <mxGeometry x="1010.25" y="702.25" width="90" height="33.75" as="geometry" />
        </mxCell>
        <mxCell id="VXwOsZXAh-60YvnX4HJ6-17" style="edgeStyle=orthogonalEdgeStyle;rounded=0;orthogonalLoop=1;jettySize=auto;html=1;exitX=1;exitY=0.5;exitDx=0;exitDy=0;entryX=0;entryY=0.5;entryDx=0;entryDy=0;fontSize=12;startSize=8;endSize=8;endArrow=none;startFill=0;" edge="1" parent="1" source="VXwOsZXAh-60YvnX4HJ6-16" target="VXwOsZXAh-60YvnX4HJ6-10">
          <mxGeometry relative="1" as="geometry" />
        </mxCell>
        <mxCell id="VXwOsZXAh-60YvnX4HJ6-18" value="N" style="edgeLabel;html=1;align=center;verticalAlign=middle;resizable=0;points=[];fontSize=12;" vertex="1" connectable="0" parent="VXwOsZXAh-60YvnX4HJ6-17">
          <mxGeometry x="0.4638" y="-1" relative="1" as="geometry">
            <mxPoint as="offset" />
          </mxGeometry>
        </mxCell>
        <mxCell id="VXwOsZXAh-60YvnX4HJ6-16" value="has" style="shape=rhombus;perimeter=rhombusPerimeter;whiteSpace=wrap;html=1;align=center;fillColor=#d5e8d4;strokeColor=#82b366;" vertex="1" parent="1">
          <mxGeometry x="795.25" y="652" width="40" height="40" as="geometry" />
        </mxCell>
        <mxCell id="VXwOsZXAh-60YvnX4HJ6-22" value="&lt;p style=&quot;font-size: 11px;&quot;&gt;NOTE:&lt;/p&gt;&lt;p style=&quot;&quot;&gt;&lt;span&gt;&lt;font style=&quot;color: rgb(0, 0, 0);&quot;&gt;&lt;span style=&quot;font-size: 11px;&quot;&gt;&lt;b style=&quot;&quot;&gt;age: &lt;/b&gt;It is calculated&amp;nbsp;&lt;/span&gt;&lt;/font&gt;&lt;/span&gt;&lt;/p&gt;&lt;p style=&quot;&quot;&gt;&lt;span&gt;&lt;font style=&quot;color: rgb(0, 0, 0);&quot;&gt;&lt;span style=&quot;font-size: 11px;&quot;&gt;from the attribute&amp;nbsp;&lt;/span&gt;&lt;/font&gt;&lt;/span&gt;&lt;/p&gt;&lt;p style=&quot;&quot;&gt;&lt;span&gt;&lt;font style=&quot;color: rgb(0, 0, 0);&quot;&gt;&lt;span style=&quot;font-size: 11px;&quot;&gt;&quot;date_of_birth&quot;&lt;/span&gt;&lt;/font&gt;&lt;/span&gt;&lt;/p&gt;" style="ellipse;shape=cloud;whiteSpace=wrap;html=1;align=center;fillColor=light-dark(#f2a14a, #36210a);strokeColor=#d79b00;" vertex="1" parent="1">
          <mxGeometry x="-294.5" y="-113.25" width="237.5" height="192.25" as="geometry" />
        </mxCell>
        <mxCell id="VXwOsZXAh-60YvnX4HJ6-27" style="edgeStyle=none;curved=1;rounded=0;orthogonalLoop=1;jettySize=auto;html=1;entryX=0.75;entryY=0;entryDx=0;entryDy=0;fontSize=12;startSize=8;endSize=8;endArrow=none;startFill=0;" edge="1" parent="1" source="VXwOsZXAh-60YvnX4HJ6-23" target="VXwOsZXAh-60YvnX4HJ6-10">
          <mxGeometry relative="1" as="geometry" />
        </mxCell>
        <mxCell id="VXwOsZXAh-60YvnX4HJ6-23" value="creator" style="ellipse;whiteSpace=wrap;html=1;align=center;fillColor=#dae8fc;strokeColor=#6c8ebf;" vertex="1" parent="1">
          <mxGeometry x="995.25" y="576" width="70" height="40" as="geometry" />
        </mxCell>
        <mxCell id="VXwOsZXAh-60YvnX4HJ6-26" style="edgeStyle=none;curved=1;rounded=0;orthogonalLoop=1;jettySize=auto;html=1;entryX=1;entryY=0.25;entryDx=0;entryDy=0;fontSize=12;startSize=8;endSize=8;endArrow=none;startFill=0;" edge="1" parent="1" source="VXwOsZXAh-60YvnX4HJ6-24" target="VXwOsZXAh-60YvnX4HJ6-10">
          <mxGeometry relative="1" as="geometry" />
        </mxCell>
        <mxCell id="VXwOsZXAh-60YvnX4HJ6-24" value="creation_date" style="ellipse;whiteSpace=wrap;html=1;align=center;fillColor=#dae8fc;strokeColor=#6c8ebf;" vertex="1" parent="1">
          <mxGeometry x="1050.25" y="612" width="80" height="40" as="geometry" />
        </mxCell>
        <mxCell id="VXwOsZXAh-60YvnX4HJ6-28" style="edgeStyle=none;curved=1;rounded=0;orthogonalLoop=1;jettySize=auto;html=1;entryX=0.5;entryY=0;entryDx=0;entryDy=0;fontSize=12;startSize=8;endSize=8;endArrow=none;startFill=0;" edge="1" parent="1" source="VXwOsZXAh-60YvnX4HJ6-25" target="VXwOsZXAh-60YvnX4HJ6-10">
          <mxGeometry relative="1" as="geometry" />
        </mxCell>
        <mxCell id="VXwOsZXAh-60YvnX4HJ6-25" value="modification_date" style="ellipse;whiteSpace=wrap;html=1;align=center;fillColor=#dae8fc;strokeColor=#6c8ebf;" vertex="1" parent="1">
          <mxGeometry x="905.25" y="550" width="105" height="33" as="geometry" />
        </mxCell>
        <mxCell id="VXwOsZXAh-60YvnX4HJ6-29" value="Chosen_capacity" style="whiteSpace=wrap;html=1;align=center;fillColor=#fff2cc;strokeColor=#d6b656;" vertex="1" parent="1">
          <mxGeometry x="920" y="872.5" width="100" height="40" as="geometry" />
        </mxCell>
        <mxCell id="VXwOsZXAh-60YvnX4HJ6-30" style="rounded=0;orthogonalLoop=1;jettySize=auto;html=1;entryX=0.5;entryY=1;entryDx=0;entryDy=0;endArrow=none;startFill=0;" edge="1" parent="1" source="VXwOsZXAh-60YvnX4HJ6-31" target="VXwOsZXAh-60YvnX4HJ6-29">
          <mxGeometry relative="1" as="geometry" />
        </mxCell>
        <mxCell id="VXwOsZXAh-60YvnX4HJ6-31" value="id" style="ellipse;whiteSpace=wrap;html=1;align=center;fontStyle=4;fillColor=#1ba1e2;fontColor=#ffffff;strokeColor=#006EAF;" vertex="1" parent="1">
          <mxGeometry x="995" y="920" width="50" height="30" as="geometry" />
        </mxCell>
        <mxCell id="VXwOsZXAh-60YvnX4HJ6-32" style="rounded=0;orthogonalLoop=1;jettySize=auto;html=1;entryX=0.25;entryY=0;entryDx=0;entryDy=0;endArrow=none;startFill=0;exitX=1;exitY=0.5;exitDx=0;exitDy=0;" edge="1" parent="1" source="VXwOsZXAh-60YvnX4HJ6-33" target="VXwOsZXAh-60YvnX4HJ6-29">
          <mxGeometry relative="1" as="geometry" />
        </mxCell>
        <mxCell id="VXwOsZXAh-60YvnX4HJ6-33" value="number" style="ellipse;whiteSpace=wrap;html=1;align=center;fillColor=#dae8fc;strokeColor=#6c8ebf;" vertex="1" parent="1">
          <mxGeometry x="850" y="828.12" width="71" height="31.88" as="geometry" />
        </mxCell>
        <mxCell id="VXwOsZXAh-60YvnX4HJ6-34" style="edgeStyle=none;curved=1;rounded=0;orthogonalLoop=1;jettySize=auto;html=1;entryX=1;entryY=0.75;entryDx=0;entryDy=0;fontSize=12;startSize=8;endSize=8;endArrow=none;startFill=0;" edge="1" parent="1" source="VXwOsZXAh-60YvnX4HJ6-35" target="VXwOsZXAh-60YvnX4HJ6-29">
          <mxGeometry relative="1" as="geometry" />
        </mxCell>
        <mxCell id="VXwOsZXAh-60YvnX4HJ6-35" value="creator" style="ellipse;whiteSpace=wrap;html=1;align=center;fillColor=#dae8fc;strokeColor=#6c8ebf;" vertex="1" parent="1">
          <mxGeometry x="1045" y="880" width="70" height="40" as="geometry" />
        </mxCell>
        <mxCell id="VXwOsZXAh-60YvnX4HJ6-36" style="edgeStyle=none;curved=1;rounded=0;orthogonalLoop=1;jettySize=auto;html=1;entryX=0;entryY=1;entryDx=0;entryDy=0;fontSize=12;startSize=8;endSize=8;endArrow=none;startFill=0;" edge="1" parent="1" source="VXwOsZXAh-60YvnX4HJ6-37" target="VXwOsZXAh-60YvnX4HJ6-29">
          <mxGeometry relative="1" as="geometry" />
        </mxCell>
        <mxCell id="VXwOsZXAh-60YvnX4HJ6-37" value="creation_date" style="ellipse;whiteSpace=wrap;html=1;align=center;fillColor=#dae8fc;strokeColor=#6c8ebf;" vertex="1" parent="1">
          <mxGeometry x="850" y="935" width="80" height="30" as="geometry" />
        </mxCell>
        <mxCell id="VXwOsZXAh-60YvnX4HJ6-38" style="edgeStyle=none;curved=1;rounded=0;orthogonalLoop=1;jettySize=auto;html=1;entryX=1;entryY=0.25;entryDx=0;entryDy=0;fontSize=12;startSize=8;endSize=8;endArrow=none;startFill=0;" edge="1" parent="1" source="VXwOsZXAh-60YvnX4HJ6-39" target="VXwOsZXAh-60YvnX4HJ6-29">
          <mxGeometry relative="1" as="geometry" />
        </mxCell>
        <mxCell id="VXwOsZXAh-60YvnX4HJ6-39" value="modification_date" style="ellipse;whiteSpace=wrap;html=1;align=center;fillColor=#dae8fc;strokeColor=#6c8ebf;" vertex="1" parent="1">
          <mxGeometry x="1015" y="838.5" width="105" height="33" as="geometry" />
        </mxCell>
        <mxCell id="VXwOsZXAh-60YvnX4HJ6-41" style="edgeStyle=orthogonalEdgeStyle;rounded=0;orthogonalLoop=1;jettySize=auto;html=1;entryX=0;entryY=0.5;entryDx=0;entryDy=0;fontSize=12;startSize=8;endSize=8;endArrow=none;startFill=0;" edge="1" parent="1" source="VXwOsZXAh-60YvnX4HJ6-40" target="VXwOsZXAh-60YvnX4HJ6-29">
          <mxGeometry relative="1" as="geometry" />
        </mxCell>
        <mxCell id="VXwOsZXAh-60YvnX4HJ6-42" value="N" style="edgeLabel;html=1;align=center;verticalAlign=middle;resizable=0;points=[];fontSize=12;" vertex="1" connectable="0" parent="VXwOsZXAh-60YvnX4HJ6-41">
          <mxGeometry x="0.0455" relative="1" as="geometry">
            <mxPoint as="offset" />
          </mxGeometry>
        </mxCell>
        <mxCell id="VXwOsZXAh-60YvnX4HJ6-40" value="chose" style="shape=rhombus;perimeter=rhombusPerimeter;whiteSpace=wrap;html=1;align=center;fillColor=#d5e8d4;strokeColor=#82b366;" vertex="1" parent="1">
          <mxGeometry x="810" y="872.5" width="40" height="40" as="geometry" />
        </mxCell>
        <mxCell id="tO58HSDaYGG8lKxta5jq-1" value="&lt;div&gt;Integrantes&lt;/div&gt;&lt;div&gt;Mauricio González Prendas (carné: 2024143009)&lt;/div&gt;&lt;div&gt;Carmen Hidalgo Paz (carné: 2020030538)&lt;/div&gt;&lt;div&gt;Dylan Meza Marin (carné: 000000000)&lt;/div&gt;" style="text;html=1;align=left;verticalAlign=middle;resizable=0;points=[];autosize=1;strokeColor=none;fillColor=none;" vertex="1" parent="1">
          <mxGeometry x="-600" y="-30" width="290" height="70" as="geometry" />
        </mxCell>
        <mxCell id="nYZou5PLqQobL_fHpxvr-6" value="id" style="ellipse;whiteSpace=wrap;html=1;align=center;fontStyle=4;fillColor=#1ba1e2;fontColor=#ffffff;strokeColor=#006EAF;" vertex="1" parent="1">
          <mxGeometry x="-499" y="691" width="70" height="30" as="geometry" />
        </mxCell>
        <mxCell id="nYZou5PLqQobL_fHpxvr-7" value="creator" style="ellipse;whiteSpace=wrap;html=1;align=center;fillColor=#dae8fc;strokeColor=#6c8ebf;" vertex="1" parent="1">
          <mxGeometry x="-394" y="681" width="45.5" height="25" as="geometry" />
        </mxCell>
        <mxCell id="nYZou5PLqQobL_fHpxvr-8" value="creation_date" style="ellipse;whiteSpace=wrap;html=1;align=center;fillColor=#dae8fc;strokeColor=#6c8ebf;" vertex="1" parent="1">
          <mxGeometry x="-276.25" y="801" width="80" height="25" as="geometry" />
        </mxCell>
        <mxCell id="nYZou5PLqQobL_fHpxvr-9" value="modifier" style="ellipse;whiteSpace=wrap;html=1;align=center;fillColor=#dae8fc;strokeColor=#6c8ebf;" vertex="1" parent="1">
          <mxGeometry x="-235" y="754.75" width="55" height="20" as="geometry" />
        </mxCell>
        <mxCell id="nYZou5PLqQobL_fHpxvr-10" value="modification_date" style="ellipse;whiteSpace=wrap;html=1;align=center;fillColor=#dae8fc;strokeColor=#6c8ebf;" vertex="1" parent="1">
          <mxGeometry x="-454" y="826" width="105" height="25" as="geometry" />
        </mxCell>
      </root>
    </mxGraphModel>
  </diagram>
  <diagram id="M9WkW-GfBzDByQg8-BCy" name="modelo-logico">
    <mxGraphModel grid="1" page="1" gridSize="10" guides="1" tooltips="1" connect="1" arrows="1" fold="1" pageScale="1" pageWidth="850" pageHeight="1100" math="0" shadow="0">
      <root>
        <mxCell id="0" />
        <mxCell id="1" parent="0" />
      </root>
    </mxGraphModel>
  </diagram>
</mxfile>
